{
.appVersion = "3151";
DisplayStrings = (
"",
"",
"",
"",
"",
"",
"",
"",
"\012\012",
"",
"",
"",
"/.notdef"
);
copyright = "Copyright 2024 Pathum Egodawatta";
customParameters = (
{
name = glyphOrder;
value = (
.notdef,
NULL,
CR,
space,
nbspace,
Uber,
zerowidthjoiner,
zerowidthnonjoiner,
dottedCircle,
"touch-sinhala",
A,
B,
C,
D,
E,
F,
G,
H,
I,
J,
K,
L,
M,
N,
O,
P,
Q,
R,
S,
T,
U,
V,
W,
X,
Y,
Z,
Aacute,
Abreve,
Acircumflex,
Adieresis,
AE,
Agrave,
Amacron,
Aogonek,
Aring,
Atilde,
Cacute,
Ccaron,
Ccedilla,
Ccircumflex,
Cdotaccent,
Dcaron,
Dcroat,
Eacute,
Ebreve,
Ecaron,
Ecircumflex,
Edieresis,
Edotaccent,
Egrave,
Emacron,
Eng,
Eogonek,
Eth,
Gbreve,
Gcircumflex,
Gcommaaccent,
Gdotaccent,
Hbar,
Hcircumflex,
Iacute,
Ibreve,
Icircumflex,
Idieresis,
Idotaccent,
Igrave,
IJ,
Imacron,
Iogonek,
Itilde,
Jcircumflex,
Kcommaaccent,
Lacute,
Lcaron,
Lcommaaccent,
Ldot,
Lslash,
Nacute,
Ncaron,
Ncommaaccent,
Ntilde,
Oacute,
Obreve,
Ocircumflex,
Odieresis,
OE,
Ograve,
Ohungarumlaut,
Omacron,
Oslash,
Otilde,
Racute,
Rcaron,
Rcommaaccent,
Sacute,
Scaron,
Scedilla,
Scircumflex,
Scommaaccent,
Tbar,
Tcaron,
Tcedilla,
uni021A,
Thorn,
Uacute,
Ubreve,
Ucircumflex,
Udieresis,
Ugrave,
Uhungarumlaut,
Umacron,
Uogonek,
Uring,
Utilde,
Wacute,
Wdieresis,
Wgrave,
Wcircumflex,
Yacute,
Ycircumflex,
Ydieresis,
Ygrave,
Zacute,
Zcaron,
Zdotaccent,
a,
b,
c,
d,
e,
f,
g,
h,
i,
j,
k,
l,
m,
n,
o,
p,
q,
r,
s,
t,
u,
v,
w,
x,
y,
z,
aacute,
abreve,
acircumflex,
adieresis,
ae,
agrave,
amacron,
aogonek,
aring,
atilde,
cacute,
ccaron,
ccedilla,
ccircumflex,
cdotaccent,
dcaron,
dcroat,
dotlessi,
dotlessj,
eacute,
ebreve,
ecaron,
ecircumflex,
edieresis,
edotaccent,
egrave,
emacron,
eng,
eogonek,
eth,
gbreve,
gcircumflex,
gcommaaccent,
gdotaccent,
germandbls,
hbar,
hcircumflex,
iacute,
ibreve,
icircumflex,
idieresis,
idotaccent,
igrave,
ij,
imacron,
iogonek,
itilde,
jcircumflex,
kcommaaccent,
kgreenlandic,
lacute,
lcaron,
lcommaaccent,
ldot,
lslash,
nacute,
ncaron,
ncommaaccent,
ntilde,
oacute,
obreve,
ocircumflex,

glyphs = (
{
glyphname = .notdef;
lastChange = "2024-02-24 02:14:38 +0000";
layers = (
{
layerId = "C18F3EFD-FA9C-4751-AD2F-5B966120D1A5";
paths = (
{
closed = 1;
nodes = (
"50 -92.66 LINE",
"50 754.34 LINE",
"581 754.34 LINE",
"581 -92.66 LINE"
);
},
{
closed = 1;
nodes = (
"267 70 CURVE SMOOTH",
"267 88 OFFCURVE",
"283 104 OFFCURVE",
"301 104 CURVE SMOOTH",
"319 104 OFFCURVE",
"335 88 OFFCURVE",
"335 70 CURVE SMOOTH",
"335 52 OFFCURVE",
"319 37 OFFCURVE",
"301 37 CURVE SMOOTH",
"283 37 OFFCURVE",
"267 52 OFFCURVE"
);
},
{
closed = 1;
nodes = (
"88.38 718.34 LINE",
"88.38 -55.55 LINE",
"541.62 -55.55 LINE",
"541.62 718.34 LINE"
);
},
{
closed = 1;
nodes = (
"172 467 LINE",
"172 557 OFFCURVE",
"244 603 OFFCURVE",
"320 603 CURVE SMOOTH",
"419 603 OFFCURVE",
"469 539 OFFCURVE",
"470 461 CURVE SMOOTH",
"472 349 OFFCURVE",
"388 297 OFFCURVE",
"317 297 CURVE",
"323 308 LINE",
"323 152 LINE",
"277 152 LINE",
"277 336 LINE",
"370 337 OFFCURVE",
"424 380 OFFCURVE",
"424 461 CURVE SMOOTH",
"424 520 OFFCURVE",
"384 559 OFFCURVE",
"320 559 CURVE SMOOTH",
"258 559 OFFCURVE",
"212 521 OFFCURVE",
"212 467 CURVE"
);
}
);
width = 631;
}
);
},
{
glyphname = zerowidthjoiner;
lastChange = "2024-02-20 01:45:26 +0000";
layers = (
{
layerId = "C18F3EFD-FA9C-4751-AD2F-5B966120D1A5";
paths = (
{
closed = 1;
nodes = (
"26 640 LINE",
"147 520 LINE",
"121 493 LINE",
"20 596 LINE",
"20 10 LINE",
"-20 10 LINE",
"-20 596 LINE",
"-121 493 LINE",
"-147 520 LINE",
"-26 640 LINE",
"-147 759 LINE",
"-121 784 LINE",
"0 663 LINE",
"121 784 LINE",
"147 759 LINE"
);
}
);
width = 0;
}
);
unicode = 200D;
},
{
glyphname = zerowidthnonjoiner;
lastChange = "2024-02-20 01:45:26 +0000";
layers = (
{
layerId = "C18F3EFD-FA9C-4751-AD2F-5B966120D1A5";
paths = (
{
closed = 1;
nodes = (
"-20 9 LINE",
"-20 743 LINE",
"20 743 LINE",
"20 9 LINE"
);
}
);
width = 0;
}
);
unicode = 200C;
},
{
glyphname = dottedCircle;
lastChange = "2024-02-20 01:45:26 +0000";
layers = (
{
layerId = "C18F3EFD-FA9C-4751-AD2F-5B966120D1A5";
paths = (
{
closed = 1;
nodes = (
"407 104 OFFCURVE",
"414 110 OFFCURVE",
"414 123 CURVE SMOOTH",
"414 135 OFFCURVE",
"407 142 OFFCURVE",
"395 142 CURVE SMOOTH",
"382 142 OFFCURVE",
"376 135 OFFCURVE",
"376 123 CURVE SMOOTH",
"376 110 OFFCURVE",
"382 104 OFFCURVE",
"395 104 CURVE SMOOTH"
);
},
{
closed = 1;
nodes = (
"132 49 OFFCURVE",
"138 55 OFFCURVE",
"138 67 CURVE SMOOTH",
"138 80 OFFCURVE",
"131 86 OFFCURVE",
"119 86 CURVE SMOOTH",
"106 86 OFFCURVE",
"101 80 OFFCURVE",
"101 67 CURVE SMOOTH",
"101 55 OFFCURVE",
"107 49 OFFCURVE",
"120 49 CURVE SMOOTH"
);
},
{
closed = 1;
nodes = (
"95 104 OFFCURVE",
"101 110 OFFCURVE",
"101 123 CURVE SMOOTH",
"101 135 OFFCURVE",
"95 142 OFFCURVE",
"83 142 CURVE SMOOTH",
"70 142 OFFCURVE",
"64 135 OFFCURVE",
"64 123 CURVE SMOOTH",
"64 110 OFFCURVE",
"70 104 OFFCURVE",
"83 104 CURVE SMOOTH"
);
},
{
closed = 1;
nodes = (
"186 13 OFFCURVE",
"192 20 OFFCURVE",
"192 32 CURVE SMOOTH",
"192 44 OFFCURVE",
"186 50 OFFCURVE",
"174 50 CURVE SMOOTH",
"162 50 OFFCURVE",
"156 44 OFFCURVE",
"156 31 CURVE SMOOTH",
"156 19 OFFCURVE",
"162 13 OFFCURVE",
"174 13 CURVE SMOOTH"
);
},
{
closed = 1;
nodes = (
"250 0 OFFCURVE",
"256 6 OFFCURVE",
"256 19 CURVE SMOOTH",
"256 31 OFFCURVE",
"250 37 OFFCURVE",
"238 37 CURVE SMOOTH",
"226 37 OFFCURVE",
"220 31 OFFCURVE",
"220 19 CURVE SMOOTH",
"220 6 OFFCURVE",
"226 0 OFFCURVE",
"238 0 CURVE SMOOTH"
);
},
{
closed = 1;
nodes = (
"82 169 OFFCURVE",
"88 175 OFFCURVE",
"88 188 CURVE SMOOTH",
"88 200 OFFCURVE",
"82 206 OFFCURVE",
"70 206 CURVE SMOOTH",
"57 206 OFFCURVE",
"51 200 OFFCURVE",
"51 188 CURVE SMOOTH",
"51 175 OFFCURVE",
"57 169 OFFCURVE",
"70 169 CURVE SMOOTH"
);
},
{
closed = 1;
nodes = (
"95 233 OFFCURVE",
"101 239 OFFCURVE",
"101 252 CURVE SMOOTH",
"101 264 OFFCURVE",
"95 270 OFFCURVE",
"83 270 CURVE SMOOTH",
"70 270 OFFCURVE",
"64 264 OFFCURVE",
"64 252 CURVE SMOOTH",
"64 239 OFFCURVE",
"71 233 OFFCURVE",
"83 233 CURVE SMOOTH"
);
},
{
closed = 1;
nodes = (
"315 13 OFFCURVE",
"321 19 OFFCURVE",
"321 31 CURVE SMOOTH",
"321 44 OFFCURVE",
"315 50 OFFCURVE",
"303 50 CURVE SMOOTH",
"291 50 OFFCURVE",
"285 44 OFFCURVE",
"285 31 CURVE SMOOTH",
"285 19 OFFCURVE",
"291 13 OFFCURVE",
"303 13 CURVE SMOOTH"
);
},
{
closed = 1;
nodes = (
"371 49 OFFCURVE",
"376 55 OFFCURVE",
"376 67 CURVE SMOOTH",
"376 80 OFFCURVE",
"371 86 OFFCURVE",
"358 86 CURVE SMOOTH",
"346 86 OFFCURVE",
"340 80 OFFCURVE",
"340 67 CURVE SMOOTH",
"340 55 OFFCURVE",
"346 49 OFFCURVE",
"358 49 CURVE SMOOTH"
);
},
{
closed = 1;
nodes = (
"131 289 OFFCURVE",
"138 295 OFFCURVE",
"138 307 CURVE SMOOTH",
"138 319 OFFCURVE",
"131 325 OFFCURVE",
"119 325 CURVE SMOOTH",
"106 325 OFFCURVE",
"101 319 OFFCURVE",
"101 306 CURVE SMOOTH",
"101 295 OFFCURVE",
"106 289 OFFCURVE",
"119 289 CURVE SMOOTH"
);
},
{
closed = 1;
nodes = (
"186 325 OFFCURVE",
"192 331 OFFCURVE",
"192 343 CURVE SMOOTH",
"192 356 OFFCURVE",
"186 362 OFFCURVE",
"174 362 CURVE SMOOTH",
"162 362 OFFCURVE",
"156 356 OFFCURVE",
"156 343 CURVE SMOOTH",
"156 331 OFFCURVE",
"162 325 OFFCURVE",
"174 325 CURVE SMOOTH"
);
},
{
closed = 1;
nodes = (
"250 338 OFFCURVE",
"256 344 OFFCURVE",
"256 357 CURVE SMOOTH",
"256 369 OFFCURVE",
"250 375 OFFCURVE",
"238 375 CURVE SMOOTH",
"226 375 OFFCURVE",
"220 369 OFFCURVE",
"220 357 CURVE SMOOTH",
"220 344 OFFCURVE",
"226 338 OFFCURVE",
"238 338 CURVE SMOOTH"
);
},
{
closed = 1;
nodes = (
"420 169 OFFCURVE",
"426 175 OFFCURVE",
"426 188 CURVE SMOOTH",
"426 200 OFFCURVE",
"420 206 OFFCURVE",
"408 206 CURVE SMOOTH",
"396 206 OFFCURVE",
"389 200 OFFCURVE",
"389 188 CURVE SMOOTH",
"389 175 OFFCURVE",
"396 169 OFFCURVE",
"408 169 CURVE SMOOTH"
);
},
{
closed = 1;
nodes = (
"315 325 OFFCURVE",
"321 331 OFFCURVE",
"321 343 CURVE SMOOTH",
"321 356 OFFCURVE",
"315 362 OFFCURVE",
"303 362 CURVE SMOOTH",
"291 362 OFFCURVE",
"284 356 OFFCURVE",
"284 343 CURVE SMOOTH",
"284 331 OFFCURVE",
"291 325 OFFCURVE",
"303 325 CURVE SMOOTH"
);
},
{
closed = 1;
nodes = (
"407 233 OFFCURVE",
"414 239 OFFCURVE",
"414 252 CURVE SMOOTH",
"414 264 OFFCURVE",
"408 270 OFFCURVE",
"396 270 CURVE SMOOTH",
"383 270 OFFCURVE",
"376 264 OFFCURVE",
"376 252 CURVE SMOOTH",
"376 239 OFFCURVE",
"382 233 OFFCURVE",
"395 233 CURVE SMOOTH"
);
},
{
closed = 1;
nodes = (
"371 289 OFFCURVE",
"376 295 OFFCURVE",
"376 307 CURVE SMOOTH",
"376 319 OFFCURVE",
"371 325 OFFCURVE",
"358 325 CURVE SMOOTH",
"346 325 OFFCURVE",
"339 319 OFFCURVE",
"339 307 CURVE SMOOTH",
"339 295 OFFCURVE",
"346 289 OFFCURVE",
"358 289 CURVE SMOOTH"
);
}
);
width = 600;
}
);
unicode = 25CC;
},
{
glyphname = zero;
lastChange = "2024-02-20 01:45:26 +0000";
layers = (
{
background = {
paths = (
{
closed = 1;
nodes = (
"509 507 OFFCURVE",
"403 610 OFFCURVE",
"266 610 CURVE SMOOTH",
"128 610 OFFCURVE",
"14 502 OFFCURVE",
"14 304 CURVE SMOOTH",
"14 99 OFFCURVE",
"122 -10 OFFCURVE",
"261 -10 CURVE SMOOTH",
"399 -10 OFFCURVE",
"509 102 OFFCURVE",
"509 300 CURVE SMOOTH"
);
},
{
closed = 1;
nodes = (
"409 100 OFFCURVE",
"359 18 OFFCURVE",
"264 18 CURVE SMOOTH",
"169 18 OFFCURVE",
"114 90 OFFCURVE",
"114 300 CURVE SMOOTH",
"114 508 OFFCURVE",
"168 582 OFFCURVE",
"263 582 CURVE SMOOTH",
"358 582 OFFCURVE",
"409 517 OFFCURVE",
"409 304 CURVE SMOOTH"
);
}
);
};
layerId = "C18F3EFD-FA9C-4751-AD2F-5B966120D1A5";
paths = (
{
closed = 1;
nodes = (
"478 451 OFFCURVE",
"385 540 OFFCURVE",
"265 540 CURVE SMOOTH",
"145 540 OFFCURVE",
"45 446 OFFCURVE",
"45 269 CURVE SMOOTH",
"45 86 OFFCURVE",
"140 -10 OFFCURVE",
"261 -10 CURVE SMOOTH",
"381 -10 OFFCURVE",
"478 88 OFFCURVE",
"478 266 CURVE SMOOTH"
);
},
{
closed = 1;
nodes = (
"390 87 OFFCURVE",
"346 16 OFFCURVE",
"264 16 CURVE SMOOTH",
"181 16 OFFCURVE",
"133 78 OFFCURVE",
"133 266 CURVE SMOOTH",
"133 451 OFFCURVE",
"180 514 OFFCURVE",
"263 514 CURVE SMOOTH",
"345 514 OFFCURVE",
"390 459 OFFCURVE",
"390 269 CURVE SMOOTH"
);
}
);
width = 523;
}
);
unicode = 0030;
},
{
glyphname = one;
lastChange = "2024-02-20 01:45:26 +0000";
layers = (
{
background = {
paths = (
{
closed = 1;
nodes = (
"216 486 LINE",
"44 380 LINE",
"58 358 LINE",
"195 438 LINE",
"195 32 LINE",
"64 20 LINE",
"64 0 LINE",
"386 0 LINE",
"386 15 OFFCURVE",
"377 18 OFFCURVE",
"362 20 CURVE SMOOTH",
"269 32 LINE",
"269 486 LINE"
);
}
);
};
guideLines = (
{
position = "{357, 486}";
}
);
layerId = "C18F3EFD-FA9C-4751-AD2F-5B966120D1A5";
paths = (
{
closed = 1;
nodes = (
"221 530 LINE",
"20 397 LINE",
"38 368 LINE",
"194 468 LINE",
"194 35 LINE",
"57 26 LINE",
"57 0 LINE",
"403 0 LINE",
"403 19 OFFCURVE",
"397 25 OFFCURVE",
"377 27 CURVE SMOOTH",
"274 35 LINE",
"274 530 LINE"
);
}
);
width = 418;
}
);
unicode = 0031;
},
{
glyphname = two;
lastChange = "2024-02-20 01:45:26 +0000";
layers = (
{
background = {
paths = (
{
closed = 1;
nodes = (
"62 73 LINE",
"62 205 OFFCURVE",
"418 283 OFFCURVE",
"418 467 CURVE SMOOTH",
"418 565 OFFCURVE",
"319 610 OFFCURVE",
"217 610 CURVE SMOOTH",
"115 610 OFFCURVE",
"18 565 OFFCURVE",
"18 481 CURVE SMOOTH",
"18 451 OFFCURVE",
"34 428 OFFCURVE",
"66 428 CURVE SMOOTH",
"167 428 OFFCURVE",
"69 583 OFFCURVE",
"208 583 CURVE SMOOTH",
"287 583 OFFCURVE",
"321 535 OFFCURVE",
"321 468 CURVE SMOOTH",
"321 305 OFFCURVE",
"10 227 OFFCURVE",
"10 20 CURVE"
);
},
{
closed = 1;
nodes = (
"423 0 LINE",
"423 73 LINE",
"62 73 LINE",
"10 20 LINE",
"10 0 LINE"
);
},
{
closed = 1;
nodes = (
"425 171 LINE",
"402 171 LINE",
"384 115 LINE SMOOTH",
"371 74 OFFCURVE",
"347 73 OFFCURVE",
"306 73 CURVE",
"423 0 LINE"
);
}
);
};
layerId = "C18F3EFD-FA9C-4751-AD2F-5B966120D1A5";
paths = (
{
closed = 1;
nodes = (
"80 70 LINE",
"80 149 OFFCURVE",
"397 223 OFFCURVE",
"397 397 CURVE SMOOTH",
"397 495 OFFCURVE",
"311 540 OFFCURVE",
"212 540 CURVE SMOOTH",
"123 540 OFFCURVE",
"31 495 OFFCURVE",
"31 411 CURVE SMOOTH",
"31 381 OFFCURVE",
"47 358 OFFCURVE",
"74 358 CURVE SMOOTH",
"170 358 OFFCURVE",
"77 514 OFFCURVE",
"203 514 CURVE SMOOTH",
"279 514 OFFCURVE",
"312 465 OFFCURVE",
"312 398 CURVE SMOOTH",
"312 191 OFFCURVE",
"30 197 OFFCURVE",
"30 20 CURVE"
);
},
{
closed = 1;
nodes = (
"411 0 LINE",
"411 70 LINE",
"80 70 LINE",
"30 20 LINE",
"30 0 LINE"
);
},
{
closed = 1;
nodes = (
"413 168 LINE",
"394 168 LINE",
"378 114 LINE SMOOTH",
"366 75 OFFCURVE",
"347 70 OFFCURVE",
"306 70 CURVE",
"411 0 LINE"
);
}
);
width = 468;
},
{
associatedMasterId = "C18F3EFD-FA9C-4751-AD2F-5B966120D1A5";
background = {
paths = (
{
closed = 1;
nodes = (
"86 350 OFFCURVE",
"65 392 OFFCURVE",
"65 442 CURVE SMOOTH",
"65 536 OFFCURVE",
"132 580 OFFCURVE",
"201 580 CURVE SMOOTH",
"268 580 OFFCURVE",
"326 539 OFFCURVE",
"326 433 CURVE SMOOTH",
"326 260 OFFCURVE",
"119 117 OFFCURVE",
"17 15 CURVE",
"138 87 LINE",
"256 189 OFFCURVE",
"470 277 OFFCURVE",
"470 451 CURVE SMOOTH",
"470 558 OFFCURVE",
"381 614 OFFCURVE",
"245 614 CURVE SMOOTH",
"126 614 OFFCURVE",
"34 561 OFFCURVE",
"34 441 CURVE SMOOTH",
"34 378 OFFCURVE",
"70 319 OFFCURVE",
"145 319 CURVE SMOOTH",
"189 319 OFFCURVE",
"247 356 OFFCURVE",
"247 396 CURVE SMOOTH",
"247 419 OFFCURVE",
"231 437 OFFCURVE",
"198 437 CURVE SMOOTH",
"127 437 OFFCURVE",
"177 350 OFFCURVE",
"126 350 CURVE SMOOTH"
);
},
{
closed = 1;
nodes = (
"431 146 LINE SMOOTH",
"414 103 OFFCURVE",
"392 98 OFFCURVE",
"351 98 CURVE SMOOTH",
"111 98 LINE",
"17 15 LINE",
"16 0 LINE",
"470 0 LINE",
"472 189 LINE",
"448 189 LINE"
);
}
);
};
layerId = "609CC18C-27B8-4FA5-A670-FCA6CB0E2ECA";
name = "2 B";
paths = (
{
closed = 1;
nodes = (
"86 350 OFFCURVE",
"65 392 OFFCURVE",
"65 442 CURVE SMOOTH",
"65 534 OFFCURVE",
"134 580 OFFCURVE",
"201 580 CURVE SMOOTH",
"268 580 OFFCURVE",
"326 539 OFFCURVE",
"326 433 CURVE SMOOTH",
"326 205 OFFCURVE",
"27 139 OFFCURVE",
"27 15 CURVE",
"56 34 LINE",
"140 168 OFFCURVE",
"470 262 OFFCURVE",
"470 446 CURVE SMOOTH",
"470 551 OFFCURVE",
"375 614 OFFCURVE",
"245 614 CURVE SMOOTH",
"128 614 OFFCURVE",
"34 559 OFFCURVE",
"34 441 CURVE SMOOTH",
"34 378 OFFCURVE",
"70 319 OFFCURVE",
"145 319 CURVE SMOOTH",
"189 319 OFFCURVE",
"247 356 OFFCURVE",
"247 396 CURVE SMOOTH",
"247 419 OFFCURVE",
"231 437 OFFCURVE",
"198 437 CURVE SMOOTH",
"127 437 OFFCURVE",
"177 350 OFFCURVE",
"126 350 CURVE SMOOTH"
);
},
{
closed = 1;
nodes = (
"431 146 LINE SMOOTH",
"414 103 OFFCURVE",
"392 98 OFFCURVE",
"351 98 CURVE SMOOTH",
"90 98 LINE",
"27 15 LINE",
"26 0 LINE",
"470 0 LINE",
"472 189 LINE",
"448 189 LINE"
);
}
);
width = 515;
},
{
associatedMasterId = "C18F3EFD-FA9C-4751-AD2F-5B966120D1A5";
background = {
paths = (
{
closed = 1;
nodes = (
"86 350 OFFCURVE",
"65 392 OFFCURVE",
"65 442 CURVE SMOOTH",
"65 536 OFFCURVE",
"132 580 OFFCURVE",
"201 580 CURVE SMOOTH",
"268 580 OFFCURVE",
"326 539 OFFCURVE",
"326 433 CURVE SMOOTH",
"326 260 OFFCURVE",
"119 117 OFFCURVE",
"17 15 CURVE",
"138 87 LINE",
"256 189 OFFCURVE",
"470 277 OFFCURVE",
"470 451 CURVE SMOOTH",
"470 558 OFFCURVE",
"381 614 OFFCURVE",
"245 614 CURVE SMOOTH",
"126 614 OFFCURVE",
"34 561 OFFCURVE",
"34 441 CURVE SMOOTH",
"34 378 OFFCURVE",
"70 319 OFFCURVE",
"145 319 CURVE SMOOTH",
"189 319 OFFCURVE",
"247 356 OFFCURVE",
"247 396 CURVE SMOOTH",
"247 419 OFFCURVE",
"231 437 OFFCURVE",
"198 437 CURVE SMOOTH",
"127 437 OFFCURVE",
"177 350 OFFCURVE",
"126 350 CURVE SMOOTH"
);
},
{
closed = 1;
nodes = (
"431 146 LINE SMOOTH",
"414 103 OFFCURVE",
"392 98 OFFCURVE",
"351 98 CURVE SMOOTH",
"111 98 LINE",
"17 15 LINE",
"16 0 LINE",
"470 0 LINE",
"472 189 LINE",
"448 189 LINE"
);
}
);
};
layerId = "09E1B5A7-C1A9-4176-A98A-68F35A64705F";
name = "2 C";
paths = (
{
closed = 1;
nodes = (
"86 350 OFFCURVE",
"65 392 OFFCURVE",
"65 442 CURVE SMOOTH",
"65 536 OFFCURVE",
"132 580 OFFCURVE",
"201 580 CURVE SMOOTH",
"268 580 OFFCURVE",
"326 539 OFFCURVE",
"326 433 CURVE SMOOTH",
"326 260 OFFCURVE",
"119 117 OFFCURVE",
"17 15 CURVE",
"138 87 LINE",
"256 189 OFFCURVE",
"470 277 OFFCURVE",
"470 451 CURVE SMOOTH",
"470 558 OFFCURVE",
"381 614 OFFCURVE",
"245 614 CURVE SMOOTH",
"126 614 OFFCURVE",
"34 561 OFFCURVE",
"34 441 CURVE SMOOTH",
"34 378 OFFCURVE",
"70 319 OFFCURVE",
"145 319 CURVE SMOOTH",
"189 319 OFFCURVE",
"247 356 OFFCURVE",
"247 396 CURVE SMOOTH",
"247 419 OFFCURVE",
"231 437 OFFCURVE",
"198 437 CURVE SMOOTH",
"127 437 OFFCURVE",
"177 350 OFFCURVE",
"126 350 CURVE SMOOTH"
);
},
{
closed = 1;
nodes = (
"431 146 LINE SMOOTH",
"414 103 OFFCURVE",
"392 98 OFFCURVE",
"351 98 CURVE SMOOTH",
"111 98 LINE",
"17 15 LINE",
"16 0 LINE",
"470 0 LINE",
"472 189 LINE",
"448 189 LINE"
);
}
);
width = 515;
},
{
associatedMasterId = "C18F3EFD-FA9C-4751-AD2F-5B966120D1A5";
background = {
paths = (
{
closed = 1;
nodes = (
"82 73 LINE",
"82 205 OFFCURVE",
"445 301 OFFCURVE",
"445 459 CURVE SMOOTH",
"445 579 OFFCURVE",
"334 610 OFFCURVE",
"229 610 CURVE SMOOTH",
"98 610 OFFCURVE",
"38 535 OFFCURVE",
"38 481 CURVE SMOOTH",
"38 451 OFFCURVE",
"56 428 OFFCURVE",
"91 428 CURVE SMOOTH",
"187 428 OFFCURVE",
"89 584 OFFCURVE",
"225 584 CURVE SMOOTH",
"312 584 OFFCURVE",
"350 535 OFFCURVE",
"350 468 CURVE SMOOTH",
"350 305 OFFCURVE",
"30 227 OFFCURVE",
"30 20 CURVE"
);
},
{
closed = 1;
nodes = (
"453 0 LINE",
"453 73 LINE",
"82 73 LINE",
"30 20 LINE",
"30 0 LINE"
);
},
{
closed = 1;
nodes = (
"455 174 LINE",
"432 174 LINE",
"414 118 LINE SMOOTH",
"400 74 OFFCURVE",
"377 73 OFFCURVE",
"336 73 CURVE",
"453 0 LINE"
);
}
);
};
layerId = "B733FA21-D6D8-48E5-954E-A7A369907DCA";
name = "R 2";
paths = (
{
closed = 1;
nodes = (
"86 350 OFFCURVE",
"65 392 OFFCURVE",
"65 442 CURVE SMOOTH",
"65 534 OFFCURVE",
"134 580 OFFCURVE",
"201 580 CURVE SMOOTH",
"268 580 OFFCURVE",
"350 539 OFFCURVE",
"350 433 CURVE SMOOTH",
"350 225 OFFCURVE",
"27 139 OFFCURVE",
"27 15 CURVE",
"62 34 LINE",
"146 168 OFFCURVE",
"440 265 OFFCURVE",
"440 449 CURVE SMOOTH",
"440 554 OFFCURVE",
"350 614 OFFCURVE",
"245 614 CURVE SMOOTH",
"128 614 OFFCURVE",
"34 559 OFFCURVE",
"34 441 CURVE SMOOTH",
"34 378 OFFCURVE",
"70 319 OFFCURVE",
"145 319 CURVE SMOOTH",
"189 319 OFFCURVE",
"247 356 OFFCURVE",
"247 396 CURVE SMOOTH",
"247 419 OFFCURVE",
"231 437 OFFCURVE",
"198 437 CURVE SMOOTH",
"127 437 OFFCURVE",
"177 350 OFFCURVE",
"126 350 CURVE SMOOTH"
);
},
{
closed = 1;
nodes = (
"431 126 LINE SMOOTH",
"417 82 OFFCURVE",
"392 78 OFFCURVE",
"351 78 CURVE SMOOTH",
"90 78 LINE",
"27 15 LINE",
"26 0 LINE",
"470 0 LINE",
"472 169 LINE",
"448 169 LINE"
);
}
);
width = 505;
}
);
unicode = 0032;
},
{
glyphname = three;
lastChange = "2024-02-20 01:45:26 +0000";
layers = (
{
background = {
paths = (
{
closed = 1;
nodes = (
"332 -10 OFFCURVE",
"453 48 OFFCURVE",
"453 177 CURVE SMOOTH",
"453 288 OFFCURVE",
"378 343 OFFCURVE",
"273 343 CURVE SMOOTH",
"235 343 OFFCURVE",
"194 334 OFFCURVE",
"153 316 CURVE",
"175 298 LINE",
"199 308 OFFCURVE",
"221 313 OFFCURVE",
"242 313 CURVE SMOOTH",
"318 313 OFFCURVE",
"363 261 OFFCURVE",
"363 173 CURVE SMOOTH",
"363 96 OFFCURVE",
"314 16 OFFCURVE",
"206 16 CURVE SMOOTH",
"84 16 OFFCURVE",
"185 160 OFFCURVE",
"84 160 CURVE SMOOTH",
"52 160 OFFCURVE",
"35 139 OFFCURVE",
"35 111 CURVE SMOOTH",
"35 33 OFFCURVE",
"123 -10 OFFCURVE",
"220 -10 CURVE SMOOTH"
);
},
{
closed = 1;
nodes = (
"71 430 LINE",
"89 486 LINE SMOOTH",
"102 526 OFFCURVE",
"126 527 OFFCURVE",
"167 527 CURVE",
"50 600 LINE",
"48 430 LINE"
);
},
{
closed = 1;
nodes = (
"437 580 LINE",
"340 526 LINE",
"153 316 LINE",
"175 298 LINE"
);
},
{
closed = 1;
nodes = (
"340 526 LINE",
"437 580 LINE",
"437 600 LINE",
"50 600 LINE",
"50 527 LINE"
);
},
{
closed = 1;
nodes = (
"332 -80 OFFCURVE",
"448 -22 OFFCURVE",
"448 107 CURVE SMOOTH",
"448 218 OFFCURVE",
"378 273 OFFCURVE",
"273 273 CURVE SMOOTH",
"235 273 OFFCURVE",
"190 264 OFFCURVE",
"149 246 CURVE",
"171 228 LINE",
"195 238 OFFCURVE",
"221 243 OFFCURVE",
"242 243 CURVE SMOOTH",
"318 243 OFFCURVE",
"363 191 OFFCURVE",
"363 103 CURVE SMOOTH",
"363 26 OFFCURVE",
"334 -54 OFFCURVE",
"206 -54 CURVE SMOOTH",
"84 -54 OFFCURVE",
"184 90 OFFCURVE",
"86 90 CURVE SMOOTH",
"57 90 OFFCURVE",
"40 69 OFFCURVE",
"40 41 CURVE SMOOTH",
"40 -37 OFFCURVE",
"123 -80 OFFCURVE",
"220 -80 CURVE SMOOTH"
);
}
);
};
layerId = "C18F3EFD-FA9C-4751-AD2F-5B966120D1A5";
paths = (
{
closed = 1;
nodes = (
"365 -80 OFFCURVE",
"443 17 OFFCURVE",
"443 112 CURVE SMOOTH",
"443 193 OFFCURVE",
"386 278 OFFCURVE",
"273 278 CURVE SMOOTH",
"235 278 OFFCURVE",
"190 269 OFFCURVE",
"149 251 CURVE",
"171 233 LINE",
"195 243 OFFCURVE",
"221 248 OFFCURVE",
"242 248 CURVE SMOOTH",
"313 248 OFFCURVE",
"360 186 OFFCURVE",
"360 98 CURVE SMOOTH",
"360 21 OFFCURVE",
"329 -55 OFFCURVE",
"211 -55 CURVE SMOOTH",
"94 -55 OFFCURVE",
"181 94 OFFCURVE",
"86 94 CURVE SMOOTH",
"57 94 OFFCURVE",
"40 73 OFFCURVE",
"40 45 CURVE SMOOTH",
"40 -30 OFFCURVE",
"121 -80 OFFCURVE",
"225 -80 CURVE SMOOTH"
);
},
{
closed = 1;
nodes = (
"76 365 LINE",
"94 421 LINE SMOOTH",
"107 460 OFFCURVE",
"131 461 OFFCURVE",
"172 461 CURVE",
"55 530 LINE",
"53 365 LINE"
);
},
{
closed = 1;
nodes = (
"427 510 LINE",
"330 460 LINE",
"149 251 LINE",
"171 233 LINE"
);
},
{
closed = 1;
nodes = (
"330 460 LINE",
"427 510 LINE",
"427 530 LINE",
"55 530 LINE",
"55 461 LINE"
);
}
);
width = 498;
}
);
unicode = 0033;
},
{
glyphname = four;
lastChange = "2024-02-20 01:45:26 +0000";
layers = (
{
background = {
paths = (
{
closed = 1;
nodes = (
"229 334 OFFCURVE",
"368 473 OFFCURVE",
"368 563 CURVE SMOOTH",
"368 594 OFFCURVE",
"350 610 OFFCURVE",
"317 610 CURVE SMOOTH",
"203 610 OFFCURVE",
"291 422 OFFCURVE",
"0 183 CURVE",
"31 172 LINE"
);
},
{
closed = 1;
nodes = (
"456 0 LINE",
"456 23 OFFCURVE",
"451 27 OFFCURVE",
"432 27 CURVE SMOOTH",
"179 27 LINE",
"179 0 LINE"
);
},
{
closed = 1;
nodes = (
"456 181 LINE",
"0 183 LINE",
"6 153 LINE",
"456 151 LINE"
);
},
{
closed = 1;
nodes = (
"366 0 LINE",
"366 386 LINE",
"346 386 LINE",
"336 344 LINE SMOOTH",
"328 312 OFFCURVE",
"318 304 OFFCURVE",
"292 303 CURVE SMOOTH",
"286 303 LINE",
"286 0 LINE"
);
}
);
};
guideLines = (
{
angle = 90;
position = "{369, -104}";
}
);
layerId = "C18F3EFD-FA9C-4751-AD2F-5B966120D1A5";
paths = (
{
closed = 1;
nodes = (
"239 269 OFFCURVE",
"368 408 OFFCURVE",
"368 493 CURVE SMOOTH",
"368 524 OFFCURVE",
"352 540 OFFCURVE",
"323 540 CURVE SMOOTH",
"230 540 OFFCURVE",
"301 357 OFFCURVE",
"10 118 CURVE",
"41 107 LINE"
);
},
{
closed = 1;
nodes = (
"456 -70 LINE",
"456 -47 OFFCURVE",
"451 -43 OFFCURVE",
"432 -43 CURVE SMOOTH",
"181 -43 LINE",
"181 -70 LINE"
);
},
{
closed = 1;
nodes = (
"456 116 LINE",
"10 118 LINE",
"16 88 LINE",
"456 86 LINE"
);
},
{
closed = 1;
nodes = (
"364 -70 LINE",
"364 312 LINE",
"344 312 LINE",
"334 274 LINE SMOOTH",
"326 242 OFFCURVE",
"320 234 OFFCURVE",
"294 233 CURVE SMOOTH",
"288 233 LINE",
"288 -70 LINE"
);
}
);
width = 496;
},
{
associatedMasterId = "C18F3EFD-FA9C-4751-AD2F-5B966120D1A5";
background = {
paths = (
{
closed = 1;
nodes = (
"548 149 LINE",
"548 176 LINE",
"42 178 LINE",
"48 151 LINE"
);
},
{
closed = 1;
nodes = (
"548 0 LINE",
"548 23 OFFCURVE",
"543 27 OFFCURVE",
"524 27 CURVE SMOOTH",
"240 27 LINE",
"240 0 LINE"
);
},
{
closed = 1;
nodes = (
"461 0 LINE",
"461 390 LINE",
"436 390 LINE",
"419 340 OFFCURVE",
"403 321 OFFCURVE",
"327 320 CURVE",
"327 0 LINE"
);
},
{
closed = 1;
nodes = (
"72 170 LINE",
"168 287 OFFCURVE",
"383 447 OFFCURVE",
"383 548 CURVE SMOOTH",
"383 589 OFFCURVE",
"352 613 OFFCURVE",
"306 613 CURVE SMOOTH",
"240 613 OFFCURVE",
"221 569 OFFCURVE",
"204 500 CURVE SMOOTH",
"162 325 OFFCURVE",
"118 270 OFFCURVE",
"42 178 CURVE"
);
}
);
};
layerId = "DF35283F-6186-4205-9B5D-3F23CFC963C2";
name = "Bold Jul 13 15, 00:14";
paths = (
{
closed = 1;
nodes = (
"548 149 LINE",
"548 176 LINE",
"42 178 LINE",
"48 151 LINE"
);
},
{
closed = 1;
nodes = (
"548 0 LINE",
"548 23 OFFCURVE",
"543 27 OFFCURVE",
"524 27 CURVE SMOOTH",
"240 27 LINE",
"240 0 LINE"
);
},
{
closed = 1;
nodes = (
"461 0 LINE",
"461 390 LINE",
"436 390 LINE",
"419 340 OFFCURVE",
"403 321 OFFCURVE",
"327 320 CURVE",
"327 0 LINE"
);
},
{
closed = 1;
nodes = (
"72 170 LINE",
"116 223 OFFCURVE",
"383 487 OFFCURVE",
"383 558 CURVE SMOOTH",
"383 599 OFFCURVE",
"352 613 OFFCURVE",
"306 613 CURVE SMOOTH",
"229 613 OFFCURVE",
"216 559 OFFCURVE",
"202 490 CURVE SMOOTH",
"162 294 OFFCURVE",
"69 211 OFFCURVE",
"42 178 CURVE"
);
}
);
width = 578;
}
);
unicode = 0034;
},
{
glyphname = five;
lastChange = "2024-02-20 01:45:26 +0000";
layers = (
{
background = {
paths = (
{
closed = 1;
nodes = (
"375 -10 OFFCURVE",
"456 92 OFFCURVE",
"456 190 CURVE SMOOTH",
"456 282 OFFCURVE",
"386 371 OFFCURVE",
"249 371 CURVE SMOOTH",
"195 371 OFFCURVE",
"139 353 OFFCURVE",
"96 316 CURVE",
"117 295 LINE",
"151 323 OFFCURVE",
"190 334 OFFCURVE",
"225 334 CURVE SMOOTH",
"321 334 OFFCURVE",
"364 261 OFFCURVE",
"364 183 CURVE SMOOTH",
"364 91 OFFCURVE",
"311 16 OFFCURVE",
"213 16 CURVE SMOOTH",
"84 16 OFFCURVE",
"190 160 OFFCURVE",
"84 160 CURVE SMOOTH",
"50 160 OFFCURVE",
"37 139 OFFCURVE",
"37 111 CURVE SMOOTH",
"37 61 OFFCURVE",
"91 -10 OFFCURVE",
"217 -10 CURVE SMOOTH"
);
},
{
closed = 1;
nodes = (
"117 579 LINE",
"82 579 LINE",
"82 321 LINE",
"117 295 LINE"
);
},
{
closed = 1;
nodes = (
"402 514 OFFCURVE",
"420 540 OFFCURVE",
"420 649 CURVE",
"395 649 LINE",
"382 607 OFFCURVE",
"364 596 OFFCURVE",
"294 596 CURVE SMOOTH",
"249 596 OFFCURVE",
"183 601 OFFCURVE",
"82 605 CURVE",
"82 526 LINE",
"148 517 OFFCURVE",
"204 514 OFFCURVE",
"251 514 CURVE SMOOTH"
);
},
{
closed = 1;
nodes = (
"370 -70 OFFCURVE",
"448 27 OFFCURVE",
"448 122 CURVE SMOOTH",
"448 203 OFFCURVE",
"391 278 OFFCURVE",
"278 278 CURVE SMOOTH",
"240 278 OFFCURVE",
"195 269 OFFCURVE",
"154 251 CURVE",
"176 233 LINE",
"200 243 OFFCURVE",
"226 248 OFFCURVE",
"247 248 CURVE SMOOTH",
"318 248 OFFCURVE",
"365 196 OFFCURVE",
"365 108 CURVE SMOOTH",
"365 31 OFFCURVE",
"334 -45 OFFCURVE",
"216 -45 CURVE SMOOTH",
"99 -45 OFFCURVE",
"186 104 OFFCURVE",
"91 104 CURVE SMOOTH",
"62 104 OFFCURVE",
"45 83 OFFCURVE",
"45 55 CURVE SMOOTH",
"45 -20 OFFCURVE",
"126 -70 OFFCURVE",
"230 -70 CURVE SMOOTH"
);
}
);
};
layerId = "C18F3EFD-FA9C-4751-AD2F-5B966120D1A5";
paths = (
{
closed = 1;
nodes = (
"368 -80 OFFCURVE",
"441 17 OFFCURVE",
"441 115 CURVE SMOOTH",
"441 210 OFFCURVE",
"374 300 OFFCURVE",
"249 300 CURVE SMOOTH",
"193 300 OFFCURVE",
"140 283 OFFCURVE",
"99 247 CURVE",
"119 227 LINE",
"152 254 OFFCURVE",
"189 265 OFFCURVE",
"226 265 CURVE SMOOTH",
"322 265 OFFCURVE",
"358 190 OFFCURVE",
"358 109 CURVE SMOOTH",
"358 16 OFFCURVE",
"313 -55 OFFCURVE",
"215 -55 CURVE SMOOTH",
"98 -55 OFFCURVE",
"187 94 OFFCURVE",
"92 94 CURVE SMOOTH",
"59 94 OFFCURVE",
"45 72 OFFCURVE",
"45 45 CURVE SMOOTH",
"45 -17 OFFCURVE",
"111 -80 OFFCURVE",
"222 -80 CURVE SMOOTH"
);
},
{
closed = 1;
nodes = (
"119 504 LINE",
"86 504 LINE",
"86 252 LINE",
"119 227 LINE"
);
},
{
closed = 1;
nodes = (
"390 447 OFFCURVE",
"407 470 OFFCURVE",
"407 570 CURVE",
"383 570 LINE",
"373 531 OFFCURVE",
"351 522 OFFCURVE",
"267 522 CURVE SMOOTH",
"221 522 OFFCURVE",
"161 526 OFFCURVE",
"86 529 CURVE",
"86 458 LINE",
"149 451 OFFCURVE",
"206 447 OFFCURVE",
"254 447 CURVE SMOOTH"
);
}
);
width = 476;
}
);
unicode = 0035;
},
{
glyphname = six;
lastChange = "2024-02-20 01:45:26 +0000";
layers = (
{
background = {
paths = (
{
closed = 1;
nodes = (
"176 716 OFFCURVE",
"136 783 OFFCURVE",
"136 876 CURVE SMOOTH",
"136 969 OFFCURVE",
"178 1033 OFFCURVE",
"257 1033 CURVE SMOOTH",
"349 1033 OFFCURVE",
"378 969 OFFCURVE",
"378 879 CURVE SMOOTH",
"378 785 OFFCURVE",
"347 716 OFFCURVE",
"258 716 CURVE SMOOTH"
);
},
{
closed = 1;
nodes = (
"142 997 LINE",
"152 1155 OFFCURVE",
"166 1284 OFFCURVE",
"272 1284 CURVE SMOOTH",
"405 1284 OFFCURVE",
"294 1162 OFFCURVE",
"389 1149 CURVE SMOOTH",
"424 1144 OFFCURVE",
"445 1164 OFFCURVE",
"449 1194 CURVE SMOOTH",
"456 1244 OFFCURVE",
"403 1309 OFFCURVE",
"286 1309 CURVE SMOOTH",
"90 1309 OFFCURVE",
"36 1121 OFFCURVE",
"36 960 CURVE SMOOTH",
"36 812 OFFCURVE",
"105 690 OFFCURVE",
"259 690 CURVE SMOOTH",
"363 690 OFFCURVE",
"473 761 OFFCURVE",
"473 881 CURVE SMOOTH",
"473 1000 OFFCURVE",
"375 1065 OFFCURVE",
"274 1065 CURVE SMOOTH",
"218 1065 OFFCURVE",
"162 1044 OFFCURVE",
"119 999 CURVE"
);
},
{
closed = 1;
nodes = (
"366 -10 OFFCURVE",
"461 57 OFFCURVE",
"461 172 CURVE SMOOTH",
"461 283 OFFCURVE",
"368 347 OFFCURVE",
"270 347 CURVE SMOOTH",
"218 347 OFFCURVE",
"157 328 OFFCURVE",
"117 286 CURVE",
"140 284 LINE",
"147 434 OFFCURVE",
"167 555 OFFCURVE",
"275 555 CURVE SMOOTH",
"403 555 OFFCURVE",
"301 426 OFFCURVE",
"393 426 CURVE SMOOTH",
"424 426 OFFCURVE",
"442 447 OFFCURVE",
"442 476 CURVE SMOOTH",
"442 536 OFFCURVE",
"371 580 OFFCURVE",
"290 580 CURVE SMOOTH",
"178 580 OFFCURVE",
"50 499 OFFCURVE",
"50 270 CURVE SMOOTH",
"50 87 OFFCURVE",
"112 -10 OFFCURVE",
"259 -10 CURVE SMOOTH"
);
},
{
closed = 1;
nodes = (
"178 15 OFFCURVE",
"135 76 OFFCURVE",
"135 162 CURVE SMOOTH",
"135 271 OFFCURVE",
"195 318 OFFCURVE",
"259 318 CURVE SMOOTH",
"321 318 OFFCURVE",
"376 275 OFFCURVE",
"376 176 CURVE SMOOTH",
"376 83 OFFCURVE",
"341 15 OFFCURVE",
"257 15 CURVE SMOOTH"
);
}
);
};
layerId = "C18F3EFD-FA9C-4751-AD2F-5B966120D1A5";
paths = (
{
closed = 1;
nodes = (
"366 -10 OFFCURVE",
"461 61 OFFCURVE",
"461 184 CURVE SMOOTH",
"461 307 OFFCURVE",
"368 371 OFFCURVE",
"270 371 CURVE SMOOTH",
"218 371 OFFCURVE",
"157 350 OFFCURVE",
"117 305 CURVE",
"140 303 LINE",
"147 467 OFFCURVE",
"170 584 OFFCURVE",
"280 584 CURVE SMOOTH",
"403 584 OFFCURVE",
"317 456 OFFCURVE",
"405 456 CURVE SMOOTH",
"436 456 OFFCURVE",
"452 477 OFFCURVE",
"452 506 CURVE SMOOTH",
"452 566 OFFCURVE",
"381 610 OFFCURVE",
"290 610 CURVE SMOOTH",
"131 610 OFFCURVE",
"50 469 OFFCURVE",
"50 284 CURVE SMOOTH",
"50 117 OFFCURVE",
"113 -10 OFFCURVE",
"259 -10 CURVE SMOOTH"
);
},
{
closed = 1;
nodes = (
"178 16 OFFCURVE",
"135 80 OFFCURVE",
"135 174 CURVE SMOOTH",
"135 295 OFFCURVE",
"195 342 OFFCURVE",
"259 342 CURVE SMOOTH",
"321 342 OFFCURVE",
"376 299 OFFCURVE",
"376 188 CURVE SMOOTH",
"376 87 OFFCURVE",
"341 16 OFFCURVE",
"257 16 CURVE SMOOTH"
);
}
);
width = 506;
}
);
unicode = 0036;
},
{
glyphname = seven;
lastChange = "2024-02-20 01:45:26 +0000";
layers = (
{
background = {
paths = (
{
closed = 1;
nodes = (
"260 -15 OFFCURVE",
"148 124 OFFCURVE",
"456 580 CURVE",
"429 591 LINE",
"202 256 OFFCURVE",
"94 110 OFFCURVE",
"94 39 CURVE SMOOTH",
"94 4 OFFCURVE",
"113 -15 OFFCURVE",
"152 -15 CURVE SMOOTH"
);
},
{
closed = 1;
nodes = (
"43 421 LINE",
"61 477 LINE SMOOTH",
"74 518 OFFCURVE",
"98 524 OFFCURVE",
"139 524 CURVE",
"22 600 LINE",
"20 421 LINE"
);
},
{
closed = 1;
nodes = (
"386 524 LINE",
"456 580 LINE",
"456 600 LINE",
"22 600 LINE",
"22 524 LINE"
);
}
);
};
layerId = "C18F3EFD-FA9C-4751-AD2F-5B966120D1A5";
paths = (
{
closed = 1;
nodes = (
"249 -80 OFFCURVE",
"148 54 OFFCURVE",
"456 510 CURVE",
"429 521 LINE",
"202 186 OFFCURVE",
"97 43 OFFCURVE",
"97 -32 CURVE SMOOTH",
"97 -61 OFFCURVE",
"114 -80 OFFCURVE",
"146 -80 CURVE SMOOTH"
);
},
{
closed = 1;
nodes = (
"47 354 LINE",
"65 410 LINE SMOOTH",
"78 451 OFFCURVE",
"102 457 OFFCURVE",
"143 457 CURVE",
"27 530 LINE",
"25 354 LINE"
);
},
{
closed = 1;
nodes = (
"386 457 LINE",
"456 510 LINE",
"456 530 LINE",
"27 530 LINE",
"27 457 LINE"
);
}
);
width = 446;
}
);
unicode = 0037;
},
{
glyphname = eight;
lastChange = "2024-02-20 01:45:26 +0000";
layers = (
{
background = {
paths = (
{
closed = 1;
nodes = (
"150 261 OFFCURVE",
"96 196 OFFCURVE",
"96 137 CURVE SMOOTH",
"96 74 OFFCURVE",
"146 18 OFFCURVE",
"255 18 CURVE SMOOTH",
"328 18 OFFCURVE",
"386 52 OFFCURVE",
"383 127 CURVE SMOOTH",
"379 259 OFFCURVE",
"72 272 OFFCURVE",
"65 455 CURVE SMOOTH",
"62 560 OFFCURVE",
"168 612 OFFCURVE",
"271 612 CURVE SMOOTH",
"391 612 OFFCURVE",
"442 544 OFFCURVE",
"442 465 CURVE SMOOTH",
"442 405 OFFCURVE",
"400 342 OFFCURVE",
"302 306 CURVE",
"278 318 LINE",
"369 354 OFFCURVE",
"408 412 OFFCURVE",
"408 465 CURVE SMOOTH",
"408 531 OFFCURVE",
"373 584 OFFCURVE",
"277 584 CURVE SMOOTH",
"217 584 OFFCURVE",
"162 556 OFFCURVE",
"165 485 CURVE SMOOTH",
"169 350 OFFCURVE",
"474 341 OFFCURVE",
"474 148 CURVE SMOOTH",
"474 44 OFFCURVE",
"376 -11 OFFCURVE",
"268 -11 CURVE SMOOTH",
"132 -11 OFFCURVE",
"64 62 OFFCURVE",
"64 139 CURVE SMOOTH",
"64 202 OFFCURVE",
"119 268 OFFCURVE",
"213 299 CURVE",
"244 287 LINE"
);
}
);
};
guideLines = (
{
angle = 90;
position = "{76, 303}";
},
{
angle = 90;
position = "{447, 303}";
}
);
layerId = "C18F3EFD-FA9C-4751-AD2F-5B966120D1A5";
paths = (
{
closed = 1;
nodes = (
"137 276 OFFCURVE",
"94 206 OFFCURVE",
"94 149 CURVE SMOOTH",
"94 63 OFFCURVE",
"170 18 OFFCURVE",
"248 18 CURVE SMOOTH",
"329 18 OFFCURVE",
"395 53 OFFCURVE",
"395 130 CURVE SMOOTH",
"395 282 OFFCURVE",
"81 286 OFFCURVE",
"81 454 CURVE SMOOTH",
"81 554 OFFCURVE",
"166 610 OFFCURVE",
"268 610 CURVE SMOOTH",
"353 610 OFFCURVE",
"439 563 OFFCURVE",
"439 465 CURVE SMOOTH",
"439 402 OFFCURVE",
"399 333 OFFCURVE",
"303 301 CURVE",
"279 320 LINE",
"367 341 OFFCURVE",
"405 406 OFFCURVE",
"405 464 CURVE SMOOTH",
"405 541 OFFCURVE",
"339 582 OFFCURVE",
"276 582 CURVE SMOOTH",
"204 582 OFFCURVE",
"159 548 OFFCURVE",
"159 490 CURVE SMOOTH",
"159 329 OFFCURVE",
"473 331 OFFCURVE",
"473 154 CURVE SMOOTH",
"473 53 OFFCURVE",
"368 -10 OFFCURVE",
"255 -10 CURVE SMOOTH",
"147 -10 OFFCURVE",
"60 45 OFFCURVE",
"60 147 CURVE SMOOTH",
"60 209 OFFCURVE",
"97 281 OFFCURVE",
"204 308 CURVE",
"250 292 LINE"
);
}
);
width = 538;
},
{
associatedMasterId = "C18F3EFD-FA9C-4751-AD2F-5B966120D1A5";
background = {
paths = (
{
closed = 1;
nodes = (
"156 261 OFFCURVE",
"102 196 OFFCURVE",
"102 137 CURVE SMOOTH",
"102 74 OFFCURVE",
"152 18 OFFCURVE",
"261 18 CURVE SMOOTH",
"334 18 OFFCURVE",
"392 52 OFFCURVE",
"389 127 CURVE SMOOTH",
"385 259 OFFCURVE",
"78 272 OFFCURVE",
"71 455 CURVE SMOOTH",
"68 560 OFFCURVE",
"174 612 OFFCURVE",
"277 612 CURVE SMOOTH",
"397 612 OFFCURVE",
"448 544 OFFCURVE",
"448 465 CURVE SMOOTH",
"448 405 OFFCURVE",
"406 342 OFFCURVE",
"308 306 CURVE",
"284 318 LINE",
"375 354 OFFCURVE",
"414 412 OFFCURVE",
"414 465 CURVE SMOOTH",
"414 531 OFFCURVE",
"379 584 OFFCURVE",
"283 584 CURVE SMOOTH",
"223 584 OFFCURVE",
"168 556 OFFCURVE",
"171 485 CURVE SMOOTH",
"175 350 OFFCURVE",
"480 341 OFFCURVE",
"480 148 CURVE SMOOTH",
"480 44 OFFCURVE",
"382 -11 OFFCURVE",
"274 -11 CURVE SMOOTH",
"138 -11 OFFCURVE",
"70 62 OFFCURVE",
"70 139 CURVE SMOOTH",
"70 202 OFFCURVE",
"125 268 OFFCURVE",
"219 299 CURVE",
"250 287 LINE"
);
}
);
};
guideLines = (
{
angle = 90;
position = "{87, 303}";
},
{
angle = 90;
position = "{454, 303}";
}
);
layerId = "DB79F489-3D81-4206-A1EF-625B0C423A44";
name = "Regular Jul 13 15, 18:43";
paths = (
{
closed = 1;
nodes = (
"152 271 OFFCURVE",
"100 205 OFFCURVE",
"100 142 CURVE SMOOTH",
"100 78 OFFCURVE",
"153 18 OFFCURVE",
"261 18 CURVE SMOOTH",
"339 18 OFFCURVE",
"397 52 OFFCURVE",
"394 127 CURVE SMOOTH",
"390 259 OFFCURVE",
"78 272 OFFCURVE",
"71 455 CURVE SMOOTH",
"68 560 OFFCURVE",
"169 612 OFFCURVE",
"277 612 CURVE SMOOTH",
"391 612 OFFCURVE",
"451 543 OFFCURVE",
"451 469 CURVE SMOOTH",
"451 405 OFFCURVE",
"405 336 OFFCURVE",
"308 306 CURVE",
"284 325 LINE",
"374 345 OFFCURVE",
"417 407 OFFCURVE",
"417 466 CURVE SMOOTH",
"417 527 OFFCURVE",
"371 584 OFFCURVE",
"283 584 CURVE SMOOTH",
"218 584 OFFCURVE",
"158 556 OFFCURVE",
"161 485 CURVE SMOOTH",
"165 350 OFFCURVE",
"486 341 OFFCURVE",
"486 148 CURVE SMOOTH",
"486 44 OFFCURVE",
"387 -11 OFFCURVE",
"265 -11 CURVE SMOOTH",
"135 -11 OFFCURVE",
"68 64 OFFCURVE",
"68 142 CURVE SMOOTH",
"68 207 OFFCURVE",
"116 274 OFFCURVE",
"214 299 CURVE",
"256 285 LINE"
);
}
);
width = 551;
}
);
unicode = 0038;
},
{
glyphname = nine;
lastChange = "2024-02-20 01:45:26 +0000";
layers = (
{
background = {
paths = (
{
closed = 1;
nodes = (
"136 522 OFFCURVE",
"41 451 OFFCURVE",
"41 328 CURVE SMOOTH",
"41 205 OFFCURVE",
"134 141 OFFCURVE",
"232 141 CURVE SMOOTH",
"284 141 OFFCURVE",
"345 162 OFFCURVE",
"385 207 CURVE",
"362 209 LINE",
"355 45 OFFCURVE",
"335 -73 OFFCURVE",
"227 -73 CURVE SMOOTH",
"99 -73 OFFCURVE",
"185 56 OFFCURVE",
"97 56 CURVE SMOOTH",
"66 56 OFFCURVE",
"50 35 OFFCURVE",
"50 6 CURVE SMOOTH",
"50 -54 OFFCURVE",
"121 -98 OFFCURVE",
"212 -98 CURVE SMOOTH",
"371 -98 OFFCURVE",
"452 43 OFFCURVE",
"452 228 CURVE SMOOTH",
"452 395 OFFCURVE",
"389 522 OFFCURVE",
"243 522 CURVE SMOOTH"
);
},
{
closed = 1;
nodes = (
"324 497 OFFCURVE",
"367 432 OFFCURVE",
"367 338 CURVE SMOOTH",
"367 217 OFFCURVE",
"307 170 OFFCURVE",
"243 170 CURVE SMOOTH",
"181 170 OFFCURVE",
"126 213 OFFCURVE",
"126 324 CURVE SMOOTH",
"126 425 OFFCURVE",
"161 497 OFFCURVE",
"245 497 CURVE SMOOTH"
);
}
);
};
layerId = "C18F3EFD-FA9C-4751-AD2F-5B966120D1A5";
paths = (
{
closed = 1;
nodes = (
"394 -80 OFFCURVE",
"460 72 OFFCURVE",
"460 245 CURVE SMOOTH",
"460 420 OFFCURVE",
"385 540 OFFCURVE",
"244 540 CURVE SMOOTH",
"128 540 OFFCURVE",
"45 465 OFFCURVE",
"45 356 CURVE SMOOTH",
"45 241 OFFCURVE",
"130 177 OFFCURVE",
"230 177 CURVE SMOOTH",
"288 177 OFFCURVE",
"350 200 OFFCURVE",
"391 248 CURVE",
"370 249 LINE",
"370 85 OFFCURVE",
"340 -54 OFFCURVE",
"224 -54 CURVE SMOOTH",
"104 -54 OFFCURVE",
"192 73 OFFCURVE",
"101 73 CURVE SMOOTH",
"73 73 OFFCURVE",
"54 55 OFFCURVE",
"54 25 CURVE SMOOTH",
"54 -34 OFFCURVE",
"119 -80 OFFCURVE",
"212 -80 CURVE SMOOTH"
);
},
{
closed = 1;
nodes = (
"157 207 OFFCURVE",
"130 277 OFFCURVE",
"130 369 CURVE SMOOTH",
"130 449 OFFCURVE",
"159 514 OFFCURVE",
"244 514 CURVE SMOOTH",
"330 514 OFFCURVE",
"367 444 OFFCURVE",
"367 358 CURVE SMOOTH",
"367 253 OFFCURVE",
"315 207 OFFCURVE",
"242 207 CURVE SMOOTH"
);
}
);
width = 510;
},
{
associatedMasterId = "C18F3EFD-FA9C-4751-AD2F-5B966120D1A5";
background = {
paths = (
{
closed = 1;
nodes = (
"282 235 OFFCURVE",
"326 247 OFFCURVE",
"363 274 CURVE",
"350 130 OFFCURVE",
"331 16 OFFCURVE",
"234 16 CURVE SMOOTH",
"98 16 OFFCURVE",
"217 153 OFFCURVE",
"110 155 CURVE SMOOTH",
"76 155 OFFCURVE",
"57 131 OFFCURVE",
"57 100 CURVE SMOOTH",
"57 47 OFFCURVE",
"119 -10 OFFCURVE",
"234 -10 CURVE SMOOTH",
"424 -10 OFFCURVE",
"475 181 OFFCURVE",
"475 342 CURVE SMOOTH",
"475 489 OFFCURVE",
"406 610 OFFCURVE",
"251 610 CURVE SMOOTH",
"138 610 OFFCURVE",
"39 540 OFFCURVE",
"39 419 CURVE SMOOTH",
"39 302 OFFCURVE",
"136 235 OFFCURVE",
"239 235 CURVE SMOOTH"
);
},
{
closed = 1;
nodes = (
"336 584 OFFCURVE",
"376 520 OFFCURVE",
"376 429 CURVE SMOOTH",
"376 318 OFFCURVE",
"324 267 OFFCURVE",
"254 267 CURVE SMOOTH",
"167 267 OFFCURVE",
"134 328 OFFCURVE",
"134 415 CURVE SMOOTH",
"134 512 OFFCURVE",
"165 584 OFFCURVE",
"253 584 CURVE SMOOTH"
);
}
);
};
layerId = "A5EE381E-FE37-4882-9870-38E31D294823";
name = "Regular Jul 13 15, 16:31";
paths = (
{
closed = 1;
nodes = (
"186 584 OFFCURVE",
"250 584 CURVE SMOOTH",
"316 584 OFFCURVE",
"372 530 OFFCURVE",
"372 424 CURVE SMOOTH",
"372 328 OFFCURVE",
"316 279 OFFCURVE",
"250 279 CURVE SMOOTH",
"186 279 OFFCURVE",
"132 326 OFFCURVE",
"132 425 CURVE SMOOTH",
"132 532 OFFCURVE"
);
},
{
closed = 1;
nodes = (
"367 322 LINE",
"363 164 OFFCURVE",
"350 19 OFFCURVE",
"246 15 CURVE SMOOTH",
"104 10 OFFCURVE",
"216 162 OFFCURVE",
"115 162 CURVE SMOOTH",
"80 162 OFFCURVE",
"61 139 OFFCURVE",
"61 108 CURVE SMOOTH",
"61 42 OFFCURVE",
"142 -11 OFFCURVE",
"236 -11 CURVE SMOOTH",
"358 -11 OFFCURVE",
"488 78 OFFCURVE",
"478 342 CURVE SMOOTH",
"472 537 OFFCURVE",
"364 610 OFFCURVE",
"255 610 CURVE SMOOTH",
"102 610 OFFCURVE",
"31 524 OFFCURVE",
"31 431 CURVE SMOOTH",
"31 336 OFFCURVE",
"96 249 OFFCURVE",
"227 249 CURVE SMOOTH",
"287 249 OFFCURVE",
"349 272 OFFCURVE",
"393 321 CURVE"
);
}
);
width = 517;
}
);
unicode = 0039;
},
{
glyphname = fraction;
lastChange = "2024-02-20 01:45:26 +0000";
layers = (
{
background = {
paths = (
{
closed = 1;
nodes = (
"-93 0 LINE",
"311 600 LINE",
"261 600 LINE",
"-143 0 LINE"
);
}
);
};
layerId = "C18F3EFD-FA9C-4751-AD2F-5B966120D1A5";
paths = (
{
closed = 1;
nodes = (
"-120 -29 LINE",
"317 610 LINE",
"288 630 LINE",
"-150 -10 LINE"
);
}
);
width = 147;
}
);
unicode = 2044;
},
{
glyphname = onehalf;
lastChange = "2024-02-20 01:45:26 +0000";
layers = (
{
components = (
{
alignment = -1;
name = one.numr;
transform = "{1, 0, 0, 1, 30, 289}";
},
{
name = two.numr;
transform = "{1, 0, 0, 1, 415, 0}";
}
);
layerId = "C18F3EFD-FA9C-4751-AD2F-5B966120D1A5";
paths = (
{
closed = 1;
nodes = (
"169 -29 LINE",
"606 610 LINE",
"577 630 LINE",
"139 -10 LINE"
);
}
);
width = 734;
}
);
leftMetricsKey = onequarter;
unicode = 00BD;
},
{
glyphname = onequarter;
lastChange = "2024-02-20 01:45:26 +0000";
layers = (
{
background = {
paths = (
{
closed = 1;
nodes = (
"177 612 LINE",
"40 515 LINE",
"55 493 LINE",
"155 562 LINE",
"155 318 LINE",
"71 311 LINE",
"71 291 LINE",
"304 291 LINE",
"304 307 OFFCURVE",
"299 310 OFFCURVE",
"282 312 CURVE SMOOTH",
"225 318 LINE",
"225 612 LINE"
);
}
);
};
components = (
{
alignment = -1;
name = fraction;
transform = "{1, 0, 0, 1, 289, 0}";
},
{
alignment = -1;
name = one.numr;
transform = "{1, 0, 0, 1, 30, 289}";
},
{
alignment = -1;
name = four.numr;
transform = "{1, 0, 0, 1, 359, 10}";
}
);
layerId = "C18F3EFD-FA9C-4751-AD2F-5B966120D1A5";
width = 724;
}
);
unicode = 00BC;
},
{
glyphname = "a-sinhala";
lastChange = "2024-02-24 15:47:15 +0000";
layers = (
{
layerId = "C18F3EFD-FA9C-4751-AD2F-5B966120D1A5";
paths = (
{
closed = 1;
nodes = (
"375 202 CURVE",
"375 229 LINE",
"384 224 OFFCURVE",
"394 224 OFFCURVE",
"401 224 CURVE SMOOTH",
"429 224 OFFCURVE",
"453 243 OFFCURVE",
"453 280 CURVE SMOOTH",
"453 303 OFFCURVE",
"450 318 OFFCURVE",
"438 337 CURVE SMOOTH",
"427 354 OFFCURVE",
"411 363 OFFCURVE",
"411 389 CURVE SMOOTH",
"411 391 OFFCURVE",
"412 393 OFFCURVE",
"412 395 CURVE",
"428 408 LINE SMOOTH",
"446 412 LINE",
"439 408 OFFCURVE",
"435 405 OFFCURVE",
"435 394 CURVE SMOOTH",
"435 361 OFFCURVE",
"514 345 OFFCURVE",
"514 274 CURVE SMOOTH",
"514 223 OFFCURVE",
"468 195 OFFCURVE",
"418 195 CURVE SMOOTH",
"405 195 OFFCURVE",
"391 197 OFFCURVE"
);
},
{
closed = 1;
nodes = (
"351 -210 LINE",
"351 -38 OFFCURVE",
"351 134 OFFCURVE",
"351 306 CURVE SMOOTH",
"351 342 OFFCURVE",
"359 371 OFFCURVE",
"377 392 CURVE SMOOTH",
"392 409 OFFCURVE",
"409 420 OFFCURVE",
"429 425 CURVE",
"451 414 LINE",
"383 384 OFFCURVE",
"379 344 OFFCURVE",
"379 308 CURVE SMOOTH",
"379 -210 LINE"
);
},
{
closed = 1;
nodes = (
"115 -4 OFFCURVE",
"32 60 OFFCURVE",
"32 156 CURVE SMOOTH",
"32 242 OFFCURVE",
"92 302 OFFCURVE",
"197 302 CURVE SMOOTH",
"309 302 LINE",
"308 345 OFFCURVE",
"280 384 OFFCURVE",
"235 384 CURVE SMOOTH",
"200 384 OFFCURVE",
"192 368 OFFCURVE",
"184 350 CURVE SMOOTH",
"179 339 OFFCURVE",
"168 323 OFFCURVE",
"144 323 CURVE SMOOTH",
"123 323 OFFCURVE",
"104 337 OFFCURVE",
"104 360 CURVE SMOOTH",
"104 400 OFFCURVE",
"150 423 OFFCURVE",
"206 423 CURVE SMOOTH",
"288 423 OFFCURVE",
"339 373 OFFCURVE",
"339 283 CURVE SMOOTH",
"339 282 OFFCURVE",
"339 281 OFFCURVE",
"339 280 CURVE",
"246 280 LINE SMOOTH",
"127 280 OFFCURVE",
"110 195 OFFCURVE",
"110 160 CURVE SMOOTH",
"110 86 OFFCURVE",
"157 22 OFFCURVE",
"290 22 CURVE SMOOTH",
"400 22 OFFCURVE",
"469 49 OFFCURVE",
"511 81 CURVE",
"511 50 LINE",
"461 17 OFFCURVE",
"377 -4 OFFCURVE",
"275 -4 CURVE SMOOTH"
);
}
);
width = 559;
}
);
unicode = 0D85;
},
{
glyphname = "i-sinhala";
lastChange = "2024-02-24 15:47:15 +0000";
layers = (
{
layerId = "C18F3EFD-FA9C-4751-AD2F-5B966120D1A5";
paths = (
{
closed = 1;
nodes = (
"44 161 CURVE SMOOTH",
"44 191 OFFCURVE",
"54 222 OFFCURVE",
"76 242 CURVE SMOOTH",
"92 256 OFFCURVE",
"111 266 OFFCURVE",
"136 271 CURVE",
"169 283 OFFCURVE",
"209 295 OFFCURVE",
"245 295 CURVE SMOOTH",
"257 295 LINE",
"257 297 OFFCURVE",
"257 299 OFFCURVE",
"257 301 CURVE SMOOTH",
"257 348 OFFCURVE",
"223 386 OFFCURVE",
"187 386 CURVE SMOOTH",
"149 386 OFFCURVE",
"139 366 OFFCURVE",
"135 348 CURVE SMOOTH",
"130 328 OFFCURVE",
"120 315 OFFCURVE",
"99 315 CURVE SMOOTH",
"83 315 OFFCURVE",
"62 326 OFFCURVE",
"62 352 CURVE SMOOTH",
"62 394 OFFCURVE",
"104 422 OFFCURVE",
"161 422 CURVE SMOOTH",
"247 422 OFFCURVE",
"288 354 OFFCURVE",
"288 283 CURVE SMOOTH",
"288 280 OFFCURVE",
"288 274 OFFCURVE",
"288 271 CURVE",
"226 271 LINE SMOOTH",
"183 271 OFFCURVE",
"143 259 OFFCURVE",
"119 243 CURVE SMOOTH",
"93 226 OFFCURVE",
"80 201 OFFCURVE",
"80 176 CURVE SMOOTH",
"80 92 OFFCURVE",
"184 69 OFFCURVE",
"272 69 CURVE SMOOTH",
"421 69 OFFCURVE",
"501 145 OFFCURVE",
"501 261 CURVE SMOOTH",
"501 317 OFFCURVE",
"484 367 OFFCURVE",
"460 402 CURVE",
"445 370 OFFCURVE",
"416 351 OFFCURVE",
"374 351 CURVE SMOOTH",
"312 351 OFFCURVE",
"276 405 OFFCURVE",
"276 469 CURVE SMOOTH",
"276 518 OFFCURVE",
"291 553 OFFCURVE",
"317 583 CURVE",
"377 551 OFFCURVE",
"446 481 OFFCURVE",
"481 420 CURVE SMOOTH",
"519 355 OFFCURVE",
"532 307 OFFCURVE",
"532 239 CURVE SMOOTH",
"532 114 OFFCURVE",
"449 0 OFFCURVE",
"270 0 CURVE SMOOTH",
"152 0 OFFCURVE",
"44 45 OFFCURVE"
);
},
{
closed = 1;
nodes = (
"16 264 CURVE",
"16 295 LINE",
"255 295 LINE",
"284 271 LINE",
"126 271 LINE SMOOTH",
"57 270 OFFCURVE",
"32 267 OFFCURVE"
);
},
{
closed = 1;
nodes = (
"306 473 CURVE SMOOTH",
"306 425 OFFCURVE",
"325 386 OFFCURVE",
"381 386 CURVE SMOOTH",
"404 386 OFFCURVE",
"431 397 OFFCURVE",
"441 430 CURVE",
"412 475 OFFCURVE",
"363 520 OFFCURVE",
"326 547 CURVE",
"314 529 OFFCURVE",
"306 507 OFFCURVE"
);
}
);
width = 581;
}
);
unicode = 0D89;
},
{
glyphname = "ii-sinhala";
lastChange = "2024-02-24 15:47:16 +0000";
layers = (
{
layerId = "C18F3EFD-FA9C-4751-AD2F-5B966120D1A5";
paths = (
{
closed = 1;
nodes = (
"400 457 CURVE SMOOTH",
"400 436 OFFCURVE",
"417 420 OFFCURVE",
"438 420 CURVE SMOOTH",
"459 420 OFFCURVE",
"475 436 OFFCURVE",
"475 457 CURVE SMOOTH",
"475 478 OFFCURVE",
"459 494 OFFCURVE",
"438 494 CURVE SMOOTH",
"417 494 OFFCURVE",
"400 478 OFFCURVE"
);
},
{
closed = 1;
nodes = (
"374 457 CURVE SMOOTH",
"374 492 OFFCURVE",
"403 520 OFFCURVE",
"438 520 CURVE SMOOTH",
"473 520 OFFCURVE",
"500 492 OFFCURVE",
"500 457 CURVE SMOOTH",
"500 422 OFFCURVE",
"473 395 OFFCURVE",
"438 395 CURVE SMOOTH",
"403 395 OFFCURVE",
"374 422 OFFCURVE"
);
},
{
closed = 1;
nodes = (
"142 525 CURVE SMOOTH",
"142 504 OFFCURVE",
"158 488 OFFCURVE",
"179 488 CURVE SMOOTH",
"200 488 OFFCURVE",
"216 504 OFFCURVE",
"216 525 CURVE SMOOTH",
"216 546 OFFCURVE",
"200 562 OFFCURVE",
"179 562 CURVE SMOOTH",
"158 562 OFFCURVE",
"142 546 OFFCURVE"
);
},
{
closed = 1;
nodes = (
"115 525 CURVE SMOOTH",
"115 560 OFFCURVE",
"144 588 OFFCURVE",
"179 588 CURVE SMOOTH",
"214 588 OFFCURVE",
"241 560 OFFCURVE",
"241 525 CURVE SMOOTH",
"241 490 OFFCURVE",
"214 463 OFFCURVE",
"179 463 CURVE SMOOTH",
"144 463 OFFCURVE",
"115 490 OFFCURVE"
);
},
{
closed = 1;
nodes = (
"30 208 CURVE SMOOTH",
"30 315 OFFCURVE",
"93 371 OFFCURVE",
"166 412 CURVE SMOOTH",
"218 439 OFFCURVE",
"244 454 OFFCURVE",
"301 505 CURVE SMOOTH",
"347 546 OFFCURVE",
"365 608 OFFCURVE",
"399 608 CURVE SMOOTH",
"415 608 OFFCURVE",
"422 602 OFFCURVE",
"422 591 CURVE SMOOTH",
"422 571 OFFCURVE",
"400 543 OFFCURVE",
"352 503 CURVE SMOOTH",
"320 477 OFFCURVE",
"283 450 OFFCURVE",
"241 426 CURVE",
"246 427 OFFCURVE",
"247 427 OFFCURVE",
"256 427 CURVE SMOOTH",
"325 427 OFFCURVE",
"379 402 OFFCURVE",
"420 357 CURVE SMOOTH",
"455 318 OFFCURVE",
"471 275 OFFCURVE",
"471 220 CURVE SMOOTH",
"471 100 OFFCURVE",
"375 0 OFFCURVE",
"242 0 CURVE SMOOTH",
"121 0 OFFCURVE",
"30 87 OFFCURVE"
);
},
{
closed = 1;
nodes = (
"64 231 CURVE SMOOTH",
"64 140 OFFCURVE",
"129 71 OFFCURVE",
"234 71 CURVE SMOOTH",
"337 71 OFFCURVE",
"420 145 OFFCURVE",
"420 248 CURVE SMOOTH",
"420 348 OFFCURVE",
"348 404 OFFCURVE",
"258 404 CURVE SMOOTH",
"163 404 OFFCURVE",
"64 331 OFFCURVE"
);
}
);
width = 515;
}
);
unicode = 0D8A;
},
{
glyphname = "u-sinhala";
lastChange = "2024-02-24 15:47:15 +0000";
layers = (
{
layerId = "C18F3EFD-FA9C-4751-AD2F-5B966120D1A5";
paths = (
{
closed = 1;
nodes = (
"111 53 OFFCURVE",
"32 114 OFFCURVE",
"32 216 CURVE SMOOTH",
"32 349 OFFCURVE",
"144 422 OFFCURVE",
"277 422 CURVE SMOOTH",
"425 422 OFFCURVE",
"531 344 OFFCURVE",
"531 193 CURVE SMOOTH",
"531 89 OFFCURVE",
"462 10 OFFCURVE",
"375 -6 CURVE",
"407 -12 OFFCURVE",
"429 -35 OFFCURVE",
"429 -73 CURVE SMOOTH",
"429 -132 OFFCURVE",
"355 -156 OFFCURVE",
"291 -156 CURVE SMOOTH",
"230 -156 OFFCURVE",
"169 -136 OFFCURVE",
"169 -74 CURVE SMOOTH",
"169 -50 OFFCURVE",
"185 -37 OFFCURVE",
"202 -37 CURVE SMOOTH",
"217 -37 OFFCURVE",
"229 -46 OFFCURVE",
"229 -63 CURVE SMOOTH",
"229 -69 OFFCURVE",
"226 -80 OFFCURVE",
"226 -92 CURVE SMOOTH",
"226 -112 OFFCURVE",
"236 -134 OFFCURVE",
"293 -134 CURVE SMOOTH",
"331 -134 OFFCURVE",
"366 -118 OFFCURVE",
"366 -81 CURVE SMOOTH",
"366 -39 OFFCURVE",
"326 -15 OFFCURVE",
"261 -15 CURVE SMOOTH",
"252 -15 OFFCURVE",
"253 -15 OFFCURVE",
"243 -16 CURVE",
"243 12 LINE",
"255 13 OFFCURVE",
"256 13 OFFCURVE",
"267 13 CURVE SMOOTH",
"284 13 OFFCURVE",
"298 11 OFFCURVE",
"316 11 CURVE SMOOTH",
"413 11 OFFCURVE",
"494 71 OFFCURVE",
"494 175 CURVE SMOOTH",
"494 285 OFFCURVE",
"395 349 OFFCURVE",
"278 349 CURVE SMOOTH",
"171 349 OFFCURVE",
"71 302 OFFCURVE",
"71 199 CURVE SMOOTH",
"71 130 OFFCURVE",
"134 79 OFFCURVE",
"218 79 CURVE SMOOTH",
"270 79 OFFCURVE",
"309 94 OFFCURVE",
"325 117 CURVE",
"310 105 OFFCURVE",
"292 103 OFFCURVE",
"278 103 CURVE SMOOTH",
"238 103 OFFCURVE",
"203 136 OFFCURVE",
"203 175 CURVE SMOOTH",
"203 220 OFFCURVE",
"236 254 OFFCURVE",
"279 254 CURVE SMOOTH",
"335 254 OFFCURVE",
"367 217 OFFCURVE",
"367 166 CURVE SMOOTH",
"367 88 OFFCURVE",
"303 53 OFFCURVE",
"215 53 CURVE SMOOTH"
);
},
{
closed = 1;
nodes = (
"254 227 OFFCURVE",
"231 204 OFFCURVE",
"231 178 CURVE SMOOTH",
"231 151 OFFCURVE",
"255 129 OFFCURVE",
"281 129 CURVE SMOOTH",
"308 129 OFFCURVE",
"331 152 OFFCURVE",
"331 178 CURVE SMOOTH",
"331 205 OFFCURVE",
"307 227 OFFCURVE",
"281 227 CURVE SMOOTH"
);
}
);
width = 579;
}
);
unicode = 0D8B;
},
{
glyphname = "e-sinhala";
lastChange = "2024-02-24 15:47:15 +0000";
layers = (
{
layerId = "C18F3EFD-FA9C-4751-AD2F-5B966120D1A5";
paths = (
{
closed = 1;
nodes = (
"31 97 CURVE SMOOTH",
"31 205 OFFCURVE",
"118 289 OFFCURVE",
"258 289 CURVE SMOOTH",
"495 289 LINE",
"492 338 OFFCURVE",
"450 381 OFFCURVE",
"398 381 CURVE SMOOTH",
"371 381 OFFCURVE",
"353 368 OFFCURVE",
"339 346 CURVE SMOOTH",
"331 334 OFFCURVE",
"322 320 OFFCURVE",
"298 320 CURVE SMOOTH",
"277 320 OFFCURVE",
"261 336 OFFCURVE",
"261 356 CURVE SMOOTH",
"261 400 OFFCURVE",
"305 422 OFFCURVE",
"367 422 CURVE SMOOTH",
"458 422 OFFCURVE",
"526 362 OFFCURVE",
"526 270 CURVE SMOOTH",
"526 268 OFFCURVE",
"526 267 OFFCURVE",
"526 265 CURVE",
"291 265 LINE SMOOTH",
"170 265 OFFCURVE",
"106 199 OFFCURVE",
"106 107 CURVE SMOOTH",
"106 -30 OFFCURVE",
"211 -125 OFFCURVE",
"333 -125 CURVE SMOOTH",
"457 -125 OFFCURVE",
"561 -39 OFFCURVE",
"561 67 CURVE",
"589 67 LINE",
"589 -63 OFFCURVE",
"468 -157 OFFCURVE",
"320 -157 CURVE SMOOTH",
"173 -157 OFFCURVE",
"31 -60 OFFCURVE"
);
}
);
width = 635;
}
);
unicode = 0D91;
},
{
glyphname = "ee-sinhala";
lastChange = "2024-02-24 15:47:16 +0000";
layers = (
{
layerId = "C18F3EFD-FA9C-4751-AD2F-5B966120D1A5";
paths = (
{
closed = 1;
nodes = (
"430 434 LINE",
"430 678 LINE",
"484 633 OFFCURVE",
"582 636 OFFCURVE",
"582 542 CURVE SMOOTH",
"582 501 OFFCURVE",
"550 473 OFFCURVE",
"502 473 CURVE SMOOTH",
"487 473 OFFCURVE",
"473 475 OFFCURVE",
"458 480 CURVE",
"458 417 LINE"
);
},
{
closed = 1;
nodes = (
"458 503 LINE",
"466 499 OFFCURVE",
"476 497 OFFCURVE",
"489 497 CURVE SMOOTH",
"532 497 OFFCURVE",
"542 521 OFFCURVE",
"542 544 CURVE SMOOTH",
"542 584 OFFCURVE",
"514 604 OFFCURVE",
"458 633 CURVE"
);
},
{
closed = 1;
nodes = (
"44 161 CURVE SMOOTH",
"44 191 OFFCURVE",
"54 222 OFFCURVE",
"76 242 CURVE SMOOTH",
"92 256 OFFCURVE",
"111 266 OFFCURVE",
"136 271 CURVE",
"169 283 OFFCURVE",
"203 295 OFFCURVE",
"239 295 CURVE SMOOTH",
"251 295 LINE",
"251 297 OFFCURVE",
"251 299 OFFCURVE",
"251 301 CURVE SMOOTH",
"251 339 OFFCURVE",
"225 380 OFFCURVE",
"189 380 CURVE SMOOTH",
"151 380 OFFCURVE",
"141 357 OFFCURVE",
"135 341 CURVE SMOOTH",
"128 322 OFFCURVE",
"119 310 OFFCURVE",
"98 310 CURVE SMOOTH",
"82 310 OFFCURVE",
"62 320 OFFCURVE",
"62 345 CURVE SMOOTH",
"62 391 OFFCURVE",
"111 416 OFFCURVE",
"165 416 CURVE SMOOTH",
"251 416 OFFCURVE",
"282 344 OFFCURVE",
"282 283 CURVE SMOOTH",
"282 280 OFFCURVE",
"282 274 OFFCURVE",
"282 271 CURVE",
"226 271 LINE SMOOTH",
"183 271 OFFCURVE",
"143 259 OFFCURVE",
"119 243 CURVE SMOOTH",
"93 226 OFFCURVE",
"80 201 OFFCURVE",
"80 176 CURVE SMOOTH",
"80 92 OFFCURVE",
"184 69 OFFCURVE",
"272 69 CURVE SMOOTH",
"421 69 OFFCURVE",
"501 149 OFFCURVE",
"501 255 CURVE SMOOTH",
"501 311 OFFCURVE",
"484 350 OFFCURVE",
"460 385 CURVE",
"445 353 OFFCURVE",
"416 333 OFFCURVE",
"374 333 CURVE SMOOTH",
"312 333 OFFCURVE",
"276 387 OFFCURVE",
"276 451 CURVE SMOOTH",
"276 500 OFFCURVE",
"291 535 OFFCURVE",
"317 565 CURVE",
"377 533 OFFCURVE",
"443 461 OFFCURVE",
"481 402 CURVE SMOOTH",
"516 347 OFFCURVE",
"532 301 OFFCURVE",
"532 233 CURVE SMOOTH",
"532 116 OFFCURVE",
"449 0 OFFCURVE",
"270 0 CURVE SMOOTH",
"152 0 OFFCURVE",
"44 45 OFFCURVE"
);
},
{
closed = 1;
nodes = (
"16 264 CURVE",
"16 295 LINE",
"249 295 LINE",
"278 271 LINE",
"126 271 LINE SMOOTH",
"57 270 OFFCURVE",
"32 267 OFFCURVE"
);
},
{
closed = 1;
nodes = (
"306 455 CURVE SMOOTH",
"306 407 OFFCURVE",
"325 368 OFFCURVE",
"381 368 CURVE SMOOTH",
"404 368 OFFCURVE",
"431 379 OFFCURVE",
"441 412 CURVE",
"412 457 OFFCURVE",
"363 502 OFFCURVE",
"326 529 CURVE",
"314 511 OFFCURVE",
"306 489 OFFCURVE"
);
}
);
width = 581;
}
);
unicode = 0D92;
},
{
glyphname = "ai-sinhala";
lastChange = "2024-02-24 15:47:16 +0000";
layers = (
{
components = (
{
name = "i-sinhala";
transform = "{1, 0, 0, 1, 618, 0}";
}
);
layerId = "C18F3EFD-FA9C-4751-AD2F-5B966120D1A5";
paths = (
{
closed = 1;
nodes = (
"230 239 CURVE SMOOTH",
"230 214 OFFCURVE",
"255 193 OFFCURVE",
"284 193 CURVE SMOOTH",
"313 193 OFFCURVE",
"338 214 OFFCURVE",
"338 239 CURVE SMOOTH",
"338 264 OFFCURVE",
"313 285 OFFCURVE",
"284 285 CURVE SMOOTH",
"255 285 OFFCURVE",
"230 264 OFFCURVE"
);
},
{
closed = 1;
nodes = (
"32 207 CURVE SMOOTH",
"32 339 OFFCURVE",
"157 422 OFFCURVE",
"294 422 CURVE SMOOTH",
"439 422 OFFCURVE",
"558 332 OFFCURVE",
"570 201 CURVE",
"542 201 LINE",
"524 316 OFFCURVE",
"420 395 OFFCURVE",
"294 395 CURVE SMOOTH",
"183 395 OFFCURVE",
"74 332 OFFCURVE",
"74 232 CURVE SMOOTH",
"74 138 OFFCURVE",
"159 69 OFFCURVE",
"263 69 CURVE",
"350 69 OFFCURVE",
"444 103 OFFCURVE",
"444 185 CURVE SMOOTH",
"444 239 OFFCURVE",
"400 271 OFFCURVE",
"352 280 CURVE",
"365 266 OFFCURVE",
"370 250 OFFCURVE",
"370 234 CURVE SMOOTH",
"370 187 OFFCURVE",
"327 162 OFFCURVE",
"285 162 CURVE SMOOTH",
"240 162 OFFCURVE",
"198 193 OFFCURVE",
"198 236 CURVE SMOOTH",
"198 283 OFFCURVE",
"242 314 OFFCURVE",
"297 314 CURVE SMOOTH",
"397 314 OFFCURVE",
"479 262 OFFCURVE",
"479 164 CURVE SMOOTH",
"479 66 OFFCURVE",
"403 0 OFFCURVE",
"263 0 CURVE SMOOTH",
"131 0 OFFCURVE",
"32 82 OFFCURVE"
);
}
);
width = 1199;
}
);
unicode = 0D93;
},
{
glyphname = "o-sinhala";
lastChange = "2024-02-24 15:47:15 +0000";
layers = (
{
layerId = "C18F3EFD-FA9C-4751-AD2F-5B966120D1A5";
paths = (
{
closed = 1;
nodes = (
"268 354 CURVE SMOOTH",
"268 329 OFFCURVE",
"288 309 OFFCURVE",
"313 309 CURVE SMOOTH",
"338 309 OFFCURVE",
"359 329 OFFCURVE",
"359 354 CURVE SMOOTH",
"359 379 OFFCURVE",
"338 400 OFFCURVE",
"313 400 CURVE SMOOTH",
"288 400 OFFCURVE",
"268 379 OFFCURVE"
);
},
{
closed = 1;
nodes = (
"29 219 CURVE SMOOTH",
"29 324 OFFCURVE",
"73 422 OFFCURVE",
"145 422 CURVE SMOOTH",
"164 422 OFFCURVE",
"169 418 OFFCURVE",
"176 413 CURVE SMOOTH",
"187 405 OFFCURVE",
"194 391 OFFCURVE",
"194 362 CURVE SMOOTH",
"194 348 OFFCURVE",
"194 332 OFFCURVE",
"194 329 CURVE SMOOTH",
"194 277 OFFCURVE",
"234 247 OFFCURVE",
"288 247 CURVE SMOOTH",
"340 247 OFFCURVE",
"380 274 OFFCURVE",
"380 318 CURVE SMOOTH",
"380 319 OFFCURVE",
"380 321 OFFCURVE",
"379 323 CURVE",
"373 310 OFFCURVE",
"351 282 OFFCURVE",
"311 282 CURVE SMOOTH",
"265 282 OFFCURVE",
"239 317 OFFCURVE",
"239 352 CURVE SMOOTH",
"239 393 OFFCURVE",
"270 424 OFFCURVE",
"314 424 CURVE SMOOTH",
"372 424 OFFCURVE",
"408 380 OFFCURVE",
"408 322 CURVE SMOOTH",
"408 261 OFFCURVE",
"358 219 OFFCURVE",
"289 219 CURVE SMOOTH",
"220 219 OFFCURVE",
"168 261 OFFCURVE",
"168 331 CURVE SMOOTH",
"168 336 OFFCURVE",
"168 354 OFFCURVE",
"168 363 CURVE SMOOTH",
"168 383 OFFCURVE",
"164 396 OFFCURVE",
"142 396 CURVE SMOOTH",
"92 396 OFFCURVE",
"60 319 OFFCURVE",
"60 248 CURVE SMOOTH",
"60 146 OFFCURVE",
"113 68 OFFCURVE",
"194 68 CURVE SMOOTH",
"266 68 OFFCURVE",
"286 106 OFFCURVE",
"286 138 CURVE SMOOTH",
"286 163 LINE",
"310 163 LINE",
"310 137 LINE SMOOTH",
"310 94 OFFCURVE",
"347 69 OFFCURVE",
"400 69 CURVE SMOOTH",
"494 69 OFFCURVE",
"541 177 OFFCURVE",
"541 279 CURVE SMOOTH",
"541 423 OFFCURVE",
"447 542 OFFCURVE",
"291 542 CURVE SMOOTH",
"194 542 OFFCURVE",
"136 513 OFFCURVE",
"90 455 CURVE",
"61 455 LINE",
"105 518 OFFCURVE",
"171 564 OFFCURVE",
"295 564 CURVE SMOOTH",
"475 564 OFFCURVE",
"576 421 OFFCURVE",
"576 248 CURVE SMOOTH",
"576 124 OFFCURVE",
"530 0 OFFCURVE",
"396 0 CURVE SMOOTH",
"356 0 OFFCURVE",
"314 16 OFFCURVE",
"298 54 CURVE",
"277 15 OFFCURVE",
"240 0 OFFCURVE",
"191 0 CURVE SMOOTH",
"76 0 OFFCURVE",
"29 124 OFFCURVE"
);
}
);
width = 621;
}
);
unicode = 0D94;
},
{
glyphname = "oo-sinhala";
lastChange = "2024-02-24 15:47:16 +0000";
layers = (
{
layerId = "C18F3EFD-FA9C-4751-AD2F-5B966120D1A5";
paths = (
{
closed = 1;
nodes = (
"136 530 CURVE SMOOTH",
"136 518 OFFCURVE",
"159 514 OFFCURVE",
"159 503 CURVE SMOOTH",
"159 501 OFFCURVE",
"158 498 OFFCURVE",
"156 496 CURVE",
"188 502 OFFCURVE",
"227 507 OFFCURVE",
"272 507 CURVE SMOOTH",
"377 507 OFFCURVE",
"461 478 OFFCURVE",
"518 412 CURVE",
"486 524 OFFCURVE",
"390 576 OFFCURVE",
"277 576 CURVE SMOOTH",
"207 576 OFFCURVE",
"136 553 OFFCURVE"
);
},
{
closed = 1;
nodes = (
"41 432 CURVE",
"41 462 LINE",
"72 474 OFFCURVE",
"123 487 OFFCURVE",
"123 496 CURVE SMOOTH",
"123 508 OFFCURVE",
"96 512 OFFCURVE",
"96 533 CURVE SMOOTH",
"96 569 OFFCURVE",
"159 614 OFFCURVE",
"271 614 CURVE SMOOTH",
"474 614 OFFCURVE",
"547 479 OFFCURVE",
"559 348 CURVE",
"570 322 OFFCURVE",
"576 285 OFFCURVE",
"576 239 CURVE",
"539 244 LINE",
"540 251 OFFCURVE",
"540 259 OFFCURVE",
"540 266 CURVE SMOOTH",
"540 401 OFFCURVE",
"432 482 OFFCURVE",
"275 482 CURVE SMOOTH",
"201 482 OFFCURVE",
"120 469 OFFCURVE"
);
},
{
closed = 1;
nodes = (
"268 354 CURVE SMOOTH",
"268 329 OFFCURVE",
"288 309 OFFCURVE",
"313 309 CURVE SMOOTH",
"338 309 OFFCURVE",
"359 329 OFFCURVE",
"359 354 CURVE SMOOTH",
"359 379 OFFCURVE",
"338 400 OFFCURVE",
"313 400 CURVE SMOOTH",
"288 400 OFFCURVE",
"268 379 OFFCURVE"
);
},
{
closed = 1;
nodes = (
"29 219 CURVE SMOOTH",
"29 324 OFFCURVE",
"73 422 OFFCURVE",
"145 422 CURVE SMOOTH",
"164 422 OFFCURVE",
"169 418 OFFCURVE",
"176 413 CURVE SMOOTH",
"187 405 OFFCURVE",
"194 391 OFFCURVE",
"194 362 CURVE SMOOTH",
"194 348 OFFCURVE",
"194 332 OFFCURVE",
"194 329 CURVE SMOOTH",
"194 277 OFFCURVE",
"234 247 OFFCURVE",
"288 247 CURVE SMOOTH",
"340 247 OFFCURVE",
"380 274 OFFCURVE",
"380 318 CURVE SMOOTH",
"380 319 OFFCURVE",
"380 321 OFFCURVE",
"379 323 CURVE",
"373 310 OFFCURVE",
"351 282 OFFCURVE",
"311 282 CURVE SMOOTH",
"265 282 OFFCURVE",
"239 317 OFFCURVE",
"239 352 CURVE SMOOTH",
"239 393 OFFCURVE",
"270 424 OFFCURVE",
"314 424 CURVE SMOOTH",
"372 424 OFFCURVE",
"408 380 OFFCURVE",
"408 322 CURVE SMOOTH",
"408 261 OFFCURVE",
"358 219 OFFCURVE",
"289 219 CURVE SMOOTH",
"220 219 OFFCURVE",
"168 261 OFFCURVE",
"168 331 CURVE SMOOTH",
"168 336 OFFCURVE",
"168 354 OFFCURVE",
"168 363 CURVE SMOOTH",
"168 383 OFFCURVE",
"164 396 OFFCURVE",
"142 396 CURVE SMOOTH",
"92 396 OFFCURVE",
"60 319 OFFCURVE",
"60 248 CURVE SMOOTH",
"60 146 OFFCURVE",
"113 68 OFFCURVE",
"194 68 CURVE SMOOTH",
"266 68 OFFCURVE",
"286 106 OFFCURVE",
"286 138 CURVE SMOOTH",
"286 163 LINE",
"310 163 LINE",
"310 137 LINE SMOOTH",
"310 94 OFFCURVE",
"347 69 OFFCURVE",
"400 69 CURVE SMOOTH",
"494 69 OFFCURVE",
"541 177 OFFCURVE",
"541 279 CURVE",
"557 267 OFFCURVE",
"562 258 OFFCURVE",
"576 248 CURVE",
"576 124 OFFCURVE",
"530 0 OFFCURVE",
"396 0 CURVE SMOOTH",
"356 0 OFFCURVE",
"314 16 OFFCURVE",
"298 54 CURVE",
"277 15 OFFCURVE",
"240 0 OFFCURVE",
"191 0 CURVE SMOOTH",
"76 0 OFFCURVE",
"29 124 OFFCURVE"
);
}
);
width = 621;
}
);
unicode = 0D95;
},
{
glyphname = "ka-sinhala";
lastChange = "2024-02-24 15:47:16 +0000";
layers = (
{
anchors = (
{
name = _cursive;
position = "{67, -1}";
}
);
layerId = "C18F3EFD-FA9C-4751-AD2F-5B966120D1A5";
paths = (
{
closed = 1;
nodes = (
"21 21 LINE",
"29 88 OFFCURVE",
"72 180 OFFCURVE",
"106 227 CURVE SMOOTH",
"131 262 OFFCURVE",
"146 275 OFFCURVE",
"164 294 CURVE",
"176 307 OFFCURVE",
"188 323 OFFCURVE",
"188 344 CURVE SMOOTH",
"188 365 OFFCURVE",
"178 383 OFFCURVE",
"154 383 CURVE SMOOTH",
"140 383 OFFCURVE",
"119 375 OFFCURVE",
"113 354 CURVE SMOOTH",
"106 332 OFFCURVE",
"111 332 OFFCURVE",
"104 315 CURVE SMOOTH",
"97 297 OFFCURVE",
"82 290 OFFCURVE",
"67 290 CURVE SMOOTH",
"34 290 OFFCURVE",
"28 320 OFFCURVE",
"28 332 CURVE SMOOTH",
"28 385 OFFCURVE",
"77 423 OFFCURVE",
"133 423 CURVE SMOOTH",
"182 423 OFFCURVE",
"215 393 OFFCURVE",
"215 348 CURVE SMOOTH",
"215 343 OFFCURVE",
"215 338 OFFCURVE",
"214 333 CURVE",
"275 392 OFFCURVE",
"357 424 OFFCURVE",
"442 424 CURVE SMOOTH",
"588 424 OFFCURVE",
"685 321 OFFCURVE",
"685 188 CURVE SMOOTH",
"685 108 OFFCURVE",
"644 -1 OFFCURVE",
"543 -1 CURVE SMOOTH",
"527 -1 OFFCURVE",
"506 2 OFFCURVE",
"494 11 CURVE",
"494 37 LINE",
"504 30 OFFCURVE",
"521 25 OFFCURVE",
"544 25 CURVE SMOOTH",
"593 25 OFFCURVE",
"634 78 OFFCURVE",
"634 149 CURVE SMOOTH",
"634 278 OFFCURVE",
"522 359 OFFCURVE",
"391 359 CURVE SMOOTH",
"320 359 OFFCURVE",
"260 340 OFFCURVE",
"214 301 CURVE",
"237 307 OFFCURVE",
"269 309 OFFCURVE",
"295 309 CURVE SMOOTH",
"412 309 OFFCURVE",
"503 245 OFFCURVE",
"503 123 CURVE SMOOTH",
"503 66 OFFCURVE",
"471 -1 OFFCURVE",
"388 -1 CURVE SMOOTH",
"343 -1 OFFCURVE",
"310 20 OFFCURVE",
"289 62 CURVE",
"272 22 OFFCURVE",
"240 -1 OFFCURVE",
"199 -1 CURVE SMOOTH",
"114 -1 OFFCURVE",
"117 71 OFFCURVE",
"85 71 CURVE SMOOTH",
"64 71 OFFCURVE",
"49 50 OFFCURVE",
"46 11 CURVE"
);
},
{
closed = 1;
nodes = (
"98 167 OFFCURVE",
"79 129 OFFCURVE",
"68 93 CURVE",
"74 96 OFFCURVE",
"80 98 OFFCURVE",
"87 98 CURVE SMOOTH",
"115 98 OFFCURVE",
"138 69 OFFCURVE",
"194 69 CURVE SMOOTH",
"244 69 OFFCURVE",
"274 99 OFFCURVE",
"274 158 CURVE SMOOTH",
"274 160 OFFCURVE",
"274 157 OFFCURVE",
"274 159 CURVE",
"300 159 LINE",
"300 158 OFFCURVE",
"300 159 OFFCURVE",
"300 158 CURVE SMOOTH",
"300 95 OFFCURVE",
"326 69 OFFCURVE",
"383 69 CURVE SMOOTH",
"444 69 OFFCURVE",
"463 120 OFFCURVE",
"463 155 CURVE SMOOTH",
"463 236 OFFCURVE",
"392 284 OFFCURVE",
"291 284 CURVE SMOOTH",
"235 284 OFFCURVE",
"199 276 OFFCURVE",
"178 267 CURVE",
"161 252 OFFCURVE",
"142 229 OFFCURVE",
"126 207 CURVE SMOOTH"
);
}
);
width = 728;
}
);
unicode = 0D9A;
},
{
glyphname = "kha-sinhala";
lastChange = "2024-02-24 15:47:16 +0000";
layers = (
{
anchors = (
{
name = _cursive;
position = "{38, 0}";
}
);
layerId = "C18F3EFD-FA9C-4751-AD2F-5B966120D1A5";
paths = (
{
closed = 1;
nodes = (
"91 70 CURVE SMOOTH",
"91 47 OFFCURVE",
"110 28 OFFCURVE",
"133 28 CURVE SMOOTH",
"156 28 OFFCURVE",
"175 47 OFFCURVE",
"175 70 CURVE SMOOTH",
"175 93 OFFCURVE",
"156 112 OFFCURVE",
"133 112 CURVE SMOOTH",
"110 112 OFFCURVE",
"91 93 OFFCURVE"
);
},
{
closed = 1;
nodes = (
"31 179 CURVE SMOOTH",
"31 315 OFFCURVE",
"121 387 OFFCURVE",
"234 387 CURVE SMOOTH",
"325 387 OFFCURVE",
"403 335 OFFCURVE",
"403 252 CURVE SMOOTH",
"403 196 OFFCURVE",
"376 149 OFFCURVE",
"338 112 CURVE",
"341 113 OFFCURVE",
"344 113 OFFCURVE",
"347 113 CURVE SMOOTH",
"375 113 OFFCURVE",
"381 65 OFFCURVE",
"424 65 CURVE SMOOTH",
"488 65 OFFCURVE",
"533 193 OFFCURVE",
"533 294 CURVE SMOOTH",
"533 456 OFFCURVE",
"434 562 OFFCURVE",
"287 562 CURVE SMOOTH",
"200 562 OFFCURVE",
"136 530 OFFCURVE",
"95 459 CURVE",
"62 459 LINE",
"106 540 OFFCURVE",
"182 587 OFFCURVE",
"291 587 CURVE SMOOTH",
"453 587 OFFCURVE",
"570 462 OFFCURVE",
"570 279 CURVE SMOOTH",
"570 146 OFFCURVE",
"511 0 OFFCURVE",
"406 0 CURVE SMOOTH",
"344 0 OFFCURVE",
"339 53 OFFCURVE",
"313 53 CURVE SMOOTH",
"300 53 OFFCURVE",
"275 33 OFFCURVE",
"234 -21 CURVE",
"199 -18 LINE",
"212 -5 OFFCURVE",
"240 33 OFFCURVE",
"281 82 CURVE SMOOTH",
"332 143 OFFCURVE",
"358 190 OFFCURVE",
"358 227 CURVE SMOOTH",
"358 280 OFFCURVE",
"320 312 OFFCURVE",
"230 312 CURVE SMOOTH",
"152 312 OFFCURVE",
"62 265 OFFCURVE",
"62 152 CURVE SMOOTH",
"62 140 OFFCURVE",
"64 116 OFFCURVE",
"70 99 CURVE",
"78 126 OFFCURVE",
"106 142 OFFCURVE",
"132 142 CURVE SMOOTH",
"177 142 OFFCURVE",
"205 113 OFFCURVE",
"205 70 CURVE SMOOTH",
"205 36 OFFCURVE",
"176 -1 OFFCURVE",
"138 -1 CURVE SMOOTH",
"55 -1 OFFCURVE",
"31 106 OFFCURVE"
);
}
);
width = 615;
}
);
unicode = 0D9B;
},
{
glyphname = "ga-sinhala";
lastChange = "2024-02-24 15:47:16 +0000";
layers = (
{
anchors = (
{
name = _cursive;
position = "{56, 1}";
}
);
layerId = "C18F3EFD-FA9C-4751-AD2F-5B966120D1A5";
paths = (
{
closed = 1;
nodes = (
"33 202 CURVE SMOOTH",
"33 322 OFFCURVE",
"107 422 OFFCURVE",
"215 422 CURVE SMOOTH",
"219 422 OFFCURVE",
"224 421 OFFCURVE",
"228 421 CURVE",
"228 398 LINE",
"225 398 OFFCURVE",
"220 398 OFFCURVE",
"217 398 CURVE SMOOTH",
"133 398 OFFCURVE",
"67 325 OFFCURVE",
"67 225 CURVE SMOOTH",
"67 144 OFFCURVE",
"114 69 OFFCURVE",
"201 69 CURVE SMOOTH",
"259 69 OFFCURVE",
"311 96 OFFCURVE",
"311 154 CURVE SMOOTH",
"311 191 OFFCURVE",
"291 212 OFFCURVE",
"261 212 CURVE SMOOTH",
"254 212 OFFCURVE",
"244 210 OFFCURVE",
"237 205 CURVE",
"236 199 OFFCURVE",
"235 191 OFFCURVE",
"235 188 CURVE",
"211 188 LINE",
"221 310 OFFCURVE",
"281 422 OFFCURVE",
"400 422 CURVE SMOOTH",
"509 422 OFFCURVE",
"572 324 OFFCURVE",
"572 212 CURVE SMOOTH",
"572 93 OFFCURVE",
"488 -1 OFFCURVE",
"360 -1 CURVE SMOOTH",
"350 -1 OFFCURVE",
"341 0 OFFCURVE",
"330 1 CURVE",
"330 25 LINE",
"338 24 OFFCURVE",
"346 23 OFFCURVE",
"354 23 CURVE SMOOTH",
"458 23 OFFCURVE",
"530 97 OFFCURVE",
"530 195 CURVE SMOOTH",
"530 294 OFFCURVE",
"473 362 OFFCURVE",
"384 362 CURVE SMOOTH",
"309 362 OFFCURVE",
"257 305 OFFCURVE",
"241 230 CURVE",
"249 234 OFFCURVE",
"257 235 OFFCURVE",
"264 235 CURVE SMOOTH",
"311 235 OFFCURVE",
"344 197 OFFCURVE",
"344 133 CURVE SMOOTH",
"344 55 OFFCURVE",
"288 -2 OFFCURVE",
"203 -2 CURVE SMOOTH",
"95 -2 OFFCURVE",
"33 94 OFFCURVE"
);
}
);
width = 621;
}
);
unicode = 0D9C;
},
{
glyphname = "gha-sinhala";
lastChange = "2024-02-24 15:47:16 +0000";
layers = (
{
anchors = (
{
name = _cursive;
position = "{54, 0}";
}
);
layerId = "C18F3EFD-FA9C-4751-AD2F-5B966120D1A5";
paths = (
{
closed = 1;
nodes = (
"50 150 CURVE SMOOTH",
"50 220 OFFCURVE",
"90 262 OFFCURVE",
"141 278 CURVE",
"174 290 OFFCURVE",
"227 301 OFFCURVE",
"263 301 CURVE SMOOTH",
"274 301 LINE",
"274 303 OFFCURVE",
"274 303 OFFCURVE",
"274 305 CURVE SMOOTH",
"274 352 OFFCURVE",
"243 386 OFFCURVE",
"207 386 CURVE SMOOTH",
"169 386 OFFCURVE",
"158 363 OFFCURVE",
"152 347 CURVE SMOOTH",
"145 328 OFFCURVE",
"136 315 OFFCURVE",
"115 315 CURVE SMOOTH",
"99 315 OFFCURVE",
"80 326 OFFCURVE",
"80 351 CURVE SMOOTH",
"80 397 OFFCURVE",
"129 422 OFFCURVE",
"183 422 CURVE SMOOTH",
"269 422 OFFCURVE",
"306 360 OFFCURVE",
"306 289 CURVE SMOOTH",
"306 286 OFFCURVE",
"306 279 OFFCURVE",
"306 276 CURVE",
"211 276 LINE SMOOTH",
"159 276 OFFCURVE",
"87 242 OFFCURVE",
"87 171 CURVE SMOOTH",
"87 113 OFFCURVE",
"139 69 OFFCURVE",
"207 69 CURVE SMOOTH",
"223 69 OFFCURVE",
"236 71 OFFCURVE",
"239 74 CURVE",
"237 84 OFFCURVE",
"236 96 OFFCURVE",
"236 104 CURVE SMOOTH",
"236 176 OFFCURVE",
"288 195 OFFCURVE",
"324 195 CURVE SMOOTH",
"360 195 OFFCURVE",
"412 176 OFFCURVE",
"412 104 CURVE SMOOTH",
"412 96 OFFCURVE",
"411 84 OFFCURVE",
"409 74 CURVE",
"412 71 OFFCURVE",
"425 69 OFFCURVE",
"441 69 CURVE SMOOTH",
"508 69 OFFCURVE",
"579 106 OFFCURVE",
"579 174 CURVE SMOOTH",
"579 242 OFFCURVE",
"529 284 OFFCURVE",
"438 284 CURVE SMOOTH",
"403 284 OFFCURVE",
"377 282 OFFCURVE",
"345 275 CURVE",
"345 279 OFFCURVE",
"345 280 OFFCURVE",
"345 284 CURVE SMOOTH",
"345 366 OFFCURVE",
"392 422 OFFCURVE",
"465 422 CURVE SMOOTH",
"518 422 OFFCURVE",
"565 399 OFFCURVE",
"565 342 CURVE SMOOTH",
"565 321 OFFCURVE",
"552 299 OFFCURVE",
"537 290 CURVE",
"583 268 OFFCURVE",
"613 216 OFFCURVE",
"613 162 CURVE SMOOTH",
"613 57 OFFCURVE",
"544 -1 OFFCURVE",
"454 -1 CURVE SMOOTH",
"435 -1 OFFCURVE",
"408 2 OFFCURVE",
"378 11 CURVE",
"375 17 OFFCURVE",
"374 27 OFFCURVE",
"374 34 CURVE SMOOTH",
"374 67 OFFCURVE",
"383 70 OFFCURVE",
"383 104 CURVE SMOOTH",
"383 150 OFFCURVE",
"349 167 OFFCURVE",
"324 167 CURVE SMOOTH",
"299 167 OFFCURVE",
"266 150 OFFCURVE",
"266 104 CURVE SMOOTH",
"266 70 OFFCURVE",
"274 67 OFFCURVE",
"274 34 CURVE SMOOTH",
"274 27 OFFCURVE",
"274 17 OFFCURVE",
"271 11 CURVE",
"241 2 OFFCURVE",
"213 -1 OFFCURVE",
"194 -1 CURVE SMOOTH",
"105 -1 OFFCURVE",
"50 74 OFFCURVE"
);
},
{
closed = 1;
nodes = (
"5 270 CURVE",
"5 301 LINE",
"272 301 LINE",
"302 276 LINE",
"144 276 LINE SMOOTH",
"75 275 OFFCURVE",
"21 273 OFFCURVE"
);
},
{
closed = 1;
nodes = (
"373 303 CURVE",
"386 307 OFFCURVE",
"410 309 OFFCURVE",
"435 309 CURVE SMOOTH",
"468 309 OFFCURVE",
"500 304 OFFCURVE",
"513 299 CURVE",
"525 312 OFFCURVE",
"527 326 OFFCURVE",
"527 338 CURVE SMOOTH",
"527 370 OFFCURVE",
"494 384 OFFCURVE",
"459 384 CURVE SMOOTH",
"408 384 OFFCURVE",
"378 357 OFFCURVE"
);
}
);
width = 661;
}
);
unicode = 0D9D;
},
{
glyphname = "nga-sinhala";
lastChange = "2024-02-24 15:47:16 +0000";
layers = (
{
anchors = (
{
name = _cursive;
position = "{42, 0}";
}
);
layerId = "C18F3EFD-FA9C-4751-AD2F-5B966120D1A5";
paths = (
{
closed = 1;
nodes = (
"86 339 CURVE SMOOTH",
"86 313 OFFCURVE",
"110 291 OFFCURVE",
"139 291 CURVE SMOOTH",
"168 291 OFFCURVE",
"190 313 OFFCURVE",
"190 339 CURVE SMOOTH",
"190 365 OFFCURVE",
"168 387 OFFCURVE",
"139 387 CURVE SMOOTH",
"110 387 OFFCURVE",
"86 365 OFFCURVE"
);
},
{
closed = 1;
nodes = (
"45 457 LINE",
"103 531 OFFCURVE",
"179 568 OFFCURVE",
"274 568 CURVE SMOOTH",
"430 568 OFFCURVE",
"557 435 OFFCURVE",
"557 254 CURVE SMOOTH",
"557 111 OFFCURVE",
"504 0 OFFCURVE",
"406 0 CURVE SMOOTH",
"345 0 OFFCURVE",
"321 21 OFFCURVE",
"291 58 CURVE",
"261 20 OFFCURVE",
"228 0 OFFCURVE",
"184 0 CURVE SMOOTH",
"105 0 OFFCURVE",
"50 59 OFFCURVE",
"50 137 CURVE SMOOTH",
"50 207 OFFCURVE",
"107 252 OFFCURVE",
"175 252 CURVE SMOOTH",
"210 252 OFFCURVE",
"239 245 OFFCURVE",
"273 245 CURVE SMOOTH",
"318 245 OFFCURVE",
"335 268 OFFCURVE",
"335 303 CURVE SMOOTH",
"335 373 OFFCURVE",
"261 401 OFFCURVE",
"209 401 CURVE SMOOTH",
"195 401 OFFCURVE",
"186 400 OFFCURVE",
"178 399 CURVE",
"197 389 OFFCURVE",
"217 371 OFFCURVE",
"217 337 CURVE SMOOTH",
"217 302 OFFCURVE",
"185 266 OFFCURVE",
"138 266 CURVE SMOOTH",
"98 266 OFFCURVE",
"59 296 OFFCURVE",
"59 338 CURVE SMOOTH",
"59 393 OFFCURVE",
"117 424 OFFCURVE",
"203 424 CURVE SMOOTH",
"304 424 OFFCURVE",
"363 369 OFFCURVE",
"363 299 CURVE SMOOTH",
"363 259 OFFCURVE",
"338 219 OFFCURVE",
"273 219 CURVE SMOOTH",
"233 219 OFFCURVE",
"219 225 OFFCURVE",
"177 225 CURVE SMOOTH",
"129 225 OFFCURVE",
"87 199 OFFCURVE",
"87 152 CURVE SMOOTH",
"87 101 OFFCURVE",
"127 69 OFFCURVE",
"182 69 CURVE SMOOTH",
"230 69 OFFCURVE",
"277 94 OFFCURVE",
"277 141 CURVE SMOOTH",
"277 173 LINE",
"304 173 LINE",
"304 141 LINE SMOOTH",
"304 96 OFFCURVE",
"353 68 OFFCURVE",
"402 68 CURVE SMOOTH",
"480 68 OFFCURVE",
"522 156 OFFCURVE",
"522 275 CURVE SMOOTH",
"522 428 OFFCURVE",
"415 545 OFFCURVE",
"271 545 CURVE SMOOTH",
"194 545 OFFCURVE",
"129 516 OFFCURVE",
"76 457 CURVE"
);
}
);
width = 602;
}
);
unicode = 0D9E;
},
{
glyphname = "nnga-sinhala";
lastChange = "2024-02-24 15:47:16 +0000";
layers = (
{
anchors = (
{
name = _cursive;
position = "{42, 0}";
}
);
layerId = "C18F3EFD-FA9C-4751-AD2F-5B966120D1A5";
paths = (
{
closed = 1;
nodes = (
"147 202 CURVE SMOOTH",
"147 322 OFFCURVE",
"221 422 OFFCURVE",
"329 422 CURVE SMOOTH",
"333 422 OFFCURVE",
"338 421 OFFCURVE",
"342 421 CURVE",
"342 398 LINE",
"339 398 OFFCURVE",
"334 398 OFFCURVE",
"331 398 CURVE SMOOTH",
"247 398 OFFCURVE",
"182 325 OFFCURVE",
"182 225 CURVE SMOOTH",
"182 144 OFFCURVE",
"228 69 OFFCURVE",
"315 69 CURVE SMOOTH",
"373 69 OFFCURVE",
"425 96 OFFCURVE",
"425 154 CURVE SMOOTH",
"425 191 OFFCURVE",
"405 212 OFFCURVE",
"375 212 CURVE SMOOTH",
"368 212 OFFCURVE",
"359 210 OFFCURVE",
"352 205 CURVE",
"351 199 OFFCURVE",
"350 191 OFFCURVE",
"350 188 CURVE",
"325 188 LINE",
"335 310 OFFCURVE",
"396 422 OFFCURVE",
"515 422 CURVE SMOOTH",
"624 422 OFFCURVE",
"687 324 OFFCURVE",
"687 212 CURVE SMOOTH",
"687 93 OFFCURVE",
"603 -1 OFFCURVE",
"475 -1 CURVE SMOOTH",
"465 -1 OFFCURVE",
"455 0 OFFCURVE",
"444 1 CURVE",
"444 25 LINE",
"452 24 OFFCURVE",
"460 23 OFFCURVE",
"468 23 CURVE SMOOTH",
"572 23 OFFCURVE",
"645 97 OFFCURVE",
"645 195 CURVE SMOOTH",
"645 294 OFFCURVE",
"587 362 OFFCURVE",
"498 362 CURVE SMOOTH",
"423 362 OFFCURVE",
"371 305 OFFCURVE",
"355 230 CURVE",
"363 234 OFFCURVE",
"371 235 OFFCURVE",
"378 235 CURVE SMOOTH",
"425 235 OFFCURVE",
"458 197 OFFCURVE",
"458 133 CURVE SMOOTH",
"458 55 OFFCURVE",
"402 -2 OFFCURVE",
"317 -2 CURVE SMOOTH",
"209 -2 OFFCURVE",
"147 94 OFFCURVE"
);
},
{
closed = 1;
nodes = (
"26 216 CURVE SMOOTH",
"26 345 OFFCURVE",
"97 423 OFFCURVE",
"233 423 CURVE SMOOTH",
"242 423 OFFCURVE",
"304 424 OFFCURVE",
"329 422 CURVE",
"308 411 OFFCURVE",
"267 405 OFFCURVE",
"250 399 CURVE",
"117 399 OFFCURVE",
"55 334 OFFCURVE",
"55 213 CURVE SMOOTH",
"55 134 OFFCURVE",
"81 73 OFFCURVE",
"132 29 CURVE",
"132 0 LINE",
"68 32 OFFCURVE",
"26 117 OFFCURVE"
);
}
);
width = 731;
}
);
unicode = 0D9F;
},
{
glyphname = "ca-sinhala";
lastChange = "2024-02-24 15:47:16 +0000";
layers = (
{
layerId = "C18F3EFD-FA9C-4751-AD2F-5B966120D1A5";
paths = (
{
closed = 1;
nodes = (
"170 0 OFFCURVE",
"62 45 OFFCURVE",
"62 161 CURVE SMOOTH",
"62 191 OFFCURVE",
"73 222 OFFCURVE",
"95 242 CURVE SMOOTH",
"111 256 OFFCURVE",
"129 266 OFFCURVE",
"154 271 CURVE",
"187 283 OFFCURVE",
"228 295 OFFCURVE",
"264 295 CURVE SMOOTH",
"280 295 LINE",
"280 297 OFFCURVE",
"280 299 OFFCURVE",
"280 301 CURVE SMOOTH",
"280 354 OFFCURVE",
"247 386 OFFCURVE",
"211 386 CURVE SMOOTH",
"167 386 OFFCURVE",
"160 363 OFFCURVE",
"154 347 CURVE SMOOTH",
"147 328 OFFCURVE",
"137 315 OFFCURVE",
"116 315 CURVE SMOOTH",
"100 315 OFFCURVE",
"81 326 OFFCURVE",
"81 351 CURVE SMOOTH",
"81 397 OFFCURVE",
"130 422 OFFCURVE",
"184 422 CURVE SMOOTH",
"270 422 OFFCURVE",
"312 367 OFFCURVE",
"312 283 CURVE SMOOTH",
"312 280 OFFCURVE",
"312 274 OFFCURVE",
"312 271 CURVE",
"244 271 LINE SMOOTH",
"201 271 OFFCURVE",
"162 259 OFFCURVE",
"138 243 CURVE SMOOTH",
"112 226 OFFCURVE",
"99 201 OFFCURVE",
"99 176 CURVE SMOOTH",
"99 92 OFFCURVE",
"203 69 OFFCURVE",
"291 69 CURVE SMOOTH",
"440 69 OFFCURVE",
"528 154 OFFCURVE",
"528 293 CURVE SMOOTH",
"528 432 OFFCURVE",
"427 540 OFFCURVE",
"296 540 CURVE SMOOTH",
"219 540 OFFCURVE",
"157 513 OFFCURVE",
"113 459 CURVE",
"82 459 LINE",
"130 527 OFFCURVE",
"200 563 OFFCURVE",
"296 563 CURVE SMOOTH",
"452 563 OFFCURVE",
"562 433 OFFCURVE",
"562 268 CURVE SMOOTH",
"562 112 OFFCURVE",
"467 0 OFFCURVE",
"288 0 CURVE SMOOTH"
);
},
{
closed = 1;
nodes = (
"76 270 OFFCURVE",
"30 267 OFFCURVE",
"14 264 CURVE",
"14 295 LINE",
"278 295 LINE",
"308 271 LINE",
"145 271 LINE SMOOTH"
);
}
);
width = 607;
}
);
unicode = 0DA0;
},
{
glyphname = "cha-sinhala";
lastChange = "2024-02-24 15:47:16 +0000";
layers = (
{
layerId = "C18F3EFD-FA9C-4751-AD2F-5B966120D1A5";
paths = (
{
closed = 1;
nodes = (
"156 0 OFFCURVE",
"32 43 OFFCURVE",
"32 166 CURVE SMOOTH",
"32 243 OFFCURVE",
"94 305 OFFCURVE",
"203 305 CURVE SMOOTH",
"208 305 OFFCURVE",
"217 305 OFFCURVE",
"222 304 CURVE",
"223 311 OFFCURVE",
"224 316 OFFCURVE",
"224 323 CURVE SMOOTH",
"224 353 OFFCURVE",
"209 382 OFFCURVE",
"173 382 CURVE SMOOTH",
"152 382 OFFCURVE",
"141 369 OFFCURVE",
"134 354 CURVE SMOOTH",
"123 331 OFFCURVE",
"115 314 OFFCURVE",
"89 314 CURVE SMOOTH",
"70 314 OFFCURVE",
"52 328 OFFCURVE",
"52 352 CURVE SMOOTH",
"52 400 OFFCURVE",
"99 422 OFFCURVE",
"145 422 CURVE SMOOTH",
"210 422 OFFCURVE",
"252 383 OFFCURVE",
"252 318 CURVE SMOOTH",
"252 306 OFFCURVE",
"251 294 OFFCURVE",
"248 281 CURVE",
"241 282 OFFCURVE",
"233 283 OFFCURVE",
"224 283 CURVE SMOOTH",
"108 283 OFFCURVE",
"68 228 OFFCURVE",
"68 182 CURVE SMOOTH",
"68 95 OFFCURVE",
"184 69 OFFCURVE",
"285 69 CURVE SMOOTH",
"389 69 OFFCURVE",
"502 95 OFFCURVE",
"502 182 CURVE SMOOTH",
"502 234 OFFCURVE",
"459 282 OFFCURVE",
"347 282 CURVE SMOOTH",
"326 282 OFFCURVE",
"291 279 OFFCURVE",
"277 278 CURVE",
"275 285 OFFCURVE",
"272 301 OFFCURVE",
"272 312 CURVE SMOOTH",
"272 392 OFFCURVE",
"328 425 OFFCURVE",
"396 425 CURVE SMOOTH",
"466 425 OFFCURVE",
"520 383 OFFCURVE",
"520 290 CURVE SMOOTH",
"520 234 OFFCURVE",
"494 156 OFFCURVE",
"423 156 CURVE SMOOTH",
"364 156 OFFCURVE",
"341 218 OFFCURVE",
"341 286 CURVE SMOOTH",
"341 388 OFFCURVE",
"381 484 OFFCURVE",
"420 533 CURVE SMOOTH",
"452 573 OFFCURVE",
"493 603 OFFCURVE",
"529 603 CURVE SMOOTH",
"545 603 OFFCURVE",
"555 592 OFFCURVE",
"555 582 CURVE SMOOTH",
"555 543 OFFCURVE",
"507 575 OFFCURVE",
"441 504 CURVE SMOOTH",
"402 462 OFFCURVE",
"368 382 OFFCURVE",
"368 285 CURVE SMOOTH",
"368 239 OFFCURVE",
"379 183 OFFCURVE",
"425 183 CURVE SMOOTH",
"467 183 OFFCURVE",
"492 238 OFFCURVE",
"492 288 CURVE SMOOTH",
"492 369 OFFCURVE",
"454 400 OFFCURVE",
"393 400 CURVE SMOOTH",
"350 400 OFFCURVE",
"299 379 OFFCURVE",
"299 316 CURVE SMOOTH",
"299 311 OFFCURVE",
"299 307 OFFCURVE",
"300 303 CURVE",
"307 304 OFFCURVE",
"326 305 OFFCURVE",
"342 305 CURVE SMOOTH",
"379 305 OFFCURVE",
"424 302 OFFCURVE",
"462 284 CURVE SMOOTH",
"505 264 OFFCURVE",
"536 223 OFFCURVE",
"536 164 CURVE SMOOTH",
"536 44 OFFCURVE",
"414 0 OFFCURVE",
"291 0 CURVE SMOOTH"
);
}
);
width = 583;
}
);
unicode = 0DA1;
},
{
glyphname = "ja-sinhala";
lastChange = "2024-02-24 15:47:16 +0000";
layers = (
{
anchors = (
{
name = _cursive;
position = "{47, 0}";
}
);
layerId = "C18F3EFD-FA9C-4751-AD2F-5B966120D1A5";
paths = (
{
closed = 1;
nodes = (
"32 166 CURVE SMOOTH",
"32 243 OFFCURVE",
"94 305 OFFCURVE",
"203 305 CURVE SMOOTH",
"221 305 OFFCURVE",
"221 305 OFFCURVE",
"229 304 CURVE",
"230 311 OFFCURVE",
"231 316 OFFCURVE",
"231 323 CURVE SMOOTH",
"231 353 OFFCURVE",
"215 382 OFFCURVE",
"179 382 CURVE SMOOTH",
"158 382 OFFCURVE",
"142 369 OFFCURVE",
"135 354 CURVE SMOOTH",
"124 331 OFFCURVE",
"115 314 OFFCURVE",
"89 314 CURVE SMOOTH",
"70 314 OFFCURVE",
"54 329 OFFCURVE",
"54 353 CURVE SMOOTH",
"54 401 OFFCURVE",
"104 422 OFFCURVE",
"150 422 CURVE SMOOTH",
"215 422 OFFCURVE",
"260 383 OFFCURVE",
"260 318 CURVE SMOOTH",
"260 306 OFFCURVE",
"259 294 OFFCURVE",
"256 281 CURVE",
"244 282 OFFCURVE",
"233 283 OFFCURVE",
"224 283 CURVE SMOOTH",
"108 283 OFFCURVE",
"68 228 OFFCURVE",
"68 182 CURVE SMOOTH",
"68 95 OFFCURVE",
"184 69 OFFCURVE",
"285 69 CURVE SMOOTH",
"389 69 OFFCURVE",
"502 95 OFFCURVE",
"502 182 CURVE SMOOTH",
"502 232 OFFCURVE",
"459 282 OFFCURVE",
"347 282 CURVE SMOOTH",
"326 282 OFFCURVE",
"307 279 OFFCURVE",
"293 278 CURVE",
"288 294 OFFCURVE",
"286 308 OFFCURVE",
"286 323 CURVE SMOOTH",
"286 399 OFFCURVE",
"342 424 OFFCURVE",
"409 424 CURVE SMOOTH",
"449 424 OFFCURVE",
"508 403 OFFCURVE",
"508 345 CURVE SMOOTH",
"508 317 OFFCURVE",
"491 278 OFFCURVE",
"428 278 CURVE SMOOTH",
"375 278 OFFCURVE",
"354 324 OFFCURVE",
"354 366 CURVE SMOOTH",
"354 451 OFFCURVE",
"402 519 OFFCURVE",
"445 558 CURVE SMOOTH",
"481 591 OFFCURVE",
"511 603 OFFCURVE",
"531 603 CURVE SMOOTH",
"547 603 OFFCURVE",
"555 592 OFFCURVE",
"555 582 CURVE SMOOTH",
"555 556 OFFCURVE",
"486 548 OFFCURVE",
"438 499 CURVE SMOOTH",
"416 477 OFFCURVE",
"382 433 OFFCURVE",
"382 365 CURVE SMOOTH",
"382 331 OFFCURVE",
"398 304 OFFCURVE",
"430 304 CURVE SMOOTH",
"458 304 OFFCURVE",
"478 322 OFFCURVE",
"478 347 CURVE SMOOTH",
"478 379 OFFCURVE",
"448 397 OFFCURVE",
"405 397 CURVE SMOOTH",
"336 397 OFFCURVE",
"315 365 OFFCURVE",
"315 326 CURVE SMOOTH",
"315 319 OFFCURVE",
"316 311 OFFCURVE",
"318 302 CURVE",
"326 303 OFFCURVE",
"335 304 OFFCURVE",
"348 304 CURVE SMOOTH",
"437 304 OFFCURVE",
"536 276 OFFCURVE",
"536 164 CURVE SMOOTH",
"536 44 OFFCURVE",
"414 0 OFFCURVE",
"291 0 CURVE SMOOTH",
"156 0 OFFCURVE",
"32 43 OFFCURVE"
);
}
);
width = 583;
}
);
unicode = 0DA2;
},
{
glyphname = "jha-sinhala";
lastChange = "2024-02-24 15:47:16 +0000";
layers = (
{
anchors = (
{
name = _cursive;
position = "{69, 0}";
}
);
layerId = "C18F3EFD-FA9C-4751-AD2F-5B966120D1A5";
paths = (
{
closed = 1;
nodes = (
"68 93 CURVE",
"74 96 OFFCURVE",
"80 98 OFFCURVE",
"87 98 CURVE SMOOTH",
"115 98 OFFCURVE",
"138 69 OFFCURVE",
"194 69 CURVE SMOOTH",
"244 69 OFFCURVE",
"274 99 OFFCURVE",
"274 158 CURVE SMOOTH",
"274 160 OFFCURVE",
"274 157 OFFCURVE",
"274 159 CURVE",
"300 159 LINE",
"300 158 OFFCURVE",
"300 159 OFFCURVE",
"300 158 CURVE SMOOTH",
"300 95 OFFCURVE",
"326 69 OFFCURVE",
"383 69 CURVE SMOOTH",
"444 69 OFFCURVE",
"463 120 OFFCURVE",
"463 155 CURVE SMOOTH",
"463 236 OFFCURVE",
"392 284 OFFCURVE",
"291 284 CURVE SMOOTH",
"235 284 OFFCURVE",
"199 276 OFFCURVE",
"178 267 CURVE",
"161 252 OFFCURVE",
"142 229 OFFCURVE",
"126 207 CURVE SMOOTH",
"98 167 OFFCURVE",
"79 129 OFFCURVE"
);
},
{
closed = 1;
nodes = (
"21 21 LINE",
"29 88 OFFCURVE",
"72 180 OFFCURVE",
"106 227 CURVE SMOOTH",
"131 262 OFFCURVE",
"146 275 OFFCURVE",
"164 294 CURVE",
"176 307 OFFCURVE",
"188 323 OFFCURVE",
"188 344 CURVE SMOOTH",
"188 365 OFFCURVE",
"178 383 OFFCURVE",
"154 383 CURVE SMOOTH",
"140 383 OFFCURVE",
"119 375 OFFCURVE",
"113 354 CURVE SMOOTH",
"106 332 OFFCURVE",
"111 332 OFFCURVE",
"104 315 CURVE SMOOTH",
"97 297 OFFCURVE",
"82 290 OFFCURVE",
"67 290 CURVE SMOOTH",
"34 290 OFFCURVE",
"28 320 OFFCURVE",
"28 332 CURVE SMOOTH",
"28 385 OFFCURVE",
"77 423 OFFCURVE",
"133 423 CURVE SMOOTH",
"182 423 OFFCURVE",
"215 393 OFFCURVE",
"215 348 CURVE SMOOTH",
"215 343 OFFCURVE",
"215 338 OFFCURVE",
"214 333 CURVE",
"274 388 OFFCURVE",
"362 424 OFFCURVE",
"464 424 CURVE SMOOTH",
"562 424 OFFCURVE",
"627 405 OFFCURVE",
"655 389 CURVE",
"600 381 LINE",
"557 393 OFFCURVE",
"506 396 OFFCURVE",
"463 396 CURVE SMOOTH",
"334 396 OFFCURVE",
"261 342 OFFCURVE",
"214 301 CURVE",
"237 307 OFFCURVE",
"269 309 OFFCURVE",
"295 309 CURVE SMOOTH",
"412 309 OFFCURVE",
"503 245 OFFCURVE",
"503 123 CURVE SMOOTH",
"503 66 OFFCURVE",
"471 -1 OFFCURVE",
"388 -1 CURVE SMOOTH",
"343 -1 OFFCURVE",
"310 20 OFFCURVE",
"289 62 CURVE",
"272 22 OFFCURVE",
"240 -1 OFFCURVE",
"199 -1 CURVE SMOOTH",
"114 -1 OFFCURVE",
"117 71 OFFCURVE",
"85 71 CURVE SMOOTH",
"64 71 OFFCURVE",
"49 50 OFFCURVE",
"46 11 CURVE"
);
},
{
closed = 1;
nodes = (
"472 190 CURVE SMOOTH",
"472 281 OFFCURVE",
"524 356 OFFCURVE",
"588 378 CURVE SMOOTH",
"609 385 OFFCURVE",
"631 389 OFFCURVE",
"655 389 CURVE",
"655 364 LINE",
"652 364 OFFCURVE",
"649 364 OFFCURVE",
"646 364 CURVE SMOOTH",
"569 364 OFFCURVE",
"505 294 OFFCURVE",
"505 207 CURVE SMOOTH",
"505 133 OFFCURVE",
"552 69 OFFCURVE",
"623 69 CURVE SMOOTH",
"673 69 OFFCURVE",
"723 90 OFFCURVE",
"723 152 CURVE SMOOTH",
"723 191 LINE",
"750 191 LINE",
"750 152 LINE SMOOTH",
"750 90 OFFCURVE",
"799 69 OFFCURVE",
"847 69 CURVE SMOOTH",
"941 69 OFFCURVE",
"981 176 OFFCURVE",
"981 277 CURVE SMOOTH",
"981 431 OFFCURVE",
"871 543 OFFCURVE",
"727 543 CURVE SMOOTH",
"648 543 OFFCURVE",
"586 515 OFFCURVE",
"534 457 CURVE",
"503 457 LINE",
"559 530 OFFCURVE",
"634 566 OFFCURVE",
"731 566 CURVE SMOOTH",
"890 566 OFFCURVE",
"1015 436 OFFCURVE",
"1015 255 CURVE SMOOTH",
"1015 136 OFFCURVE",
"975 0 OFFCURVE",
"852 0 CURVE SMOOTH",
"804 0 OFFCURVE",
"764 20 OFFCURVE",
"735 58 CURVE",
"705 20 OFFCURVE",
"669 0 OFFCURVE",
"625 0 CURVE SMOOTH",
"525 0 OFFCURVE",
"472 93 OFFCURVE"
);
}
);
width = 1061;
}
);
unicode = 0DA3;
},
{
glyphname = "nya-sinhala";
lastChange = "2024-02-24 15:47:16 +0000";
layers = (
{
anchors = (
{
name = _cursive;
position = "{42, 0}";
}
);
layerId = "C18F3EFD-FA9C-4751-AD2F-5B966120D1A5";
paths = (
{
closed = 1;
nodes = (
"589 164 CURVE SMOOTH",
"589 267 OFFCURVE",
"660 309 OFFCURVE",
"776 309 CURVE SMOOTH",
"894 309 LINE",
"884 354 OFFCURVE",
"833 387 OFFCURVE",
"790 387 CURVE SMOOTH",
"771 387 OFFCURVE",
"757 375 OFFCURVE",
"748 357 CURVE SMOOTH",
"738 336 OFFCURVE",
"722 328 OFFCURVE",
"707 328 CURVE SMOOTH",
"683 328 OFFCURVE",
"670 342 OFFCURVE",
"670 363 CURVE SMOOTH",
"670 398 OFFCURVE",
"709 422 OFFCURVE",
"763 422 CURVE SMOOTH",
"847 422 OFFCURVE",
"911 380 OFFCURVE",
"929 287 CURVE",
"795 287 LINE SMOOTH",
"709 287 OFFCURVE",
"664 250 OFFCURVE",
"664 168 CURVE SMOOTH",
"664 86 OFFCURVE",
"732 25 OFFCURVE",
"813 25 CURVE SMOOTH",
"858 25 OFFCURVE",
"895 45 OFFCURVE",
"934 90 CURVE",
"956 72 LINE",
"926 37 OFFCURVE",
"857 -28 OFFCURVE",
"857 -102 CURVE SMOOTH",
"857 -166 OFFCURVE",
"896 -190 OFFCURVE",
"958 -205 CURVE",
"958 -232 LINE",
"944 -235 OFFCURVE",
"926 -236 OFFCURVE",
"905 -236 CURVE SMOOTH",
"836 -234 OFFCURVE",
"802 -195 OFFCURVE",
"802 -139 CURVE SMOOTH",
"802 -101 OFFCURVE",
"824 -52 OFFCURVE",
"870 10 CURVE",
"836 0 OFFCURVE",
"813 -2 OFFCURVE",
"787 -2 CURVE SMOOTH",
"659 -2 OFFCURVE",
"589 66 OFFCURVE"
);
},
{
closed = 1;
nodes = (
"190 93 CURVE",
"196 96 OFFCURVE",
"202 98 OFFCURVE",
"209 98 CURVE SMOOTH",
"237 98 OFFCURVE",
"260 69 OFFCURVE",
"316 69 CURVE SMOOTH",
"366 69 OFFCURVE",
"396 99 OFFCURVE",
"396 158 CURVE SMOOTH",
"396 160 OFFCURVE",
"396 157 OFFCURVE",
"396 159 CURVE",
"422 159 LINE",
"422 158 OFFCURVE",
"422 159 OFFCURVE",
"422 158 CURVE SMOOTH",
"422 95 OFFCURVE",
"448 69 OFFCURVE",
"505 69 CURVE SMOOTH",
"566 69 OFFCURVE",
"585 120 OFFCURVE",
"585 155 CURVE SMOOTH",
"585 236 OFFCURVE",
"514 284 OFFCURVE",
"413 284 CURVE SMOOTH",
"357 284 OFFCURVE",
"321 276 OFFCURVE",
"300 267 CURVE",
"283 252 OFFCURVE",
"264 229 OFFCURVE",
"248 207 CURVE SMOOTH",
"220 167 OFFCURVE",
"201 129 OFFCURVE"
);
},
{
closed = 1;
nodes = (
"143 21 LINE",
"151 88 OFFCURVE",
"195 180 OFFCURVE",
"229 227 CURVE SMOOTH",
"254 262 OFFCURVE",
"268 275 OFFCURVE",
"286 294 CURVE",
"298 307 OFFCURVE",
"311 323 OFFCURVE",
"311 344 CURVE SMOOTH",
"311 365 OFFCURVE",
"300 383 OFFCURVE",
"276 383 CURVE SMOOTH",
"262 383 OFFCURVE",
"241 375 OFFCURVE",
"235 354 CURVE SMOOTH",
"228 332 OFFCURVE",
"233 332 OFFCURVE",
"226 315 CURVE SMOOTH",
"219 297 OFFCURVE",
"204 290 OFFCURVE",
"189 290 CURVE SMOOTH",
"156 290 OFFCURVE",
"150 320 OFFCURVE",
"150 332 CURVE SMOOTH",
"150 385 OFFCURVE",
"199 423 OFFCURVE",
"255 423 CURVE SMOOTH",
"304 423 OFFCURVE",
"337 393 OFFCURVE",
"337 348 CURVE SMOOTH",
"337 343 OFFCURVE",
"337 338 OFFCURVE",
"336 333 CURVE",
"363 354 OFFCURVE",
"400 379 OFFCURVE",
"469 402 CURVE SMOOTH",
"538 425 OFFCURVE",
"594 432 OFFCURVE",
"673 432 CURVE SMOOTH",
"699 432 OFFCURVE",
"766 429 OFFCURVE",
"809 417 CURVE",
"708 404 LINE",
"697 405 OFFCURVE",
"677 405 OFFCURVE",
"667 405 CURVE SMOOTH",
"619 405 OFFCURVE",
"582 402 OFFCURVE",
"551 396 CURVE SMOOTH",
"470 381 OFFCURVE",
"409 357 OFFCURVE",
"336 301 CURVE",
"359 307 OFFCURVE",
"391 309 OFFCURVE",
"417 309 CURVE SMOOTH",
"534 309 OFFCURVE",
"625 245 OFFCURVE",
"625 123 CURVE SMOOTH",
"625 66 OFFCURVE",
"593 -1 OFFCURVE",
"510 -1 CURVE SMOOTH",
"465 -1 OFFCURVE",
"432 20 OFFCURVE",
"411 62 CURVE",
"394 22 OFFCURVE",
"362 -1 OFFCURVE",
"321 -1 CURVE SMOOTH",
"236 -1 OFFCURVE",
"239 71 OFFCURVE",
"207 71 CURVE SMOOTH",
"186 71 OFFCURVE",
"171 50 OFFCURVE",
"168 11 CURVE"
);
},
{
closed = 1;
nodes = (
"26 216 CURVE SMOOTH",
"26 345 OFFCURVE",
"97 424 OFFCURVE",
"233 424 CURVE SMOOTH",
"242 424 OFFCURVE",
"265 424 OFFCURVE",
"286 418 CURVE",
"265 407 OFFCURVE",
"190 397 OFFCURVE",
"173 391 CURVE",
"100 373 OFFCURVE",
"55 312 OFFCURVE",
"55 213 CURVE SMOOTH",
"55 134 OFFCURVE",
"81 73 OFFCURVE",
"132 29 CURVE",
"132 0 LINE",
"68 32 OFFCURVE",
"26 117 OFFCURVE"
);
}
);
width = 1000;
}
);
unicode = 0DA4;
},
{
glyphname = "jnya-sinhala";
lastChange = "2024-02-24 15:47:16 +0000";
layers = (
{
anchors = (
{
name = _cursive;
position = "{51, 0}";
}
);
layerId = "C18F3EFD-FA9C-4751-AD2F-5B966120D1A5";
paths = (
{
closed = 1;
nodes = (
"411 165 CURVE SMOOTH",
"411 268 OFFCURVE",
"483 310 OFFCURVE",
"599 310 CURVE SMOOTH",
"716 310 LINE",
"706 355 OFFCURVE",
"678 387 OFFCURVE",
"635 387 CURVE SMOOTH",
"616 387 OFFCURVE",
"601 375 OFFCURVE",
"592 357 CURVE SMOOTH",
"582 336 OFFCURVE",
"567 328 OFFCURVE",
"552 328 CURVE SMOOTH",
"528 328 OFFCURVE",
"515 342 OFFCURVE",
"515 363 CURVE SMOOTH",
"515 398 OFFCURVE",
"553 423 OFFCURVE",
"607 423 CURVE SMOOTH",
"691 423 OFFCURVE",
"733 380 OFFCURVE",
"751 287 CURVE",
"617 287 LINE SMOOTH",
"531 287 OFFCURVE",
"486 251 OFFCURVE",
"486 169 CURVE SMOOTH",
"486 87 OFFCURVE",
"555 26 OFFCURVE",
"636 26 CURVE SMOOTH",
"681 26 OFFCURVE",
"717 45 OFFCURVE",
"756 90 CURVE",
"778 73 LINE",
"748 38 OFFCURVE",
"680 -28 OFFCURVE",
"680 -102 CURVE SMOOTH",
"680 -166 OFFCURVE",
"718 -190 OFFCURVE",
"780 -205 CURVE",
"780 -232 LINE",
"766 -235 OFFCURVE",
"749 -236 OFFCURVE",
"728 -236 CURVE SMOOTH",
"659 -234 OFFCURVE",
"624 -195 OFFCURVE",
"624 -139 CURVE SMOOTH",
"624 -101 OFFCURVE",
"646 -52 OFFCURVE",
"692 10 CURVE",
"658 0 OFFCURVE",
"635 -1 OFFCURVE",
"609 -1 CURVE SMOOTH",
"481 -1 OFFCURVE",
"411 67 OFFCURVE"
);
},
{
closed = 1;
nodes = (
"131 202 CURVE SMOOTH",
"131 322 OFFCURVE",
"204 422 OFFCURVE",
"312 422 CURVE SMOOTH",
"316 422 OFFCURVE",
"321 421 OFFCURVE",
"325 421 CURVE",
"325 398 LINE",
"322 398 OFFCURVE",
"317 398 OFFCURVE",
"314 398 CURVE SMOOTH",
"230 398 OFFCURVE",
"165 325 OFFCURVE",
"165 225 CURVE SMOOTH",
"165 144 OFFCURVE",
"212 69 OFFCURVE",
"299 69 CURVE SMOOTH",
"357 69 OFFCURVE",
"408 96 OFFCURVE",
"408 154 CURVE SMOOTH",
"408 191 OFFCURVE",
"388 212 OFFCURVE",
"358 212 CURVE SMOOTH",
"351 212 OFFCURVE",
"341 209 OFFCURVE",
"336 205 CURVE",
"335 199 OFFCURVE",
"334 191 OFFCURVE",
"334 188 CURVE",
"308 188 LINE",
"322 344 OFFCURVE",
"397 428 OFFCURVE",
"547 428 CURVE SMOOTH",
"577 428 OFFCURVE",
"626 426 OFFCURVE",
"658 416 CURVE",
"540 399 LINE",
"534 399 OFFCURVE",
"531 400 OFFCURVE",
"525 400 CURVE SMOOTH",
"421 400 OFFCURVE",
"360 332 OFFCURVE",
"339 230 CURVE",
"347 234 OFFCURVE",
"354 235 OFFCURVE",
"361 235 CURVE SMOOTH",
"408 235 OFFCURVE",
"441 197 OFFCURVE",
"441 133 CURVE SMOOTH",
"441 55 OFFCURVE",
"386 -2 OFFCURVE",
"301 -2 CURVE SMOOTH",
"193 -2 OFFCURVE",
"131 94 OFFCURVE"
);
},
{
closed = 1;
nodes = (
"26 216 CURVE SMOOTH",
"26 345 OFFCURVE",
"97 423 OFFCURVE",
"233 423 CURVE SMOOTH",
"242 423 OFFCURVE",
"294 424 OFFCURVE",
"316 422 CURVE",
"312 422 OFFCURVE",
"226 396 OFFCURVE",
"226 396 CURVE",
"95 396 OFFCURVE",
"55 305 OFFCURVE",
"55 213 CURVE SMOOTH",
"55 134 OFFCURVE",
"81 73 OFFCURVE",
"132 29 CURVE",
"132 0 LINE",
"68 32 OFFCURVE",
"26 117 OFFCURVE"
);
}
);
width = 822;
}
);
unicode = 0DA5;
},
{
glyphname = "nyja-sinhala";
lastChange = "2024-02-24 15:47:16 +0000";
layers = (
{
anchors = (
{
name = _cursive;
position = "{42, 0}";
}
);
layerId = "C18F3EFD-FA9C-4751-AD2F-5B966120D1A5";
paths = (
{
closed = 1;
nodes = (
"131 166 CURVE SMOOTH",
"131 243 OFFCURVE",
"193 305 OFFCURVE",
"302 305 CURVE SMOOTH",
"320 305 OFFCURVE",
"320 305 OFFCURVE",
"328 304 CURVE",
"329 311 OFFCURVE",
"330 316 OFFCURVE",
"330 323 CURVE SMOOTH",
"330 353 OFFCURVE",
"313 382 OFFCURVE",
"277 382 CURVE SMOOTH",
"256 382 OFFCURVE",
"240 369 OFFCURVE",
"233 354 CURVE SMOOTH",
"222 331 OFFCURVE",
"214 314 OFFCURVE",
"188 314 CURVE SMOOTH",
"169 314 OFFCURVE",
"152 329 OFFCURVE",
"152 353 CURVE SMOOTH",
"152 401 OFFCURVE",
"203 422 OFFCURVE",
"249 422 CURVE SMOOTH",
"314 422 OFFCURVE",
"358 383 OFFCURVE",
"358 318 CURVE SMOOTH",
"358 306 OFFCURVE",
"357 294 OFFCURVE",
"354 281 CURVE",
"342 282 OFFCURVE",
"331 283 OFFCURVE",
"322 283 CURVE SMOOTH",
"206 283 OFFCURVE",
"167 228 OFFCURVE",
"167 182 CURVE SMOOTH",
"167 95 OFFCURVE",
"283 69 OFFCURVE",
"384 69 CURVE SMOOTH",
"488 69 OFFCURVE",
"601 95 OFFCURVE",
"601 182 CURVE SMOOTH",
"601 232 OFFCURVE",
"557 282 OFFCURVE",
"445 282 CURVE SMOOTH",
"424 282 OFFCURVE",
"406 279 OFFCURVE",
"392 278 CURVE",
"387 294 OFFCURVE",
"385 308 OFFCURVE",
"385 323 CURVE SMOOTH",
"385 399 OFFCURVE",
"441 424 OFFCURVE",
"508 424 CURVE SMOOTH",
"548 424 OFFCURVE",
"606 403 OFFCURVE",
"606 345 CURVE SMOOTH",
"606 317 OFFCURVE",
"589 278 OFFCURVE",
"526 278 CURVE SMOOTH",
"473 278 OFFCURVE",
"453 324 OFFCURVE",
"453 366 CURVE SMOOTH",
"453 451 OFFCURVE",
"501 519 OFFCURVE",
"544 558 CURVE SMOOTH",
"580 591 OFFCURVE",
"610 603 OFFCURVE",
"630 603 CURVE SMOOTH",
"646 603 OFFCURVE",
"653 592 OFFCURVE",
"653 582 CURVE SMOOTH",
"653 556 OFFCURVE",
"585 548 OFFCURVE",
"537 499 CURVE SMOOTH",
"515 477 OFFCURVE",
"480 433 OFFCURVE",
"480 365 CURVE SMOOTH",
"480 331 OFFCURVE",
"496 304 OFFCURVE",
"528 304 CURVE SMOOTH",
"556 304 OFFCURVE",
"576 322 OFFCURVE",
"576 347 CURVE SMOOTH",
"576 379 OFFCURVE",
"547 397 OFFCURVE",
"504 397 CURVE SMOOTH",
"435 397 OFFCURVE",
"414 365 OFFCURVE",
"414 326 CURVE SMOOTH",
"414 319 OFFCURVE",
"415 311 OFFCURVE",
"417 302 CURVE",
"425 303 OFFCURVE",
"433 304 OFFCURVE",
"446 304 CURVE SMOOTH",
"535 304 OFFCURVE",
"635 276 OFFCURVE",
"635 164 CURVE SMOOTH",
"635 44 OFFCURVE",
"513 0 OFFCURVE",
"390 0 CURVE SMOOTH",
"255 0 OFFCURVE",
"131 43 OFFCURVE"
);
},
{
closed = 1;
nodes = (
"26 216 CURVE SMOOTH",
"26 345 OFFCURVE",
"97 423 OFFCURVE",
"233 423 CURVE SMOOTH",
"242 423 OFFCURVE",
"265 423 OFFCURVE",
"286 417 CURVE",
"265 406 OFFCURVE",
"190 397 OFFCURVE",
"173 391 CURVE",
"100 373 OFFCURVE",
"55 312 OFFCURVE",
"55 213 CURVE SMOOTH",
"55 134 OFFCURVE",
"81 73 OFFCURVE",
"132 29 CURVE",
"132 0 LINE",
"68 32 OFFCURVE",
"26 117 OFFCURVE"
);
}
);
width = 682;
}
);
unicode = 0DA6;
},
{
glyphname = "tta-sinhala";
lastChange = "2024-02-24 15:47:16 +0000";
layers = (
{
anchors = (
{
name = _cursive;
position = "{37, 0}";
}
);
layerId = "C18F3EFD-FA9C-4751-AD2F-5B966120D1A5";
paths = (
{
closed = 1;
nodes = (
"31 203 CURVE SMOOTH",
"31 315 OFFCURVE",
"123 382 OFFCURVE",
"227 382 CURVE SMOOTH",
"253 382 OFFCURVE",
"285 377 OFFCURVE",
"313 366 CURVE",
"313 338 LINE",
"287 351 OFFCURVE",
"260 356 OFFCURVE",
"229 356 CURVE SMOOTH",
"145 356 OFFCURVE",
"64 307 OFFCURVE",
"64 213 CURVE SMOOTH",
"64 113 OFFCURVE",
"172 69 OFFCURVE",
"270 69 CURVE SMOOTH",
"409 69 OFFCURVE",
"511 145 OFFCURVE",
"511 289 CURVE SMOOTH",
"511 422 OFFCURVE",
"406 540 OFFCURVE",
"269 540 CURVE SMOOTH",
"190 540 OFFCURVE",
"130 513 OFFCURVE",
"88 459 CURVE",
"56 459 LINE",
"102 526 OFFCURVE",
"173 563 OFFCURVE",
"267 563 CURVE SMOOTH",
"436 563 OFFCURVE",
"544 423 OFFCURVE",
"544 265 CURVE SMOOTH",
"544 113 OFFCURVE",
"436 -1 OFFCURVE",
"278 -1 CURVE SMOOTH",
"130 -1 OFFCURVE",
"31 79 OFFCURVE"
);
}
);
width = 588;
}
);
unicode = 0DA7;
},
{
glyphname = "ttha-sinhala";
lastChange = "2024-02-24 15:47:20 +0000";
layers = (
{
components = (
{
name = "tha-sinhala";
transform = "{1, 0, 0, 1, 392, 0}";
}
);
layerId = "C18F3EFD-FA9C-4751-AD2F-5B966120D1A5";
paths = (
{
closed = 1;
nodes = (
"21 24 LINE",
"34 127 OFFCURVE",
"100 237 OFFCURVE",
"155 299 CURVE",
"163 308 OFFCURVE",
"175 322 OFFCURVE",
"175 341 CURVE SMOOTH",
"175 362 OFFCURVE",
"166 379 OFFCURVE",
"147 379 CURVE SMOOTH",
"130 379 OFFCURVE",
"117 369 OFFCURVE",
"116 348 CURVE SMOOTH",
"115 319 OFFCURVE",
"108 288 OFFCURVE",
"74 288 CURVE SMOOTH",
"49 288 OFFCURVE",
"36 310 OFFCURVE",
"36 334 CURVE SMOOTH",
"36 383 OFFCURVE",
"76 423 OFFCURVE",
"124 423 CURVE SMOOTH",
"173 423 OFFCURVE",
"201 390 OFFCURVE",
"201 348 CURVE SMOOTH",
"201 343 OFFCURVE",
"201 344 OFFCURVE",
"200 339 CURVE",
"286 401 OFFCURVE",
"372 424 OFFCURVE",
"535 424 CURVE SMOOTH",
"558 424 OFFCURVE",
"596 424 OFFCURVE",
"628 420 CURVE",
"607 408 OFFCURVE",
"571 406 OFFCURVE",
"554 398 CURVE",
"389 398 OFFCURVE",
"280 376 OFFCURVE",
"196 299 CURVE",
"217 308 OFFCURVE",
"243 312 OFFCURVE",
"274 312 CURVE SMOOTH",
"373 312 OFFCURVE",
"448 262 OFFCURVE",
"448 158 CURVE SMOOTH",
"448 68 OFFCURVE",
"382 -2 OFFCURVE",
"275 -2 CURVE SMOOTH",
"130 -2 OFFCURVE",
"137 77 OFFCURVE",
"87 77 CURVE SMOOTH",
"64 77 OFFCURVE",
"52 52 OFFCURVE",
"43 9 CURVE"
);
},
{
closed = 1;
nodes = (
"69 98 CURVE",
"78 105 OFFCURVE",
"90 106 OFFCURVE",
"101 106 CURVE SMOOTH",
"137 106 OFFCURVE",
"172 71 OFFCURVE",
"248 71 CURVE SMOOTH",
"333 71 OFFCURVE",
"407 101 OFFCURVE",
"407 184 CURVE SMOOTH",
"407 254 OFFCURVE",
"341 289 OFFCURVE",
"276 289 CURVE SMOOTH",
"228 289 OFFCURVE",
"183 277 OFFCURVE",
"153 254 CURVE",
"123 217 OFFCURVE",
"90 161 OFFCURVE"
);
}
);
width = 992;
}
);
unicode = 0DA8;
},
{
glyphname = "dda-sinhala";
lastChange = "2024-02-24 15:47:16 +0000";
layers = (
{
anchors = (
{
name = _cursive;
position = "{42, 0}";
}
);
layerId = "C18F3EFD-FA9C-4751-AD2F-5B966120D1A5";
paths = (
{
closed = 1;
nodes = (
"15 281 LINE",
"15 308 LINE",
"255 308 LINE",
"252 350 OFFCURVE",
"222 382 OFFCURVE",
"193 382 CURVE SMOOTH",
"175 382 OFFCURVE",
"161 377 OFFCURVE",
"147 354 CURVE SMOOTH",
"136 335 OFFCURVE",
"124 331 OFFCURVE",
"110 331 CURVE SMOOTH",
"90 331 OFFCURVE",
"74 344 OFFCURVE",
"74 365 CURVE SMOOTH",
"74 404 OFFCURVE",
"120 422 OFFCURVE",
"161 422 CURVE SMOOTH",
"243 422 OFFCURVE",
"287 365 OFFCURVE",
"288 281 CURVE",
"215 281 LINE SMOOTH",
"124 281 OFFCURVE",
"81 225 OFFCURVE",
"81 170 CURVE SMOOTH",
"81 119 OFFCURVE",
"120 69 OFFCURVE",
"193 69 CURVE SMOOTH",
"241 69 OFFCURVE",
"292 93 OFFCURVE",
"292 140 CURVE SMOOTH",
"292 174 LINE",
"318 174 LINE",
"318 140 LINE SMOOTH",
"318 95 OFFCURVE",
"365 69 OFFCURVE",
"414 69 CURVE SMOOTH",
"508 69 OFFCURVE",
"549 163 OFFCURVE",
"549 267 CURVE SMOOTH",
"549 418 OFFCURVE",
"445 543 OFFCURVE",
"291 543 CURVE SMOOTH",
"213 543 OFFCURVE",
"150 513 OFFCURVE",
"104 457 CURVE",
"71 457 LINE",
"124 533 OFFCURVE",
"205 568 OFFCURVE",
"297 568 CURVE SMOOTH",
"468 568 OFFCURVE",
"584 434 OFFCURVE",
"584 252 CURVE SMOOTH",
"584 123 OFFCURVE",
"534 0 OFFCURVE",
"418 0 CURVE SMOOTH",
"355 0 OFFCURVE",
"327 29 OFFCURVE",
"306 58 CURVE",
"277 22 OFFCURVE",
"244 0 OFFCURVE",
"194 0 CURVE SMOOTH",
"95 0 OFFCURVE",
"45 79 OFFCURVE",
"45 158 CURVE SMOOTH",
"45 207 OFFCURVE",
"69 258 OFFCURVE",
"122 281 CURVE"
);
}
);
width = 631;
}
);
unicode = 0DA9;
},
{
glyphname = "ddha-sinhala";
lastChange = "2024-02-24 15:47:17 +0000";
layers = (
{
components = (
{
name = "dha-sinhala";
transform = "{1, 0, 0, 1, 90, 0}";
}
);
layerId = "C18F3EFD-FA9C-4751-AD2F-5B966120D1A5";
paths = (
{
closed = 1;
nodes = (
"26 207 CURVE SMOOTH",
"26 336 OFFCURVE",
"99 423 OFFCURVE",
"215 423 CURVE SMOOTH",
"240 423 OFFCURVE",
"283 417 OFFCURVE",
"306 389 CURVE",
"269 385 LINE",
"261 393 OFFCURVE",
"239 397 OFFCURVE",
"221 397 CURVE SMOOTH",
"90 397 OFFCURVE",
"55 288 OFFCURVE",
"55 203 CURVE SMOOTH",
"55 128 OFFCURVE",
"81 73 OFFCURVE",
"132 29 CURVE",
"132 0 LINE",
"68 32 OFFCURVE",
"26 108 OFFCURVE"
);
}
);
width = 711;
}
);
unicode = 0DAA;
},
{
glyphname = "nna-sinhala";
lastChange = "2024-02-24 15:47:16 +0000";
layers = (
{
anchors = (
{
name = _cursive;
position = "{51, 0}";
}
);
layerId = "C18F3EFD-FA9C-4751-AD2F-5B966120D1A5";
paths = (
{
closed = 1;
nodes = (
"21 174 LINE",
"208 299 OFFCURVE",
"416 393 OFFCURVE",
"638 472 CURVE SMOOTH",
"709 497 OFFCURVE",
"778 515 OFFCURVE",
"809 515 CURVE SMOOTH",
"831 515 OFFCURVE",
"843 506 OFFCURVE",
"843 488 CURVE SMOOTH",
"843 473 OFFCURVE",
"831 464 OFFCURVE",
"809 459 CURVE SMOOTH",
"781 454 OFFCURVE",
"733 445 OFFCURVE",
"667 433 CURVE SMOOTH",
"480 399 OFFCURVE",
"271 294 OFFCURVE",
"112 203 CURVE",
"172 203 OFFCURVE",
"190 71 OFFCURVE",
"342 71 CURVE SMOOTH",
"446 71 OFFCURVE",
"536 129 OFFCURVE",
"536 231 CURVE SMOOTH",
"536 322 OFFCURVE",
"471 398 OFFCURVE",
"349 398 CURVE SMOOTH",
"263 398 OFFCURVE",
"194 351 OFFCURVE",
"194 281 CURVE SMOOTH",
"194 208 OFFCURVE",
"257 178 OFFCURVE",
"314 178 CURVE",
"396 174 LINE",
"375 160 OFFCURVE",
"353 152 OFFCURVE",
"313 152 CURVE SMOOTH",
"226 152 OFFCURVE",
"166 203 OFFCURVE",
"166 276 CURVE SMOOTH",
"166 373 OFFCURVE",
"252 423 OFFCURVE",
"351 423 CURVE SMOOTH",
"430 423 OFFCURVE",
"570 381 OFFCURVE",
"570 208 CURVE SMOOTH",
"570 111 OFFCURVE",
"507 0 OFFCURVE",
"356 0 CURVE SMOOTH",
"163 0 OFFCURVE",
"176 177 OFFCURVE",
"97 177 CURVE SMOOTH",
"70 177 OFFCURVE",
"53 164 OFFCURVE",
"32 150 CURVE"
);
},
{
closed = 1;
nodes = (
"301 159 OFFCURVE",
"261 199 OFFCURVE",
"261 247 CURVE SMOOTH",
"261 295 OFFCURVE",
"301 335 OFFCURVE",
"349 335 CURVE SMOOTH",
"397 335 OFFCURVE",
"437 295 OFFCURVE",
"437 247 CURVE SMOOTH",
"437 199 OFFCURVE",
"397 159 OFFCURVE",
"349 159 CURVE SMOOTH"
);
},
{
closed = 1;
nodes = (
"316 308 OFFCURVE",
"289 281 OFFCURVE",
"289 248 CURVE SMOOTH",
"289 215 OFFCURVE",
"316 188 OFFCURVE",
"349 188 CURVE SMOOTH",
"382 188 OFFCURVE",
"408 215 OFFCURVE",
"408 248 CURVE SMOOTH",
"408 281 OFFCURVE",
"382 308 OFFCURVE",
"349 308 CURVE SMOOTH"
);
},
{
closed = 1;
nodes = (
"577 35 OFFCURVE",
"536 90 OFFCURVE",
"536 157 CURVE SMOOTH",
"536 224 OFFCURVE",
"577 279 OFFCURVE",
"630 279 CURVE SMOOTH",
"662 279 OFFCURVE",
"686 266 OFFCURVE",
"702 245 CURVE",
"706 293 OFFCURVE",
"736 340 OFFCURVE",
"796 340 CURVE SMOOTH",
"860 340 OFFCURVE",
"894 259 OFFCURVE",
"894 164 CURVE SMOOTH",
"894 71 OFFCURVE",
"862 -1 OFFCURVE",
"781 -1 CURVE SMOOTH",
"730 -1 OFFCURVE",
"702 32 OFFCURVE",
"697 66 CURVE",
"681 46 OFFCURVE",
"658 35 OFFCURVE",
"630 35 CURVE SMOOTH"
);
},
{
closed = 1;
nodes = (
"593 250 OFFCURVE",
"563 209 OFFCURVE",
"563 158 CURVE SMOOTH",
"563 107 OFFCURVE",
"593 66 OFFCURVE",
"629 66 CURVE SMOOTH",
"670 66 OFFCURVE",
"694 102 OFFCURVE",
"694 158 CURVE SMOOTH",
"694 217 OFFCURVE",
"673 250 OFFCURVE",
"629 250 CURVE SMOOTH"
);
},
{
closed = 1;
nodes = (
"717 103 OFFCURVE",
"717 104 OFFCURVE",
"717 103 CURVE SMOOTH",
"717 43 OFFCURVE",
"751 33 OFFCURVE",
"773 33 CURVE SMOOTH",
"823 33 OFFCURVE",
"832 93 OFFCURVE",
"832 165 CURVE SMOOTH",
"832 239 OFFCURVE",
"816 302 OFFCURVE",
"780 302 CURVE SMOOTH",
"738 302 OFFCURVE",
"724 257 OFFCURVE",
"721 197 CURVE SMOOTH",
"723 185 OFFCURVE",
"724 172 OFFCURVE",
"724 157 CURVE SMOOTH",
"724 137 OFFCURVE",
"722 120 OFFCURVE",
"717 104 CURVE SMOOTH"
);
}
);
width = 940;
}
);
unicode = 0DAB;
},
{
glyphname = "nndda-sinhala";
lastChange = "2024-02-24 15:47:16 +0000";
layers = (
{
anchors = (
{
name = _cursive;
position = "{36, 0}";
}
);
layerId = "C18F3EFD-FA9C-4751-AD2F-5B966120D1A5";
paths = (
{
closed = 1;
nodes = (
"100 281 LINE",
"100 308 LINE",
"340 308 LINE",
"337 350 OFFCURVE",
"307 382 OFFCURVE",
"278 382 CURVE SMOOTH",
"260 382 OFFCURVE",
"246 377 OFFCURVE",
"232 354 CURVE SMOOTH",
"221 335 OFFCURVE",
"209 331 OFFCURVE",
"195 331 CURVE SMOOTH",
"175 331 OFFCURVE",
"159 344 OFFCURVE",
"159 365 CURVE SMOOTH",
"159 404 OFFCURVE",
"205 422 OFFCURVE",
"246 422 CURVE SMOOTH",
"328 422 OFFCURVE",
"372 365 OFFCURVE",
"373 281 CURVE",
"300 281 LINE SMOOTH",
"209 281 OFFCURVE",
"166 225 OFFCURVE",
"166 170 CURVE SMOOTH",
"166 119 OFFCURVE",
"205 69 OFFCURVE",
"278 69 CURVE SMOOTH",
"326 69 OFFCURVE",
"377 93 OFFCURVE",
"377 140 CURVE SMOOTH",
"377 174 LINE",
"403 174 LINE",
"403 140 LINE SMOOTH",
"403 95 OFFCURVE",
"450 69 OFFCURVE",
"499 69 CURVE SMOOTH",
"593 69 OFFCURVE",
"634 163 OFFCURVE",
"634 267 CURVE SMOOTH",
"634 418 OFFCURVE",
"530 543 OFFCURVE",
"376 543 CURVE SMOOTH",
"298 543 OFFCURVE",
"234 513 OFFCURVE",
"188 457 CURVE",
"156 457 LINE",
"209 533 OFFCURVE",
"290 568 OFFCURVE",
"382 568 CURVE SMOOTH",
"553 568 OFFCURVE",
"669 434 OFFCURVE",
"669 252 CURVE SMOOTH",
"669 123 OFFCURVE",
"619 0 OFFCURVE",
"503 0 CURVE SMOOTH",
"440 0 OFFCURVE",
"412 29 OFFCURVE",
"391 58 CURVE",
"362 22 OFFCURVE",
"329 0 OFFCURVE",
"279 0 CURVE SMOOTH",
"180 0 OFFCURVE",
"130 79 OFFCURVE",
"130 158 CURVE SMOOTH",
"130 207 OFFCURVE",
"154 258 OFFCURVE",
"207 281 CURVE"
);
},
{
closed = 1;
nodes = (
"26 216 CURVE SMOOTH",
"26 345 OFFCURVE",
"97 423 OFFCURVE",
"233 423 CURVE SMOOTH",
"242 423 OFFCURVE",
"265 423 OFFCURVE",
"286 417 CURVE",
"265 406 OFFCURVE",
"190 397 OFFCURVE",
"173 391 CURVE",
"100 373 OFFCURVE",
"55 312 OFFCURVE",
"55 213 CURVE SMOOTH",
"55 134 OFFCURVE",
"81 73 OFFCURVE",
"132 29 CURVE",
"132 0 LINE",
"68 32 OFFCURVE",
"26 117 OFFCURVE"
);
}
);
width = 713;
}
);
unicode = 0DAC;
},
{
glyphname = "ta-sinhala";
lastChange = "2024-02-24 15:47:16 +0000";
layers = (
{
anchors = (
{
name = _cursive;
position = "{66, 0}";
}
);
layerId = "C18F3EFD-FA9C-4751-AD2F-5B966120D1A5";
paths = (
{
closed = 1;
nodes = (
"21 24 LINE",
"34 127 OFFCURVE",
"100 237 OFFCURVE",
"155 299 CURVE",
"163 308 OFFCURVE",
"175 322 OFFCURVE",
"175 341 CURVE SMOOTH",
"175 362 OFFCURVE",
"166 379 OFFCURVE",
"147 379 CURVE SMOOTH",
"130 379 OFFCURVE",
"117 369 OFFCURVE",
"116 348 CURVE SMOOTH",
"115 319 OFFCURVE",
"108 288 OFFCURVE",
"74 288 CURVE SMOOTH",
"49 288 OFFCURVE",
"36 310 OFFCURVE",
"36 334 CURVE SMOOTH",
"36 383 OFFCURVE",
"76 423 OFFCURVE",
"124 423 CURVE SMOOTH",
"173 423 OFFCURVE",
"201 390 OFFCURVE",
"201 348 CURVE SMOOTH",
"201 343 OFFCURVE",
"201 344 OFFCURVE",
"200 339 CURVE",
"264 410 OFFCURVE",
"351 425 OFFCURVE",
"413 425 CURVE SMOOTH",
"549 425 OFFCURVE",
"648 327 OFFCURVE",
"648 181 CURVE SMOOTH",
"648 83 OFFCURVE",
"599 -1 OFFCURVE",
"509 -1 CURVE SMOOTH",
"483 -1 OFFCURVE",
"461 5 OFFCURVE",
"444 14 CURVE",
"444 43 LINE",
"457 35 OFFCURVE",
"478 26 OFFCURVE",
"499 26 CURVE SMOOTH",
"564 26 OFFCURVE",
"596 83 OFFCURVE",
"596 147 CURVE SMOOTH",
"596 265 OFFCURVE",
"496 370 OFFCURVE",
"358 370 CURVE SMOOTH",
"289 370 OFFCURVE",
"235 347 OFFCURVE",
"196 299 CURVE",
"217 308 OFFCURVE",
"243 312 OFFCURVE",
"274 312 CURVE SMOOTH",
"373 312 OFFCURVE",
"448 262 OFFCURVE",
"448 158 CURVE SMOOTH",
"448 68 OFFCURVE",
"382 -2 OFFCURVE",
"275 -2 CURVE SMOOTH",
"130 -2 OFFCURVE",
"137 77 OFFCURVE",
"87 77 CURVE SMOOTH",
"64 77 OFFCURVE",
"52 52 OFFCURVE",
"43 9 CURVE"
);
},
{
closed = 1;
nodes = (
"69 98 CURVE",
"78 105 OFFCURVE",
"90 106 OFFCURVE",
"101 106 CURVE SMOOTH",
"137 106 OFFCURVE",
"172 71 OFFCURVE",
"248 71 CURVE SMOOTH",
"333 71 OFFCURVE",
"407 101 OFFCURVE",
"407 184 CURVE SMOOTH",
"407 254 OFFCURVE",
"341 289 OFFCURVE",
"276 289 CURVE SMOOTH",
"228 289 OFFCURVE",
"183 277 OFFCURVE",
"153 254 CURVE",
"123 217 OFFCURVE",
"90 161 OFFCURVE"
);
}
);
width = 687;
}
);
unicode = 0DAD;
},
{
glyphname = "tha-sinhala";
lastChange = "2024-02-24 15:47:16 +0000";
layers = (
{
anchors = (
{
name = _cursive;
position = "{51, 0}";
}
);
layerId = "C18F3EFD-FA9C-4751-AD2F-5B966120D1A5";
paths = (
{
closed = 1;
nodes = (
"32 229 CURVE SMOOTH",
"32 336 OFFCURVE",
"131 420 OFFCURVE",
"239 420 CURVE",
"239 396 LINE",
"144 396 OFFCURVE",
"65 328 OFFCURVE",
"65 236 CURVE SMOOTH",
"65 119 OFFCURVE",
"169 69 OFFCURVE",
"298 69 CURVE SMOOTH",
"423 69 OFFCURVE",
"519 150 OFFCURVE",
"519 274 CURVE SMOOTH",
"519 330 OFFCURVE",
"502 379 OFFCURVE",
"481 410 CURVE",
"466 378 OFFCURVE",
"438 358 OFFCURVE",
"396 358 CURVE SMOOTH",
"334 358 OFFCURVE",
"298 413 OFFCURVE",
"298 477 CURVE SMOOTH",
"298 526 OFFCURVE",
"313 561 OFFCURVE",
"339 591 CURVE",
"399 559 OFFCURVE",
"468 489 OFFCURVE",
"503 428 CURVE SMOOTH",
"541 363 OFFCURVE",
"553 314 OFFCURVE",
"553 246 CURVE SMOOTH",
"553 100 OFFCURVE",
"439 -1 OFFCURVE",
"288 -1 CURVE SMOOTH",
"147 -1 OFFCURVE",
"32 89 OFFCURVE"
);
},
{
closed = 1;
nodes = (
"327 480 CURVE SMOOTH",
"327 432 OFFCURVE",
"346 394 OFFCURVE",
"402 394 CURVE SMOOTH",
"425 394 OFFCURVE",
"453 405 OFFCURVE",
"463 438 CURVE",
"434 483 OFFCURVE",
"385 528 OFFCURVE",
"348 555 CURVE",
"336 537 OFFCURVE",
"327 514 OFFCURVE"
);
}
);
width = 599;
}
);
unicode = 0DAE;
},
{
glyphname = "da-sinhala";
lastChange = "2024-02-24 15:47:16 +0000";
layers = (
{
anchors = (
{
name = _cursive;
position = "{50, 0}";
}
);
layerId = "C18F3EFD-FA9C-4751-AD2F-5B966120D1A5";
paths = (
{
closed = 1;
nodes = (
"30 165 CURVE SMOOTH",
"30 268 OFFCURVE",
"102 310 OFFCURVE",
"218 310 CURVE SMOOTH",
"335 310 LINE",
"325 355 OFFCURVE",
"297 387 OFFCURVE",
"254 387 CURVE SMOOTH",
"235 387 OFFCURVE",
"220 375 OFFCURVE",
"211 357 CURVE SMOOTH",
"201 336 OFFCURVE",
"186 328 OFFCURVE",
"171 328 CURVE SMOOTH",
"147 328 OFFCURVE",
"134 342 OFFCURVE",
"134 363 CURVE SMOOTH",
"134 398 OFFCURVE",
"173 423 OFFCURVE",
"227 423 CURVE SMOOTH",
"311 423 OFFCURVE",
"352 380 OFFCURVE",
"370 287 CURVE",
"236 287 LINE SMOOTH",
"150 287 OFFCURVE",
"105 251 OFFCURVE",
"105 169 CURVE SMOOTH",
"105 87 OFFCURVE",
"174 26 OFFCURVE",
"255 26 CURVE SMOOTH",
"300 26 OFFCURVE",
"336 45 OFFCURVE",
"375 90 CURVE",
"397 73 LINE",
"367 38 OFFCURVE",
"299 -28 OFFCURVE",
"299 -102 CURVE SMOOTH",
"299 -166 OFFCURVE",
"337 -190 OFFCURVE",
"399 -205 CURVE",
"399 -232 LINE",
"385 -235 OFFCURVE",
"368 -236 OFFCURVE",
"347 -236 CURVE SMOOTH",
"278 -234 OFFCURVE",
"243 -195 OFFCURVE",
"243 -139 CURVE SMOOTH",
"243 -101 OFFCURVE",
"266 -52 OFFCURVE",
"312 10 CURVE",
"278 0 OFFCURVE",
"255 -1 OFFCURVE",
"229 -1 CURVE SMOOTH",
"101 -1 OFFCURVE",
"30 67 OFFCURVE"
);
}
);
width = 445;
}
);
unicode = 0DAF;
},
{
glyphname = "dha-sinhala";
lastChange = "2024-02-24 15:47:16 +0000";
layers = (
{
anchors = (
{
name = _cursive;
position = "{45, 0}";
}
);
layerId = "C18F3EFD-FA9C-4751-AD2F-5B966120D1A5";
paths = (
{
closed = 1;
nodes = (
"32 190 CURVE SMOOTH",
"32 281 OFFCURVE",
"84 356 OFFCURVE",
"148 378 CURVE SMOOTH",
"169 385 OFFCURVE",
"192 389 OFFCURVE",
"216 389 CURVE",
"216 364 LINE",
"213 364 OFFCURVE",
"209 364 OFFCURVE",
"206 364 CURVE SMOOTH",
"129 364 OFFCURVE",
"65 294 OFFCURVE",
"65 207 CURVE SMOOTH",
"65 133 OFFCURVE",
"113 69 OFFCURVE",
"184 69 CURVE SMOOTH",
"234 69 OFFCURVE",
"283 90 OFFCURVE",
"283 152 CURVE SMOOTH",
"283 191 LINE",
"311 191 LINE",
"311 152 LINE SMOOTH",
"311 90 OFFCURVE",
"359 69 OFFCURVE",
"407 69 CURVE SMOOTH",
"501 69 OFFCURVE",
"542 176 OFFCURVE",
"542 277 CURVE SMOOTH",
"542 431 OFFCURVE",
"431 543 OFFCURVE",
"287 543 CURVE SMOOTH",
"208 543 OFFCURVE",
"147 515 OFFCURVE",
"95 457 CURVE",
"63 457 LINE",
"119 530 OFFCURVE",
"195 566 OFFCURVE",
"292 566 CURVE SMOOTH",
"451 566 OFFCURVE",
"575 436 OFFCURVE",
"575 255 CURVE SMOOTH",
"575 136 OFFCURVE",
"535 0 OFFCURVE",
"412 0 CURVE SMOOTH",
"364 0 OFFCURVE",
"325 20 OFFCURVE",
"296 58 CURVE",
"266 20 OFFCURVE",
"230 0 OFFCURVE",
"186 0 CURVE SMOOTH",
"86 0 OFFCURVE",
"32 93 OFFCURVE"
);
}
);
width = 623;
}
);
unicode = 0DB0;
},
{
glyphname = "na-sinhala";
lastChange = "2024-02-24 15:47:16 +0000";
layers = (
{
anchors = (
{
name = _cursive;
position = "{76, 1}";
}
);
layerId = "C18F3EFD-FA9C-4751-AD2F-5B966120D1A5";
paths = (
{
closed = 1;
nodes = (
"26 121 CURVE",
"40 115 OFFCURVE",
"52 112 OFFCURVE",
"62 112 CURVE SMOOTH",
"122 112 OFFCURVE",
"127 196 OFFCURVE",
"202 271 CURVE",
"217 286 OFFCURVE",
"221 306 OFFCURVE",
"221 319 CURVE SMOOTH",
"221 356 OFFCURVE",
"205 380 OFFCURVE",
"172 380 CURVE SMOOTH",
"144 380 OFFCURVE",
"132 358 OFFCURVE",
"131 337 CURVE SMOOTH",
"130 318 OFFCURVE",
"122 290 OFFCURVE",
"91 290 CURVE SMOOTH",
"68 290 OFFCURVE",
"54 308 OFFCURVE",
"54 333 CURVE SMOOTH",
"54 374 OFFCURVE",
"87 421 OFFCURVE",
"150 421 CURVE SMOOTH",
"218 421 OFFCURVE",
"247 371 OFFCURVE",
"247 325 CURVE SMOOTH",
"247 324 OFFCURVE",
"247 315 OFFCURVE",
"245 308 CURVE",
"295 367 OFFCURVE",
"391 423 OFFCURVE",
"494 423 CURVE SMOOTH",
"631 423 OFFCURVE",
"742 327 OFFCURVE",
"742 179 CURVE SMOOTH",
"742 62 OFFCURVE",
"671 -1 OFFCURVE",
"599 -1 CURVE SMOOTH",
"568 -1 OFFCURVE",
"542 10 OFFCURVE",
"529 21 CURVE",
"529 51 LINE",
"552 30 OFFCURVE",
"578 25 OFFCURVE",
"596 25 CURVE SMOOTH",
"646 25 OFFCURVE",
"688 69 OFFCURVE",
"688 146 CURVE SMOOTH",
"688 287 OFFCURVE",
"557 361 OFFCURVE",
"438 361 CURVE SMOOTH",
"367 361 OFFCURVE",
"303 337 OFFCURVE",
"260 288 CURVE",
"285 297 OFFCURVE",
"310 301 OFFCURVE",
"337 301 CURVE SMOOTH",
"419 301 OFFCURVE",
"486 243 OFFCURVE",
"486 165 CURVE SMOOTH",
"486 52 OFFCURVE",
"389 -1 OFFCURVE",
"270 -1 CURVE SMOOTH",
"147 -1 OFFCURVE",
"65 40 OFFCURVE"
);
},
{
closed = 1;
nodes = (
"104 100 CURVE",
"149 80 OFFCURVE",
"201 70 OFFCURVE",
"258 70 CURVE SMOOTH",
"365 70 OFFCURVE",
"443 108 OFFCURVE",
"443 186 CURVE SMOOTH",
"443 241 OFFCURVE",
"390 277 OFFCURVE",
"330 277 CURVE SMOOTH",
"156 277 OFFCURVE",
"175 141 OFFCURVE"
);
}
);
width = 787;
}
);
unicode = 0DB1;
},
{
glyphname = "nda-sinhala";
lastChange = "2024-02-24 15:47:19 +0000";
layers = (
{
components = (
{
name = "da-sinhala";
transform = "{1, 0, 0, 1, 429, 0}";
}
);
layerId = "C18F3EFD-FA9C-4751-AD2F-5B966120D1A5";
paths = (
{
closed = 1;
nodes = (
"26 121 CURVE",
"40 115 OFFCURVE",
"52 112 OFFCURVE",
"62 112 CURVE SMOOTH",
"122 112 OFFCURVE",
"127 196 OFFCURVE",
"202 271 CURVE",
"217 286 OFFCURVE",
"221 306 OFFCURVE",
"221 319 CURVE SMOOTH",
"221 356 OFFCURVE",
"205 380 OFFCURVE",
"172 380 CURVE SMOOTH",
"144 380 OFFCURVE",
"132 358 OFFCURVE",
"131 337 CURVE SMOOTH",
"130 318 OFFCURVE",
"122 290 OFFCURVE",
"91 290 CURVE SMOOTH",
"68 290 OFFCURVE",
"54 308 OFFCURVE",
"54 333 CURVE SMOOTH",
"54 374 OFFCURVE",
"87 421 OFFCURVE",
"150 421 CURVE SMOOTH",
"218 421 OFFCURVE",
"247 371 OFFCURVE",
"247 325 CURVE SMOOTH",
"247 324 OFFCURVE",
"247 315 OFFCURVE",
"245 308 CURVE",
"301 361 OFFCURVE",
"391 426 OFFCURVE",
"577 426 CURVE SMOOTH",
"601 426 OFFCURVE",
"659 426 OFFCURVE",
"693 419 CURVE",
"592 398 LINE",
"583 398 OFFCURVE",
"581 399 OFFCURVE",
"571 399 CURVE SMOOTH",
"418 399 OFFCURVE",
"331 352 OFFCURVE",
"260 288 CURVE",
"285 297 OFFCURVE",
"310 301 OFFCURVE",
"337 301 CURVE SMOOTH",
"419 301 OFFCURVE",
"486 243 OFFCURVE",
"486 165 CURVE SMOOTH",
"486 52 OFFCURVE",
"389 -1 OFFCURVE",
"270 -1 CURVE SMOOTH",
"147 -1 OFFCURVE",
"65 40 OFFCURVE"
);
},
{
closed = 1;
nodes = (
"104 100 CURVE",
"149 80 OFFCURVE",
"201 70 OFFCURVE",
"258 70 CURVE SMOOTH",
"365 70 OFFCURVE",
"443 108 OFFCURVE",
"443 186 CURVE SMOOTH",
"443 241 OFFCURVE",
"390 277 OFFCURVE",
"330 277 CURVE SMOOTH",
"156 277 OFFCURVE",
"175 141 OFFCURVE"
);
}
);
width = 873;
}
);
unicode = 0DB3;
},
{
glyphname = "pa-sinhala";
lastChange = "2024-02-24 15:47:16 +0000";
layers = (
{
anchors = (
{
name = _cursive;
position = "{52, 0}";
}
);
layerId = "C18F3EFD-FA9C-4751-AD2F-5B966120D1A5";
paths = (
{
closed = 1;
nodes = (
"30 180 CURVE SMOOTH",
"30 269 OFFCURVE",
"97 319 OFFCURVE",
"202 319 CURVE SMOOTH",
"215 319 OFFCURVE",
"225 318 OFFCURVE",
"238 317 CURVE",
"238 321 OFFCURVE",
"239 324 OFFCURVE",
"239 328 CURVE SMOOTH",
"239 366 OFFCURVE",
"214 386 OFFCURVE",
"184 386 CURVE SMOOTH",
"153 386 OFFCURVE",
"141 371 OFFCURVE",
"136 352 CURVE SMOOTH",
"132 338 OFFCURVE",
"119 320 OFFCURVE",
"92 320 CURVE SMOOTH",
"73 320 OFFCURVE",
"54 332 OFFCURVE",
"54 356 CURVE SMOOTH",
"54 399 OFFCURVE",
"100 424 OFFCURVE",
"154 424 CURVE SMOOTH",
"224 424 OFFCURVE",
"269 391 OFFCURVE",
"269 326 CURVE SMOOTH",
"269 315 OFFCURVE",
"268 304 OFFCURVE",
"265 291 CURVE",
"247 293 OFFCURVE",
"213 295 OFFCURVE",
"212 295 CURVE SMOOTH",
"137 295 OFFCURVE",
"67 269 OFFCURVE",
"67 196 CURVE SMOOTH",
"67 104 OFFCURVE",
"189 69 OFFCURVE",
"300 69 CURVE SMOOTH",
"404 69 OFFCURVE",
"527 107 OFFCURVE",
"527 200 CURVE SMOOTH",
"527 271 OFFCURVE",
"461 297 OFFCURVE",
"385 297 CURVE SMOOTH",
"363 297 OFFCURVE",
"338 294 OFFCURVE",
"316 290 CURVE",
"314 301 OFFCURVE",
"313 310 OFFCURVE",
"313 320 CURVE SMOOTH",
"313 387 OFFCURVE",
"358 423 OFFCURVE",
"429 423 CURVE SMOOTH",
"493 423 OFFCURVE",
"528 384 OFFCURVE",
"528 346 CURVE SMOOTH",
"528 326 OFFCURVE",
"521 310 OFFCURVE",
"502 296 CURVE",
"541 273 OFFCURVE",
"561 235 OFFCURVE",
"561 182 CURVE SMOOTH",
"561 54 OFFCURVE",
"438 0 OFFCURVE",
"300 0 CURVE SMOOTH",
"155 0 OFFCURVE",
"30 45 OFFCURVE"
);
},
{
closed = 1;
nodes = (
"345 328 CURVE SMOOTH",
"345 324 OFFCURVE",
"345 321 OFFCURVE",
"346 317 CURVE",
"363 319 OFFCURVE",
"378 320 OFFCURVE",
"394 320 CURVE SMOOTH",
"426 320 OFFCURVE",
"454 317 OFFCURVE",
"478 308 CURVE",
"489 319 OFFCURVE",
"493 330 OFFCURVE",
"493 343 CURVE SMOOTH",
"493 371 OFFCURVE",
"468 396 OFFCURVE",
"422 396 CURVE SMOOTH",
"380 396 OFFCURVE",
"345 372 OFFCURVE"
);
}
);
width = 601;
}
);
unicode = 0DB4;
},
{
glyphname = "pha-sinhala";
lastChange = "2024-02-24 15:47:16 +0000";
layers = (
{
anchors = (
{
name = _cursive;
position = "{44, 0}";
}
);
layerId = "C18F3EFD-FA9C-4751-AD2F-5B966120D1A5";
paths = (
{
closed = 1;
nodes = (
"32 161 CURVE SMOOTH",
"32 263 OFFCURVE",
"114 302 OFFCURVE",
"224 302 CURVE SMOOTH",
"243 302 LINE",
"243 304 OFFCURVE",
"243 306 OFFCURVE",
"243 308 CURVE SMOOTH",
"243 350 OFFCURVE",
"214 386 OFFCURVE",
"178 386 CURVE SMOOTH",
"140 386 OFFCURVE",
"129 363 OFFCURVE",
"123 347 CURVE SMOOTH",
"116 328 OFFCURVE",
"107 315 OFFCURVE",
"86 315 CURVE SMOOTH",
"70 315 OFFCURVE",
"51 326 OFFCURVE",
"51 351 CURVE SMOOTH",
"51 397 OFFCURVE",
"99 422 OFFCURVE",
"153 422 CURVE SMOOTH",
"239 422 OFFCURVE",
"274 355 OFFCURVE",
"274 290 CURVE SMOOTH",
"274 287 OFFCURVE",
"274 280 OFFCURVE",
"274 277 CURVE",
"216 277 LINE SMOOTH",
"125 277 OFFCURVE",
"68 240 OFFCURVE",
"68 176 CURVE SMOOTH",
"68 92 OFFCURVE",
"173 69 OFFCURVE",
"261 69 CURVE SMOOTH",
"410 69 OFFCURVE",
"489 145 OFFCURVE",
"489 261 CURVE SMOOTH",
"489 317 OFFCURVE",
"472 367 OFFCURVE",
"448 402 CURVE",
"433 370 OFFCURVE",
"404 351 OFFCURVE",
"362 351 CURVE SMOOTH",
"300 351 OFFCURVE",
"265 405 OFFCURVE",
"265 469 CURVE SMOOTH",
"265 518 OFFCURVE",
"280 553 OFFCURVE",
"306 583 CURVE",
"366 551 OFFCURVE",
"435 481 OFFCURVE",
"470 420 CURVE SMOOTH",
"508 355 OFFCURVE",
"521 307 OFFCURVE",
"521 239 CURVE SMOOTH",
"521 114 OFFCURVE",
"437 0 OFFCURVE",
"258 0 CURVE SMOOTH",
"140 0 OFFCURVE",
"32 45 OFFCURVE"
);
},
{
closed = 1;
nodes = (
"294 473 CURVE SMOOTH",
"294 425 OFFCURVE",
"313 386 OFFCURVE",
"369 386 CURVE SMOOTH",
"392 386 OFFCURVE",
"420 397 OFFCURVE",
"430 430 CURVE",
"401 475 OFFCURVE",
"351 520 OFFCURVE",
"314 547 CURVE",
"302 529 OFFCURVE",
"294 507 OFFCURVE"
);
}
);
width = 565;
}
);
unicode = 0DB5;
},
{
glyphname = "ba-sinhala";
lastChange = "2024-02-24 15:47:16 +0000";
layers = (
{
anchors = (
{
name = _cursive;
position = "{39, 0}";
}
);
layerId = "C18F3EFD-FA9C-4751-AD2F-5B966120D1A5";
paths = (
{
closed = 1;
nodes = (
"101 74 CURVE SMOOTH",
"101 49 OFFCURVE",
"123 26 OFFCURVE",
"148 26 CURVE SMOOTH",
"184 26 OFFCURVE",
"196 49 OFFCURVE",
"196 74 CURVE SMOOTH",
"196 99 OFFCURVE",
"176 122 OFFCURVE",
"148 122 CURVE SMOOTH",
"123 122 OFFCURVE",
"101 99 OFFCURVE"
);
},
{
closed = 1;
nodes = (
"34 183 CURVE SMOOTH",
"34 307 OFFCURVE",
"119 387 OFFCURVE",
"243 387 CURVE SMOOTH",
"333 387 OFFCURVE",
"415 337 OFFCURVE",
"415 251 CURVE SMOOTH",
"415 123 OFFCURVE",
"299 163 OFFCURVE",
"299 99 CURVE SMOOTH",
"299 75 OFFCURVE",
"315 62 OFFCURVE",
"345 62 CURVE SMOOTH",
"453 62 OFFCURVE",
"520 198 OFFCURVE",
"520 306 CURVE SMOOTH",
"520 448 OFFCURVE",
"433 548 OFFCURVE",
"287 548 CURVE SMOOTH",
"195 548 OFFCURVE",
"132 518 OFFCURVE",
"94 459 CURVE",
"64 459 LINE",
"98 529 OFFCURVE",
"177 571 OFFCURVE",
"287 571 CURVE SMOOTH",
"461 571 OFFCURVE",
"564 454 OFFCURVE",
"564 277 CURVE SMOOTH",
"564 137 OFFCURVE",
"508 -2 OFFCURVE",
"374 -2 CURVE SMOOTH",
"315 -2 OFFCURVE",
"269 34 OFFCURVE",
"269 92 CURVE SMOOTH",
"269 182 OFFCURVE",
"381 152 OFFCURVE",
"381 231 CURVE SMOOTH",
"381 289 OFFCURVE",
"303 312 OFFCURVE",
"233 312 CURVE SMOOTH",
"144 312 OFFCURVE",
"64 261 OFFCURVE",
"64 158 CURVE SMOOTH",
"64 133 OFFCURVE",
"69 104 OFFCURVE",
"77 89 CURVE",
"81 123 OFFCURVE",
"111 149 OFFCURVE",
"148 149 CURVE SMOOTH",
"195 149 OFFCURVE",
"226 116 OFFCURVE",
"226 75 CURVE SMOOTH",
"226 28 OFFCURVE",
"191 -1 OFFCURVE",
"148 -1 CURVE SMOOTH",
"68 -1 OFFCURVE",
"34 89 OFFCURVE"
);
}
);
width = 604;
}
);
unicode = 0DB6;
},
{
glyphname = "bha-sinhala";
lastChange = "2024-02-24 15:47:16 +0000";
layers = (
{
anchors = (
{
name = _cursive;
position = "{24, 0}";
}
);
layerId = "C18F3EFD-FA9C-4751-AD2F-5B966120D1A5";
paths = (
{
closed = 1;
nodes = (
"6 265 CURVE",
"6 296 LINE",
"207 296 LINE",
"167 271 LINE",
"137 271 LINE SMOOTH",
"68 270 OFFCURVE",
"22 268 OFFCURVE"
);
},
{
closed = 1;
nodes = (
"48 151 CURVE SMOOTH",
"48 247 OFFCURVE",
"145 296 OFFCURVE",
"213 296 CURVE SMOOTH",
"217 296 OFFCURVE",
"213 296 OFFCURVE",
"217 296 CURVE",
"217 337 OFFCURVE",
"193 374 OFFCURVE",
"156 374 CURVE SMOOTH",
"135 374 OFFCURVE",
"125 363 OFFCURVE",
"119 348 CURVE SMOOTH",
"113 332 OFFCURVE",
"101 319 OFFCURVE",
"80 319 CURVE SMOOTH",
"60 319 OFFCURVE",
"48 333 OFFCURVE",
"48 355 CURVE SMOOTH",
"48 384 OFFCURVE",
"75 422 OFFCURVE",
"131 422 CURVE SMOOTH",
"208 422 OFFCURVE",
"248 351 OFFCURVE",
"249 271 CURVE",
"237 273 OFFCURVE",
"228 273 OFFCURVE",
"224 273 CURVE SMOOTH",
"160 273 OFFCURVE",
"84 239 OFFCURVE",
"84 171 CURVE SMOOTH",
"84 103 OFFCURVE",
"147 70 OFFCURVE",
"219 70 CURVE SMOOTH",
"283 70 OFFCURVE",
"338 98 OFFCURVE",
"338 160 CURVE SMOOTH",
"338 190 OFFCURVE",
"324 207 OFFCURVE",
"304 207 CURVE SMOOTH",
"291 207 OFFCURVE",
"278 199 OFFCURVE",
"271 178 CURVE",
"249 188 LINE",
"258 310 OFFCURVE",
"337 422 OFFCURVE",
"436 422 CURVE SMOOTH",
"545 422 OFFCURVE",
"606 321 OFFCURVE",
"606 206 CURVE SMOOTH",
"606 90 OFFCURVE",
"519 -1 OFFCURVE",
"399 -1 CURVE SMOOTH",
"386 -1 OFFCURVE",
"373 0 OFFCURVE",
"359 2 CURVE",
"359 28 LINE",
"371 26 OFFCURVE",
"383 25 OFFCURVE",
"395 25 CURVE SMOOTH",
"492 25 OFFCURVE",
"560 91 OFFCURVE",
"560 188 CURVE SMOOTH",
"560 281 OFFCURVE",
"509 354 OFFCURVE",
"420 354 CURVE SMOOTH",
"349 354 OFFCURVE",
"301 311 OFFCURVE",
"280 224 CURVE",
"290 230 OFFCURVE",
"300 231 OFFCURVE",
"309 231 CURVE SMOOTH",
"346 231 OFFCURVE",
"373 195 OFFCURVE",
"373 142 CURVE SMOOTH",
"373 52 OFFCURVE",
"304 -1 OFFCURVE",
"212 -1 CURVE SMOOTH",
"116 -1 OFFCURVE",
"48 59 OFFCURVE"
);
}
);
width = 654;
}
);
unicode = 0DB7;
},
{
glyphname = "ma-sinhala";
lastChange = "2024-02-24 15:47:16 +0000";
layers = (
{
anchors = (
{
name = _cursive;
position = "{47, 0}";
}
);
layerId = "C18F3EFD-FA9C-4751-AD2F-5B966120D1A5";
paths = (
{
closed = 1;
nodes = (
"258 344 CURVE SMOOTH",
"258 318 OFFCURVE",
"280 296 OFFCURVE",
"306 296 CURVE SMOOTH",
"332 296 OFFCURVE",
"354 318 OFFCURVE",
"354 344 CURVE SMOOTH",
"354 370 OFFCURVE",
"332 392 OFFCURVE",
"306 392 CURVE SMOOTH",
"280 392 OFFCURVE",
"258 370 OFFCURVE"
);
},
{
closed = 1;
nodes = (
"32 244 CURVE SMOOTH",
"32 331 OFFCURVE",
"77 422 OFFCURVE",
"152 422 CURVE SMOOTH",
"200 422 OFFCURVE",
"204 388 OFFCURVE",
"204 364 CURVE SMOOTH",
"204 338 OFFCURVE",
"199 330 OFFCURVE",
"199 295 CURVE SMOOTH",
"199 241 OFFCURVE",
"239 213 OFFCURVE",
"293 213 CURVE SMOOTH",
"352 213 OFFCURVE",
"392 249 OFFCURVE",
"392 307 CURVE SMOOTH",
"392 334 OFFCURVE",
"383 350 OFFCURVE",
"378 357 CURVE",
"380 347 OFFCURVE",
"380 343 OFFCURVE",
"380 335 CURVE SMOOTH",
"380 299 OFFCURVE",
"353 265 OFFCURVE",
"306 265 CURVE SMOOTH",
"256 265 OFFCURVE",
"228 308 OFFCURVE",
"228 343 CURVE SMOOTH",
"228 388 OFFCURVE",
"264 422 OFFCURVE",
"311 422 CURVE SMOOTH",
"378 422 OFFCURVE",
"421 373 OFFCURVE",
"421 299 CURVE SMOOTH",
"421 232 OFFCURVE",
"366 182 OFFCURVE",
"295 182 CURVE SMOOTH",
"236 182 OFFCURVE",
"169 211 OFFCURVE",
"169 288 CURVE SMOOTH",
"169 326 OFFCURVE",
"176 340 OFFCURVE",
"176 370 CURVE SMOOTH",
"176 382 OFFCURVE",
"171 396 OFFCURVE",
"150 396 CURVE SMOOTH",
"103 396 OFFCURVE",
"66 338 OFFCURVE",
"66 261 CURVE SMOOTH",
"66 131 OFFCURVE",
"169 69 OFFCURVE",
"301 69 CURVE SMOOTH",
"440 69 OFFCURVE",
"537 162 OFFCURVE",
"537 300 CURVE SMOOTH",
"537 434 OFFCURVE",
"434 547 OFFCURVE",
"296 547 CURVE SMOOTH",
"217 547 OFFCURVE",
"154 519 OFFCURVE",
"107 458 CURVE",
"76 458 LINE",
"124 531 OFFCURVE",
"204 572 OFFCURVE",
"295 572 CURVE SMOOTH",
"451 572 OFFCURVE",
"571 443 OFFCURVE",
"571 285 CURVE SMOOTH",
"571 107 OFFCURVE",
"464 0 OFFCURVE",
"303 0 CURVE SMOOTH",
"140 0 OFFCURVE",
"32 92 OFFCURVE"
);
}
);
width = 616;
}
);
unicode = 0DB8;
},
{
glyphname = "mba-sinhala";
lastChange = "2024-02-24 15:47:16 +0000";
layers = (
{
anchors = (
{
name = _cursive;
position = "{35, 2}";
}
);
layerId = "C18F3EFD-FA9C-4751-AD2F-5B966120D1A5";
paths = (
{
closed = 1;
nodes = (
"29 222 CURVE SMOOTH",
"29 325 OFFCURVE",
"73 422 OFFCURVE",
"145 422 CURVE SMOOTH",
"164 422 OFFCURVE",
"169 418 OFFCURVE",
"176 413 CURVE SMOOTH",
"187 405 OFFCURVE",
"194 391 OFFCURVE",
"194 362 CURVE SMOOTH",
"194 348 OFFCURVE",
"194 332 OFFCURVE",
"194 329 CURVE SMOOTH",
"194 277 OFFCURVE",
"234 247 OFFCURVE",
"288 247 CURVE SMOOTH",
"340 247 OFFCURVE",
"380 274 OFFCURVE",
"380 318 CURVE SMOOTH",
"380 319 OFFCURVE",
"380 321 OFFCURVE",
"379 323 CURVE",
"373 310 OFFCURVE",
"351 282 OFFCURVE",
"311 282 CURVE SMOOTH",
"265 282 OFFCURVE",
"239 317 OFFCURVE",
"239 352 CURVE SMOOTH",
"239 393 OFFCURVE",
"270 424 OFFCURVE",
"314 424 CURVE SMOOTH",
"372 424 OFFCURVE",
"408 380 OFFCURVE",
"408 322 CURVE SMOOTH",
"408 261 OFFCURVE",
"358 219 OFFCURVE",
"289 219 CURVE SMOOTH",
"220 219 OFFCURVE",
"168 261 OFFCURVE",
"168 331 CURVE SMOOTH",
"168 336 OFFCURVE",
"168 354 OFFCURVE",
"168 363 CURVE SMOOTH",
"168 383 OFFCURVE",
"164 396 OFFCURVE",
"142 396 CURVE SMOOTH",
"92 396 OFFCURVE",
"60 319 OFFCURVE",
"60 248 CURVE SMOOTH",
"60 155 OFFCURVE",
"106 70 OFFCURVE",
"187 70 CURVE SMOOTH",
"208 70 OFFCURVE",
"216 74 OFFCURVE",
"220 77 CURVE",
"218 85 OFFCURVE",
"217 98 OFFCURVE",
"217 105 CURVE SMOOTH",
"217 175 OFFCURVE",
"271 195 OFFCURVE",
"303 195 CURVE SMOOTH",
"335 195 OFFCURVE",
"389 175 OFFCURVE",
"389 105 CURVE SMOOTH",
"389 98 OFFCURVE",
"388 85 OFFCURVE",
"386 77 CURVE",
"390 74 OFFCURVE",
"398 70 OFFCURVE",
"419 70 CURVE SMOOTH",
"486 70 OFFCURVE",
"541 177 OFFCURVE",
"541 279 CURVE SMOOTH",
"541 423 OFFCURVE",
"447 543 OFFCURVE",
"291 543 CURVE SMOOTH",
"194 543 OFFCURVE",
"137 513 OFFCURVE",
"91 455 CURVE",
"61 455 LINE",
"105 518 OFFCURVE",
"169 565 OFFCURVE",
"293 565 CURVE SMOOTH",
"477 565 OFFCURVE",
"576 421 OFFCURVE",
"576 248 CURVE SMOOTH",
"576 124 OFFCURVE",
"517 0 OFFCURVE",
"404 0 CURVE SMOOTH",
"381 0 OFFCURVE",
"363 4 OFFCURVE",
"342 17 CURVE",
"342 29 OFFCURVE",
"345 38 OFFCURVE",
"348 49 CURVE SMOOTH",
"354 66 OFFCURVE",
"360 83 OFFCURVE",
"360 105 CURVE SMOOTH",
"360 138 OFFCURVE",
"337 167 OFFCURVE",
"303 167 CURVE SMOOTH",
"269 167 OFFCURVE",
"245 138 OFFCURVE",
"245 105 CURVE SMOOTH",
"245 83 OFFCURVE",
"252 68 OFFCURVE",
"257 51 CURVE SMOOTH",
"261 40 OFFCURVE",
"264 30 OFFCURVE",
"264 17 CURVE",
"243 4 OFFCURVE",
"224 0 OFFCURVE",
"201 0 CURVE SMOOTH",
"86 0 OFFCURVE",
"29 115 OFFCURVE"
);
},
{
closed = 1;
nodes = (
"268 354 CURVE SMOOTH",
"268 329 OFFCURVE",
"288 309 OFFCURVE",
"313 309 CURVE SMOOTH",
"338 309 OFFCURVE",
"359 329 OFFCURVE",
"359 354 CURVE SMOOTH",
"359 379 OFFCURVE",
"338 400 OFFCURVE",
"313 400 CURVE SMOOTH",
"288 400 OFFCURVE",
"268 379 OFFCURVE"
);
}
);
width = 621;
}
);
unicode = 0DB9;
},
{
glyphname = "ya-sinhala";
lastChange = "2024-02-24 15:47:16 +0000";
layers = (
{
anchors = (
{
name = _cursive;
position = "{41, 0}";
}
);
layerId = "C18F3EFD-FA9C-4751-AD2F-5B966120D1A5";
paths = (
{
closed = 1;
nodes = (
"29 181 CURVE SMOOTH",
"29 298 OFFCURVE",
"104 380 OFFCURVE",
"218 380 CURVE SMOOTH",
"228 380 OFFCURVE",
"236 379 OFFCURVE",
"245 378 CURVE",
"245 351 LINE",
"234 353 OFFCURVE",
"225 354 OFFCURVE",
"214 354 CURVE SMOOTH",
"127 354 OFFCURVE",
"62 291 OFFCURVE",
"62 207 CURVE SMOOTH",
"62 123 OFFCURVE",
"115 69 OFFCURVE",
"188 69 CURVE SMOOTH",
"236 69 OFFCURVE",
"288 95 OFFCURVE",
"288 143 CURVE SMOOTH",
"288 172 LINE",
"314 172 LINE",
"314 144 LINE SMOOTH",
"314 96 OFFCURVE",
"369 69 OFFCURVE",
"425 69 CURVE SMOOTH",
"505 69 OFFCURVE",
"542 118 OFFCURVE",
"542 182 CURVE SMOOTH",
"542 266 OFFCURVE",
"482 293 OFFCURVE",
"398 293 CURVE SMOOTH",
"369 293 OFFCURVE",
"340 289 OFFCURVE",
"314 282 CURVE",
"313 289 OFFCURVE",
"313 296 OFFCURVE",
"313 303 CURVE SMOOTH",
"313 380 OFFCURVE",
"358 423 OFFCURVE",
"440 423 CURVE SMOOTH",
"499 423 OFFCURVE",
"545 400 OFFCURVE",
"545 349 CURVE SMOOTH",
"545 330 OFFCURVE",
"535 305 OFFCURVE",
"509 296 CURVE",
"551 271 OFFCURVE",
"578 223 OFFCURVE",
"578 163 CURVE SMOOTH",
"578 69 OFFCURVE",
"516 -1 OFFCURVE",
"426 -1 CURVE SMOOTH",
"362 -1 OFFCURVE",
"320 24 OFFCURVE",
"300 69 CURVE",
"278 22 OFFCURVE",
"239 -1 OFFCURVE",
"182 -1 CURVE SMOOTH",
"83 -1 OFFCURVE",
"29 80 OFFCURVE"
);
},
{
closed = 1;
nodes = (
"342 312 CURVE",
"358 316 OFFCURVE",
"380 317 OFFCURVE",
"400 317 CURVE SMOOTH",
"435 317 OFFCURVE",
"464 314 OFFCURVE",
"485 307 CURVE",
"498 313 OFFCURVE",
"507 326 OFFCURVE",
"507 342 CURVE SMOOTH",
"507 373 OFFCURVE",
"474 388 OFFCURVE",
"440 388 CURVE SMOOTH",
"382 388 OFFCURVE",
"345 365 OFFCURVE"
);
}
);
width = 621;
}
);
unicode = 0DBA;
},
{
glyphname = "ra-sinhala";
lastChange = "2024-02-24 15:47:16 +0000";
layers = (
{
layerId = "C18F3EFD-FA9C-4751-AD2F-5B966120D1A5";
paths = (
{
closed = 1;
nodes = (
"30 208 CURVE SMOOTH",
"30 315 OFFCURVE",
"92 373 OFFCURVE",
"165 405 CURVE SMOOTH",
"221 429 OFFCURVE",
"316 452 OFFCURVE",
"401 514 CURVE SMOOTH",
"451 550 OFFCURVE",
"463 593 OFFCURVE",
"491 593 CURVE SMOOTH",
"504 593 OFFCURVE",
"514 586 OFFCURVE",
"514 575 CURVE SMOOTH",
"514 551 OFFCURVE",
"492 522 OFFCURVE",
"432 488 CURVE SMOOTH",
"396 467 OFFCURVE",
"327 436 OFFCURVE",
"284 424 CURVE",
"332 422 OFFCURVE",
"382 399 OFFCURVE",
"420 357 CURVE SMOOTH",
"455 318 OFFCURVE",
"471 275 OFFCURVE",
"471 220 CURVE SMOOTH",
"471 100 OFFCURVE",
"375 0 OFFCURVE",
"242 0 CURVE SMOOTH",
"121 0 OFFCURVE",
"30 87 OFFCURVE"
);
},
{
closed = 1;
nodes = (
"64 231 CURVE SMOOTH",
"64 140 OFFCURVE",
"129 71 OFFCURVE",
"234 71 CURVE SMOOTH",
"337 71 OFFCURVE",
"420 145 OFFCURVE",
"420 248 CURVE SMOOTH",
"420 348 OFFCURVE",
"348 401 OFFCURVE",
"258 401 CURVE SMOOTH",
"163 401 OFFCURVE",
"64 331 OFFCURVE"
);
}
);
width = 515;
}
);
unicode = 0DBB;
},
{
glyphname = "la-sinhala";
lastChange = "2024-02-24 15:47:16 +0000";
layers = (
{
anchors = (
{
name = _cursive;
position = "{43, 0}";
}
);
layerId = "C18F3EFD-FA9C-4751-AD2F-5B966120D1A5";
paths = (
{
closed = 1;
nodes = (
"30 132 CURVE SMOOTH",
"30 316 OFFCURVE",
"165 422 OFFCURVE",
"355 422 CURVE SMOOTH",
"476 422 OFFCURVE",
"597 383 OFFCURVE",
"597 273 CURVE SMOOTH",
"597 205 OFFCURVE",
"540 167 OFFCURVE",
"474 167 CURVE SMOOTH",
"408 167 OFFCURVE",
"359 207 OFFCURVE",
"359 275 CURVE",
"259 275 LINE",
"259 301 LINE",
"506 301 LINE",
"506 275 LINE",
"387 275 LINE",
"387 274 OFFCURVE",
"387 272 OFFCURVE",
"387 271 CURVE SMOOTH",
"387 236 OFFCURVE",
"428 211 OFFCURVE",
"475 211 CURVE SMOOTH",
"529 211 OFFCURVE",
"562 239 OFFCURVE",
"562 287 CURVE SMOOTH",
"562 364 OFFCURVE",
"477 395 OFFCURVE",
"361 395 CURVE SMOOTH",
"215 395 OFFCURVE",
"104 292 OFFCURVE",
"104 157 CURVE SMOOTH",
"104 -6 OFFCURVE",
"215 -108 OFFCURVE",
"372 -108 CURVE SMOOTH",
"476 -108 OFFCURVE",
"580 -49 OFFCURVE",
"580 64 CURVE SMOOTH",
"580 70 OFFCURVE",
"578 78 OFFCURVE",
"576 82 CURVE",
"609 82 LINE",
"609 77 OFFCURVE",
"609 73 OFFCURVE",
"609 68 CURVE SMOOTH",
"609 -71 OFFCURVE",
"489 -150 OFFCURVE",
"353 -150 CURVE SMOOTH",
"176 -150 OFFCURVE",
"30 -56 OFFCURVE"
);
}
);
width = 654;
}
);
unicode = 0DBD;
},
{
glyphname = "va-sinhala";
lastChange = "2024-02-24 15:47:16 +0000";
layers = (
{
anchors = (
{
name = _cursive;
position = "{46, 0}";
}
);
layerId = "C18F3EFD-FA9C-4751-AD2F-5B966120D1A5";
paths = (
{
closed = 1;
nodes = (
"143 0 OFFCURVE",
"32 45 OFFCURVE",
"32 161 CURVE SMOOTH",
"32 244 OFFCURVE",
"95 297 OFFCURVE",
"194 297 CURVE SMOOTH",
"254 297 LINE",
"254 299 OFFCURVE",
"254 299 OFFCURVE",
"254 301 CURVE SMOOTH",
"254 354 OFFCURVE",
"221 386 OFFCURVE",
"185 386 CURVE SMOOTH",
"141 386 OFFCURVE",
"133 363 OFFCURVE",
"127 347 CURVE SMOOTH",
"120 328 OFFCURVE",
"111 315 OFFCURVE",
"90 315 CURVE SMOOTH",
"74 315 OFFCURVE",
"55 326 OFFCURVE",
"55 351 CURVE SMOOTH",
"55 397 OFFCURVE",
"103 422 OFFCURVE",
"157 422 CURVE SMOOTH",
"243 422 OFFCURVE",
"285 367 OFFCURVE",
"285 283 CURVE SMOOTH",
"285 280 OFFCURVE",
"285 276 OFFCURVE",
"285 273 CURVE",
"197 273 LINE SMOOTH",
"125 273 OFFCURVE",
"66 239 OFFCURVE",
"66 176 CURVE SMOOTH",
"66 92 OFFCURVE",
"176 69 OFFCURVE",
"264 69 CURVE SMOOTH",
"413 69 OFFCURVE",
"502 154 OFFCURVE",
"502 293 CURVE SMOOTH",
"502 432 OFFCURVE",
"401 540 OFFCURVE",
"270 540 CURVE SMOOTH",
"193 540 OFFCURVE",
"131 513 OFFCURVE",
"87 459 CURVE",
"56 459 LINE",
"104 527 OFFCURVE",
"174 563 OFFCURVE",
"270 563 CURVE SMOOTH",
"426 563 OFFCURVE",
"535 433 OFFCURVE",
"535 268 CURVE SMOOTH",
"535 112 OFFCURVE",
"440 0 OFFCURVE",
"261 0 CURVE SMOOTH"
);
}
);
width = 583;
}
);
unicode = 0DC0;
},
{
glyphname = "sha-sinhala";
lastChange = "2024-02-24 15:47:16 +0000";
layers = (
{
anchors = (
{
name = _cursive;
position = "{43, 0}";
}
);
layerId = "C18F3EFD-FA9C-4751-AD2F-5B966120D1A5";
paths = (
{
closed = 1;
nodes = (
"33 201 CURVE SMOOTH",
"33 326 OFFCURVE",
"105 422 OFFCURVE",
"229 422 CURVE SMOOTH",
"233 422 OFFCURVE",
"242 421 OFFCURVE",
"245 421 CURVE",
"245 398 LINE",
"241 398 OFFCURVE",
"236 398 OFFCURVE",
"232 398 CURVE SMOOTH",
"136 398 OFFCURVE",
"65 332 OFFCURVE",
"65 225 CURVE SMOOTH",
"65 143 OFFCURVE",
"109 68 OFFCURVE",
"197 68 CURVE SMOOTH",
"248 68 OFFCURVE",
"302 97 OFFCURVE",
"302 153 CURVE SMOOTH",
"302 192 OFFCURVE",
"283 213 OFFCURVE",
"253 213 CURVE SMOOTH",
"247 213 OFFCURVE",
"239 212 OFFCURVE",
"231 206 CURVE",
"229 201 OFFCURVE",
"229 193 OFFCURVE",
"228 188 CURVE",
"203 188 LINE",
"217 321 OFFCURVE",
"270 422 OFFCURVE",
"390 422 CURVE SMOOTH",
"511 422 OFFCURVE",
"568 304 OFFCURVE",
"568 191 CURVE SMOOTH",
"568 125 OFFCURVE",
"545 36 OFFCURVE",
"517 1 CURVE",
"490 1 LINE",
"493 6 OFFCURVE",
"495 10 OFFCURVE",
"495 14 CURVE SMOOTH",
"495 21 OFFCURVE",
"491 23 OFFCURVE",
"484 23 CURVE SMOOTH",
"463 23 OFFCURVE",
"454 -3 OFFCURVE",
"417 -3 CURVE SMOOTH",
"381 -3 OFFCURVE",
"358 35 OFFCURVE",
"358 73 CURVE SMOOTH",
"358 135 OFFCURVE",
"404 180 OFFCURVE",
"473 180 CURVE SMOOTH",
"490 180 OFFCURVE",
"510 176 OFFCURVE",
"521 172 CURVE",
"521 266 OFFCURVE",
"465 361 OFFCURVE",
"374 361 CURVE SMOOTH",
"300 361 OFFCURVE",
"246 306 OFFCURVE",
"234 232 CURVE",
"241 235 OFFCURVE",
"249 236 OFFCURVE",
"256 236 CURVE SMOOTH",
"303 236 OFFCURVE",
"335 203 OFFCURVE",
"335 135 CURVE SMOOTH",
"335 61 OFFCURVE",
"282 -1 OFFCURVE",
"193 -1 CURVE SMOOTH",
"89 -1 OFFCURVE",
"33 90 OFFCURVE"
);
},
{
closed = 1;
nodes = (
"389 77 CURVE SMOOTH",
"389 50 OFFCURVE",
"399 26 OFFCURVE",
"423 26 CURVE SMOOTH",
"447 26 OFFCURVE",
"468 52 OFFCURVE",
"488 52 CURVE SMOOTH",
"496 52 OFFCURVE",
"504 48 OFFCURVE",
"507 41 CURVE",
"516 63 OFFCURVE",
"519 94 OFFCURVE",
"521 119 CURVE SMOOTH",
"522 128 OFFCURVE",
"521 137 OFFCURVE",
"521 144 CURVE",
"507 152 OFFCURVE",
"492 154 OFFCURVE",
"471 154 CURVE SMOOTH",
"422 154 OFFCURVE",
"389 122 OFFCURVE"
);
}
);
width = 616;
}
);
unicode = 0DC1;
},
{
glyphname = "ssa-sinhala";
lastChange = "2024-02-24 15:47:16 +0000";
layers = (
{
anchors = (
{
name = _cursive;
position = "{45, 0}";
}
);
layerId = "C18F3EFD-FA9C-4751-AD2F-5B966120D1A5";
paths = (
{
closed = 1;
nodes = (
"30 180 CURVE SMOOTH",
"30 269 OFFCURVE",
"97 319 OFFCURVE",
"202 319 CURVE SMOOTH",
"215 319 OFFCURVE",
"225 318 OFFCURVE",
"238 317 CURVE",
"238 321 OFFCURVE",
"239 324 OFFCURVE",
"239 328 CURVE SMOOTH",
"239 366 OFFCURVE",
"214 386 OFFCURVE",
"184 386 CURVE SMOOTH",
"153 386 OFFCURVE",
"141 371 OFFCURVE",
"136 352 CURVE SMOOTH",
"132 338 OFFCURVE",
"119 320 OFFCURVE",
"92 320 CURVE SMOOTH",
"73 320 OFFCURVE",
"54 332 OFFCURVE",
"54 356 CURVE SMOOTH",
"54 399 OFFCURVE",
"100 424 OFFCURVE",
"154 424 CURVE SMOOTH",
"224 424 OFFCURVE",
"269 391 OFFCURVE",
"269 326 CURVE SMOOTH",
"269 315 OFFCURVE",
"268 304 OFFCURVE",
"265 291 CURVE",
"247 293 OFFCURVE",
"213 295 OFFCURVE",
"212 295 CURVE SMOOTH",
"137 295 OFFCURVE",
"67 269 OFFCURVE",
"67 196 CURVE SMOOTH",
"67 104 OFFCURVE",
"189 69 OFFCURVE",
"300 69 CURVE SMOOTH",
"404 69 OFFCURVE",
"527 107 OFFCURVE",
"527 200 CURVE SMOOTH",
"527 271 OFFCURVE",
"461 297 OFFCURVE",
"385 297 CURVE SMOOTH",
"363 297 OFFCURVE",
"338 294 OFFCURVE",
"316 290 CURVE",
"314 301 OFFCURVE",
"313 310 OFFCURVE",
"313 320 CURVE SMOOTH",
"313 387 OFFCURVE",
"358 423 OFFCURVE",
"429 423 CURVE SMOOTH",
"493 423 OFFCURVE",
"528 384 OFFCURVE",
"528 346 CURVE SMOOTH",
"528 326 OFFCURVE",
"521 310 OFFCURVE",
"502 296 CURVE",
"541 273 OFFCURVE",
"561 235 OFFCURVE",
"561 182 CURVE SMOOTH",
"561 54 OFFCURVE",
"438 0 OFFCURVE",
"300 0 CURVE SMOOTH",
"155 0 OFFCURVE",
"30 45 OFFCURVE"
);
},
{
closed = 1;
nodes = (
"345 328 CURVE SMOOTH",
"345 324 OFFCURVE",
"345 321 OFFCURVE",
"346 317 CURVE",
"363 319 OFFCURVE",
"378 320 OFFCURVE",
"394 320 CURVE SMOOTH",
"426 320 OFFCURVE",
"454 317 OFFCURVE",
"478 308 CURVE",
"489 319 OFFCURVE",
"493 330 OFFCURVE",
"493 343 CURVE SMOOTH",
"493 371 OFFCURVE",
"468 396 OFFCURVE",
"422 396 CURVE SMOOTH",
"380 396 OFFCURVE",
"345 372 OFFCURVE"
);
},
{
closed = 1;
nodes = (
"168 193 CURVE SMOOTH",
"168 220 OFFCURVE",
"187 248 OFFCURVE",
"281 248 CURVE SMOOTH",
"303 248 OFFCURVE",
"350 249 OFFCURVE",
"380 255 CURVE SMOOTH",
"418 262 OFFCURVE",
"449 280 OFFCURVE",
"458 289 CURVE",
"489 282 LINE",
"468 261 OFFCURVE",
"430 242 OFFCURVE",
"390 234 CURVE",
"409 225 OFFCURVE",
"422 211 OFFCURVE",
"422 192 CURVE SMOOTH",
"422 148 OFFCURVE",
"366 132 OFFCURVE",
"289 132 CURVE SMOOTH",
"234 132 OFFCURVE",
"168 145 OFFCURVE"
);
},
{
closed = 1;
nodes = (
"197 193 CURVE SMOOTH",
"197 171 OFFCURVE",
"229 157 OFFCURVE",
"292 157 CURVE SMOOTH",
"358 157 OFFCURVE",
"393 171 OFFCURVE",
"393 192 CURVE SMOOTH",
"393 216 OFFCURVE",
"359 227 OFFCURVE",
"291 227 CURVE SMOOTH",
"228 227 OFFCURVE",
"197 214 OFFCURVE"
);
}
);
width = 583;
}
);
unicode = 0DC2;
},
{
glyphname = "sa-sinhala";
lastChange = "2024-02-24 15:47:16 +0000";
layers = (
{
anchors = (
{
name = _cursive;
position = "{70, 0}";
}
);
layerId = "C18F3EFD-FA9C-4751-AD2F-5B966120D1A5";
paths = (
{
closed = 1;
nodes = (
"50 150 CURVE SMOOTH",
"50 220 OFFCURVE",
"90 262 OFFCURVE",
"141 278 CURVE",
"174 290 OFFCURVE",
"227 301 OFFCURVE",
"263 301 CURVE SMOOTH",
"276 301 LINE",
"276 303 OFFCURVE",
"276 302 OFFCURVE",
"276 304 CURVE SMOOTH",
"276 349 OFFCURVE",
"245 386 OFFCURVE",
"209 386 CURVE SMOOTH",
"169 386 OFFCURVE",
"158 363 OFFCURVE",
"152 347 CURVE SMOOTH",
"145 328 OFFCURVE",
"136 315 OFFCURVE",
"115 315 CURVE SMOOTH",
"99 315 OFFCURVE",
"80 326 OFFCURVE",
"80 351 CURVE SMOOTH",
"80 397 OFFCURVE",
"129 422 OFFCURVE",
"183 422 CURVE SMOOTH",
"269 422 OFFCURVE",
"306 360 OFFCURVE",
"306 289 CURVE SMOOTH",
"306 286 OFFCURVE",
"306 279 OFFCURVE",
"306 276 CURVE",
"211 276 LINE SMOOTH",
"159 276 OFFCURVE",
"87 242 OFFCURVE",
"87 171 CURVE SMOOTH",
"87 113 OFFCURVE",
"139 69 OFFCURVE",
"207 69 CURVE SMOOTH",
"262 69 OFFCURVE",
"313 99 OFFCURVE",
"313 148 CURVE SMOOTH",
"313 178 LINE",
"340 178 LINE",
"340 148 LINE SMOOTH",
"340 93 OFFCURVE",
"399 69 OFFCURVE",
"460 69 CURVE SMOOTH",
"527 69 OFFCURVE",
"577 112 OFFCURVE",
"577 178 CURVE SMOOTH",
"577 255 OFFCURVE",
"523 284 OFFCURVE",
"439 284 CURVE SMOOTH",
"408 284 OFFCURVE",
"382 282 OFFCURVE",
"345 275 CURVE",
"345 279 OFFCURVE",
"345 280 OFFCURVE",
"345 284 CURVE SMOOTH",
"345 366 OFFCURVE",
"392 422 OFFCURVE",
"465 422 CURVE SMOOTH",
"518 422 OFFCURVE",
"565 399 OFFCURVE",
"565 342 CURVE SMOOTH",
"565 321 OFFCURVE",
"552 299 OFFCURVE",
"537 290 CURVE",
"583 268 OFFCURVE",
"613 216 OFFCURVE",
"613 162 CURVE SMOOTH",
"613 57 OFFCURVE",
"545 0 OFFCURVE",
"449 0 CURVE SMOOTH",
"386 0 OFFCURVE",
"344 30 OFFCURVE",
"325 80 CURVE",
"304 29 OFFCURVE",
"264 -1 OFFCURVE",
"198 -1 CURVE SMOOTH",
"105 -1 OFFCURVE",
"50 74 OFFCURVE"
);
},
{
closed = 1;
nodes = (
"5 270 CURVE",
"5 301 LINE",
"274 301 LINE",
"302 276 LINE",
"144 276 LINE SMOOTH",
"75 275 OFFCURVE",
"21 273 OFFCURVE"
);
},
{
closed = 1;
nodes = (
"373 303 CURVE",
"384 306 OFFCURVE",
"412 309 OFFCURVE",
"435 309 CURVE SMOOTH",
"468 309 OFFCURVE",
"492 306 OFFCURVE",
"513 299 CURVE",
"525 312 OFFCURVE",
"527 326 OFFCURVE",
"527 338 CURVE SMOOTH",
"527 370 OFFCURVE",
"494 384 OFFCURVE",
"459 384 CURVE SMOOTH",
"408 384 OFFCURVE",
"378 357 OFFCURVE"
);
}
);
width = 661;
}
);
unicode = 0DC3;
},
{
glyphname = "ha-sinhala";
lastChange = "2024-02-24 15:47:16 +0000";
layers = (
{
anchors = (
{
name = _cursive;
position = "{42, 0}";
}
);
layerId = "C18F3EFD-FA9C-4751-AD2F-5B966120D1A5";
paths = (
{
closed = 1;
nodes = (
"32 151 CURVE SMOOTH",
"32 240 OFFCURVE",
"97 296 OFFCURVE",
"189 296 CURVE SMOOTH",
"193 296 OFFCURVE",
"197 296 OFFCURVE",
"201 296 CURVE",
"201 337 OFFCURVE",
"178 374 OFFCURVE",
"141 374 CURVE SMOOTH",
"120 374 OFFCURVE",
"110 363 OFFCURVE",
"104 348 CURVE SMOOTH",
"98 332 OFFCURVE",
"85 319 OFFCURVE",
"64 319 CURVE SMOOTH",
"44 319 OFFCURVE",
"32 333 OFFCURVE",
"32 355 CURVE SMOOTH",
"32 384 OFFCURVE",
"59 422 OFFCURVE",
"115 422 CURVE SMOOTH",
"192 422 OFFCURVE",
"232 351 OFFCURVE",
"233 271 CURVE",
"221 272 OFFCURVE",
"211 273 OFFCURVE",
"200 273 CURVE SMOOTH",
"122 273 OFFCURVE",
"68 239 OFFCURVE",
"68 171 CURVE SMOOTH",
"68 103 OFFCURVE",
"131 70 OFFCURVE",
"203 70 CURVE SMOOTH",
"267 70 OFFCURVE",
"322 98 OFFCURVE",
"322 160 CURVE SMOOTH",
"322 190 OFFCURVE",
"308 207 OFFCURVE",
"288 207 CURVE SMOOTH",
"275 207 OFFCURVE",
"262 199 OFFCURVE",
"255 178 CURVE",
"233 188 LINE",
"242 310 OFFCURVE",
"321 422 OFFCURVE",
"420 422 CURVE SMOOTH",
"529 422 OFFCURVE",
"591 321 OFFCURVE",
"591 206 CURVE SMOOTH",
"591 90 OFFCURVE",
"504 -1 OFFCURVE",
"384 -1 CURVE SMOOTH",
"371 -1 OFFCURVE",
"358 0 OFFCURVE",
"344 2 CURVE",
"344 28 LINE",
"356 26 OFFCURVE",
"367 25 OFFCURVE",
"379 25 CURVE SMOOTH",
"476 25 OFFCURVE",
"544 91 OFFCURVE",
"544 188 CURVE SMOOTH",
"544 281 OFFCURVE",
"493 354 OFFCURVE",
"404 354 CURVE SMOOTH",
"333 354 OFFCURVE",
"286 311 OFFCURVE",
"265 224 CURVE",
"275 230 OFFCURVE",
"284 231 OFFCURVE",
"293 231 CURVE SMOOTH",
"330 231 OFFCURVE",
"357 195 OFFCURVE",
"357 142 CURVE SMOOTH",
"357 52 OFFCURVE",
"288 -1 OFFCURVE",
"196 -1 CURVE SMOOTH",
"100 -1 OFFCURVE",
"32 59 OFFCURVE"
);
}
);
width = 637;
}
);
unicode = 0DC4;
},
{
glyphname = "lla-sinhala";
lastChange = "2024-02-24 15:47:16 +0000";
layers = (
{
anchors = (
{
name = _cursive;
position = "{49, 0}";
}
);
layerId = "C18F3EFD-FA9C-4751-AD2F-5B966120D1A5";
paths = (
{
closed = 1;
nodes = (
"30 111 CURVE SMOOTH",
"30 187 OFFCURVE",
"78 290 OFFCURVE",
"175 290 CURVE SMOOTH",
"529 290 LINE",
"529 344 OFFCURVE",
"498 394 OFFCURVE",
"434 394 CURVE SMOOTH",
"389 394 OFFCURVE",
"355 357 OFFCURVE",
"355 322 CURVE",
"325 322 LINE",
"325 357 OFFCURVE",
"295 395 OFFCURVE",
"253 395 CURVE SMOOTH",
"198 395 OFFCURVE",
"153 354 OFFCURVE",
"153 270 CURVE SMOOTH",
"153 161 OFFCURVE",
"237 102 OFFCURVE",
"326 102 CURVE SMOOTH",
"406 102 OFFCURVE",
"460 126 OFFCURVE",
"485 166 CURVE",
"514 166 LINE",
"491 89 OFFCURVE",
"427 42 OFFCURVE",
"326 42 CURVE SMOOTH",
"213 42 OFFCURVE",
"123 135 OFFCURVE",
"123 268 CURVE SMOOTH",
"123 365 OFFCURVE",
"183 422 OFFCURVE",
"254 422 CURVE SMOOTH",
"289 422 OFFCURVE",
"325 405 OFFCURVE",
"341 368 CURVE",
"359 405 OFFCURVE",
"400 422 OFFCURVE",
"435 422 CURVE SMOOTH",
"520 422 OFFCURVE",
"562 354 OFFCURVE",
"562 265 CURVE",
"188 265 LINE SMOOTH",
"147 265 OFFCURVE",
"94 229 OFFCURVE",
"94 139 CURVE SMOOTH",
"94 -11 OFFCURVE",
"218 -105 OFFCURVE",
"364 -105 CURVE SMOOTH",
"474 -105 OFFCURVE",
"574 -30 OFFCURVE",
"577 72 CURVE",
"604 72 LINE",
"604 -67 OFFCURVE",
"461 -149 OFFCURVE",
"335 -149 CURVE SMOOTH",
"164 -149 OFFCURVE",
"30 -56 OFFCURVE"
);
}
);
width = 621;
}
);
unicode = 0DC5;
},
{
glyphname = "fa-sinhala";
lastChange = "2024-02-24 15:47:16 +0000";
layers = (
{
anchors = (
{
name = _cursive;
position = "{43, 0}";
}
);
layerId = "C18F3EFD-FA9C-4751-AD2F-5B966120D1A5";
paths = (
{
closed = 1;
nodes = (
"32 207 CURVE SMOOTH",
"32 309 OFFCURVE",
"77 421 OFFCURVE",
"182 421 CURVE SMOOTH",
"241 421 OFFCURVE",
"273 389 OFFCURVE",
"289 351 CURVE",
"305 389 OFFCURVE",
"337 421 OFFCURVE",
"396 421 CURVE SMOOTH",
"501 421 OFFCURVE",
"546 309 OFFCURVE",
"546 207 CURVE SMOOTH",
"546 107 OFFCURVE",
"499 -1 OFFCURVE",
"400 -1 CURVE SMOOTH",
"388 -1 OFFCURVE",
"376 1 OFFCURVE",
"363 6 CURVE",
"363 31 LINE",
"374 27 OFFCURVE",
"385 25 OFFCURVE",
"396 25 CURVE SMOOTH",
"465 25 OFFCURVE",
"512 96 OFFCURVE",
"512 191 CURVE SMOOTH",
"512 275 OFFCURVE",
"482 352 OFFCURVE",
"398 352 CURVE SMOOTH",
"347 352 OFFCURVE",
"305 326 OFFCURVE",
"305 257 CURVE SMOOTH",
"305 217 LINE",
"273 217 LINE",
"273 257 LINE SMOOTH",
"273 326 OFFCURVE",
"231 352 OFFCURVE",
"180 352 CURVE SMOOTH",
"96 352 OFFCURVE",
"66 275 OFFCURVE",
"66 191 CURVE SMOOTH",
"66 96 OFFCURVE",
"114 25 OFFCURVE",
"183 25 CURVE SMOOTH",
"194 25 OFFCURVE",
"204 27 OFFCURVE",
"215 31 CURVE",
"215 6 LINE",
"202 1 OFFCURVE",
"190 -1 OFFCURVE",
"178 -1 CURVE SMOOTH",
"79 -1 OFFCURVE",
"32 107 OFFCURVE"
);
}
);
width = 592;
}
);
unicode = 0DC6;
},
{
glyphname = "virama-sinhala";
lastChange = "2024-02-24 15:47:15 +0000";
layers = (
{
layerId = "C18F3EFD-FA9C-4751-AD2F-5B966120D1A5";
paths = (
{
closed = 1;
nodes = (
"-137 340 LINE",
"-137 665 LINE",
"-84 624 OFFCURVE",
"10 619 OFFCURVE",
"10 529 CURVE SMOOTH",
"10 486 OFFCURVE",
"-24 457 OFFCURVE",
"-66 457 CURVE SMOOTH",
"-81 457 OFFCURVE",
"-95 460 OFFCURVE",
"-110 467 CURVE",
"-110 323 LINE"
);
},
{
closed = 1;
nodes = (
"-110 491 LINE",
"-101 486 OFFCURVE",
"-91 484 OFFCURVE",
"-78 484 CURVE SMOOTH",
"-41 484 OFFCURVE",
"-26 509 OFFCURVE",
"-26 532 CURVE SMOOTH",
"-26 573 OFFCURVE",
"-64 593 OFFCURVE",
"-110 623 CURVE"
);
}
);
width = 1;
}
);
category = Mark;
},
{
glyphname = "candrabindu-sinhala";
lastChange = "2024-02-24 15:47:17 +0000";
layers = (
{
layerId = "C18F3EFD-FA9C-4751-AD2F-5B966120D1A5";
paths = (
{
closed = 1;
nodes = (
"-431 615 OFFCURVE",
"-492 679 OFFCURVE",
"-492 756 CURVE",
"-476 756 LINE",
"-466 697 OFFCURVE",
"-410 653 OFFCURVE",
"-311 653 CURVE SMOOTH",
"-223 653 OFFCURVE",
"-167 697 OFFCURVE",
"-157 756 CURVE",
"-141 756 LINE",
"-141 679 OFFCURVE",
"-203 615 OFFCURVE",
"-311 615 CURVE SMOOTH"
);
},
{
closed = 1;
nodes = (
"-295 701 OFFCURVE",
"-281 715 OFFCURVE",
"-281 733 CURVE SMOOTH",
"-281 751 OFFCURVE",
"-295 765 OFFCURVE",
"-313 765 CURVE SMOOTH",
"-330 765 OFFCURVE",
"-345 751 OFFCURVE",
"-345 733 CURVE SMOOTH",
"-345 715 OFFCURVE",
"-330 701 OFFCURVE",
"-313 701 CURVE SMOOTH"
);
}
);
width = 0;
}
);
},
{
glyphname = "zerolith-sinhala";
lastChange = "2024-02-24 15:47:16 +0000";
layers = (
{
layerId = "C18F3EFD-FA9C-4751-AD2F-5B966120D1A5";
paths = (
{
closed = 1;
nodes = (
"91 108 LINE",
"91 523 LINE",
"144 502 OFFCURVE",
"248 487 OFFCURVE",
"248 397 CURVE SMOOTH",
"248 354 OFFCURVE",
"224 314 OFFCURVE",
"162 314 CURVE SMOOTH",
"147 314 OFFCURVE",
"133 318 OFFCURVE",
"118 325 CURVE",
"118 99 LINE"
);
},
{
closed = 1;
nodes = (
"118 349 LINE",
"127 344 OFFCURVE",
"137 341 OFFCURVE",
"150 341 CURVE SMOOTH",
"187 341 OFFCURVE",
"202 367 OFFCURVE",
"202 394 CURVE SMOOTH",
"202 431 OFFCURVE",
"174 462 OFFCURVE",
"118 484 CURVE"
);
},
{
closed = 1;
nodes = (
"90 603 LINE",
"44 593 OFFCURVE",
"36 573 OFFCURVE",
"36 560 CURVE SMOOTH",
"36 537 OFFCURVE",
"66 525 OFFCURVE",
"109 514 CURVE",
"100 491 LINE",
"67 501 OFFCURVE",
"12 520 OFFCURVE",
"12 560 CURVE SMOOTH",
"12 610 OFFCURVE",
"64 612 OFFCURVE",
"117 643 CURVE",
"118 40 LINE",
"90 39 LINE",
"91 507 LINE"
);
}
);
width = 296;
},
{
associatedMasterId = "C18F3EFD-FA9C-4751-AD2F-5B966120D1A5";
background = {
paths = (
{
closed = 1;
nodes = (
"120 603 LINE",
"74 593 OFFCURVE",
"66 573 OFFCURVE",
"66 562 CURVE SMOOTH",
"66 529 OFFCURVE",
"127 516 OFFCURVE",
"136 520 CURVE",
"125 497 LINE",
"112 492 OFFCURVE",
"30 507 OFFCURVE",
"30 563 CURVE SMOOTH",
"30 620 OFFCURVE",
"94 614 OFFCURVE",
"147 645 CURVE",
"148 134 LINE",
"120 133 LINE",
"121 509 LINE"
);
},
{
closed = 1;
nodes = (
"121 210 LINE",
"121 525 LINE",
"174 504 OFFCURVE",
"288 489 OFFCURVE",
"288 399 CURVE SMOOTH",
"288 356 OFFCURVE",
"254 317 OFFCURVE",
"192 317 CURVE SMOOTH",
"177 317 OFFCURVE",
"163 320 OFFCURVE",
"148 327 CURVE",
"148 193 LINE"
);
},
{
closed = 1;
nodes = (
"148 351 LINE",
"157 346 OFFCURVE",
"167 344 OFFCURVE",
"180 344 CURVE SMOOTH",
"217 344 OFFCURVE",
"222 369 OFFCURVE",
"222 392 CURVE SMOOTH",
"222 433 OFFCURVE",
"194 453 OFFCURVE",
"148 483 CURVE"
);
}
);
};
layerId = "AA78C373-A874-4B43-A7A1-B39102DDD1E4";
name = Bold;
paths = (
{
closed = 1;
nodes = (
"121 150 LINE",
"121 525 LINE",
"174 504 OFFCURVE",
"293 489 OFFCURVE",
"293 399 CURVE SMOOTH",
"293 348 OFFCURVE",
"251 315 OFFCURVE",
"202 315 CURVE SMOOTH",
"183 315 OFFCURVE",
"163 320 OFFCURVE",
"148 327 CURVE",
"148 133 LINE"
);
},
{
closed = 1;
nodes = (
"148 351 LINE",
"157 346 OFFCURVE",
"167 344 OFFCURVE",
"180 344 CURVE SMOOTH",
"217 344 OFFCURVE",
"227 376 OFFCURVE",
"227 396 CURVE SMOOTH",
"227 425 OFFCURVE",
"213 454 OFFCURVE",
"148 483 CURVE"
);
},
{
closed = 1;
nodes = (
"120 603 LINE",
"74 593 OFFCURVE",
"66 575 OFFCURVE",
"66 562 CURVE SMOOTH",
"66 539 OFFCURVE",
"96 527 OFFCURVE",
"139 516 CURVE",
"130 490 LINE",
"102 501 OFFCURVE",
"30 516 OFFCURVE",
"30 562 CURVE SMOOTH",
"30 619 OFFCURVE",
"94 614 OFFCURVE",
"147 645 CURVE",
"148 74 LINE",
"120 73 LINE",
"121 509 LINE"
);
}
);
width = 323;
},
{
associatedMasterId = "C18F3EFD-FA9C-4751-AD2F-5B966120D1A5";
layerId = "A65CBA4B-FBF0-4525-922F-D2675F05244C";
name = "Sans Bold";
width = 600;
},
{
associatedMasterId = "C18F3EFD-FA9C-4751-AD2F-5B966120D1A5";
layerId = "2D4B1C84-C3E4-4CBE-91B6-6F5BAD5E1C4B";
name = "Sans Regular";
width = 600;
}
);
unicode = 0DE6;
},
{
glyphname = "onelith-sinhala";
lastChange = "2024-02-24 15:47:16 +0000";
layers = (
{
layerId = "C18F3EFD-FA9C-4751-AD2F-5B966120D1A5";
paths = (
{
closed = 1;
nodes = (
"230 239 CURVE SMOOTH",
"230 214 OFFCURVE",
"255 193 OFFCURVE",
"284 193 CURVE SMOOTH",
"313 193 OFFCURVE",
"338 214 OFFCURVE",
"338 239 CURVE SMOOTH",
"338 264 OFFCURVE",
"313 285 OFFCURVE",
"284 285 CURVE SMOOTH",
"255 285 OFFCURVE",
"230 264 OFFCURVE"
);
},
{
closed = 1;
nodes = (
"32 207 CURVE SMOOTH",
"32 339 OFFCURVE",
"157 422 OFFCURVE",
"294 422 CURVE SMOOTH",
"471 422 OFFCURVE",
"626 306 OFFCURVE",
"626 0 CURVE",
"597 0 LINE",
"597 299 OFFCURVE",
"450 388 OFFCURVE",
"294 388 CURVE SMOOTH",
"183 388 OFFCURVE",
"74 332 OFFCURVE",
"74 222 CURVE SMOOTH",
"74 138 OFFCURVE",
"159 69 OFFCURVE",
"263 69 CURVE SMOOTH",
"350 69 OFFCURVE",
"444 103 OFFCURVE",
"444 185 CURVE SMOOTH",
"444 239 OFFCURVE",
"400 271 OFFCURVE",
"352 280 CURVE",
"365 266 OFFCURVE",
"370 250 OFFCURVE",
"370 234 CURVE SMOOTH",
"370 187 OFFCURVE",
"327 162 OFFCURVE",
"285 162 CURVE SMOOTH",
"240 162 OFFCURVE",
"198 193 OFFCURVE",
"198 236 CURVE SMOOTH",
"198 283 OFFCURVE",
"242 314 OFFCURVE",
"297 314 CURVE SMOOTH",
"397 314 OFFCURVE",
"479 262 OFFCURVE",
"479 164 CURVE SMOOTH",
"479 66 OFFCURVE",
"403 0 OFFCURVE",
"263 0 CURVE SMOOTH",
"131 0 OFFCURVE",
"32 82 OFFCURVE"
);
}
);
width = 670;
},
{
associatedMasterId = "C18F3EFD-FA9C-4751-AD2F-5B966120D1A5";
layerId = "AA78C373-A874-4B43-A7A1-B39102DDD1E4";
name = Bold;
paths = (
{
closed = 1;
nodes = (
"215 270 CURVE SMOOTH",
"215 245 OFFCURVE",
"240 224 OFFCURVE",
"269 224 CURVE SMOOTH",
"298 224 OFFCURVE",
"322 245 OFFCURVE",
"322 270 CURVE SMOOTH",
"322 295 OFFCURVE",
"298 315 OFFCURVE",
"269 315 CURVE SMOOTH",
"240 315 OFFCURVE",
"215 295 OFFCURVE"
);
},
{
closed = 1;
nodes = (
"32 207 CURVE SMOOTH",
"32 339 OFFCURVE",
"133 422 OFFCURVE",
"294 422 CURVE SMOOTH",
"479 422 OFFCURVE",
"630 293 OFFCURVE",
"630 3 CURVE",
"604 3 LINE",
"594 277 OFFCURVE",
"460 392 OFFCURVE",
"294 392 CURVE SMOOTH",
"182 392 OFFCURVE",
"104 336 OFFCURVE",
"104 258 CURVE SMOOTH",
"104 193 OFFCURVE",
"160 134 OFFCURVE",
"263 134 CURVE SMOOTH",
"350 134 OFFCURVE",
"407 175 OFFCURVE",
"407 238 CURVE SMOOTH",
"407 269 OFFCURVE",
"384 304 OFFCURVE",
"336 315 CURVE",
"349 303 OFFCURVE",
"356 285 OFFCURVE",
"356 269 CURVE SMOOTH",
"356 226 OFFCURVE",
"313 195 OFFCURVE",
"269 195 CURVE SMOOTH",
"225 195 OFFCURVE",
"181 226 OFFCURVE",
"181 269 CURVE SMOOTH",
"181 315 OFFCURVE",
"225 346 OFFCURVE",
"283 346 CURVE SMOOTH",
"390 346 OFFCURVE",
"479 286 OFFCURVE",
"479 173 CURVE SMOOTH",
"479 79 OFFCURVE",
"403 0 OFFCURVE",
"263 0 CURVE SMOOTH",
"131 0 OFFCURVE",
"32 82 OFFCURVE"
);
}
);
width = 669;
},
{
associatedMasterId = "C18F3EFD-FA9C-4751-AD2F-5B966120D1A5";
layerId = "A65CBA4B-FBF0-4525-922F-D2675F05244C";
name = "Sans Bold";
width = 600;
},
{
associatedMasterId = "C18F3EFD-FA9C-4751-AD2F-5B966120D1A5";
layerId = "2D4B1C84-C3E4-4CBE-91B6-6F5BAD5E1C4B";
name = "Sans Regular";
width = 600;
}
);
unicode = 0DE7;
},
{
glyphname = "twolith-sinhala";
lastChange = "2024-02-24 15:47:16 +0000";
layers = (
{
components = (
{
name = "onelith-sinhala";
transform = "{1, 0, 0, 1, 3, 0}";
}
);
guideLines = (
{
position = "{569, 349}";
},
{
position = "{580, 422}";
}
);
layerId = "C18F3EFD-FA9C-4751-AD2F-5B966120D1A5";
paths = (
{
closed = 1;
nodes = (
"881 278 OFFCURVE",
"832 350 OFFCURVE",
"745 350 CURVE SMOOTH",
"641 350 OFFCURVE",
"617 281 OFFCURVE",
"617 165 CURVE SMOOTH",
"617 142 OFFCURVE",
"620 118 OFFCURVE",
"623 91 CURVE",
"597 148 LINE",
"592 196 LINE SMOOTH",
"575 357 OFFCURVE",
"663 422 OFFCURVE",
"745 422 CURVE SMOOTH",
"896 422 OFFCURVE",
"912 270 OFFCURVE",
"912 187 CURVE SMOOTH",
"912 87 OFFCURVE",
"868 -1 OFFCURVE",
"767 -1 CURVE SMOOTH",
"751 -1 OFFCURVE",
"730 2 OFFCURVE",
"718 11 CURVE",
"718 37 LINE",
"728 30 OFFCURVE",
"745 25 OFFCURVE",
"768 25 CURVE SMOOTH",
"840 25 OFFCURVE",
"881 86 OFFCURVE",
"881 177 CURVE SMOOTH"
);
}
);
width = 952;
},
{
associatedMasterId = "C18F3EFD-FA9C-4751-AD2F-5B966120D1A5";
components = (
{
name = "onelith-sinhala";
}
);
guideLines = (
{
position = "{-854, 307}";
}
);
layerId = "AA78C373-A874-4B43-A7A1-B39102DDD1E4";
name = Bold;
paths = (
{
closed = 1;
nodes = (
"885 243 OFFCURVE",
"838 307 OFFCURVE",
"754 307 CURVE SMOOTH",
"664 307 OFFCURVE",
"621 249 OFFCURVE",
"621 168 CURVE SMOOTH",
"621 142 OFFCURVE",
"621 113 OFFCURVE",
"626 81 CURVE",
"606 145 LINE",
"597 192 LINE SMOOTH",
"574 311 OFFCURVE",
"641 422 OFFCURVE",
"754 422 CURVE SMOOTH",
"892 422 OFFCURVE",
"927 302 OFFCURVE",
"927 197 CURVE SMOOTH",
"927 94 OFFCURVE",
"875 -1 OFFCURVE",
"776 -1 CURVE SMOOTH",
"751 -1 OFFCURVE",
"730 4 OFFCURVE",
"718 11 CURVE",
"718 40 LINE",
"729 34 OFFCURVE",
"745 28 OFFCURVE",
"771 28 CURVE SMOOTH",
"835 28 OFFCURVE",
"885 79 OFFCURVE",
"885 167 CURVE SMOOTH"
);
}
);
width = 952;
},
{
associatedMasterId = "C18F3EFD-FA9C-4751-AD2F-5B966120D1A5";
layerId = "A65CBA4B-FBF0-4525-922F-D2675F05244C";
name = "Sans Bold";
width = 600;
},
{
associatedMasterId = "C18F3EFD-FA9C-4751-AD2F-5B966120D1A5";
layerId = "2D4B1C84-C3E4-4CBE-91B6-6F5BAD5E1C4B";
name = "Sans Regular";
width = 600;
}
);
unicode = 0DE8;
},
{
glyphname = "sixlith-sinhala";
lastChange = "2024-02-24 15:47:16 +0000";
layers = (
{
guideLines = (
{
position = "{580, 422}";
}
);
layerId = "C18F3EFD-FA9C-4751-AD2F-5B966120D1A5";
paths = (
{
closed = 1;
nodes = (
"257 351 OFFCURVE",
"63 333 OFFCURVE",
"63 167 CURVE SMOOTH",
"63 55 OFFCURVE",
"146 22 OFFCURVE",
"199 20 CURVE",
"199 0 LINE",
"124 0 OFFCURVE",
"30 45 OFFCURVE",
"30 176 CURVE SMOOTH",
"30 378 OFFCURVE",
"228 422 OFFCURVE",
"334 422 CURVE SMOOTH",
"440 422 OFFCURVE",
"638 378 OFFCURVE",
"638 176 CURVE SMOOTH",
"638 45 OFFCURVE",
"544 0 OFFCURVE",
"469 0 CURVE",
"469 20 LINE",
"522 22 OFFCURVE",
"605 55 OFFCURVE",
"605 167 CURVE SMOOTH",
"605 333 OFFCURVE",
"411 351 OFFCURVE",
"334 351 CURVE SMOOTH"
);
},
{
closed = 1;
nodes = (
"421 0 OFFCURVE",
"381 40 OFFCURVE",
"381 88 CURVE SMOOTH",
"381 136 OFFCURVE",
"421 176 OFFCURVE",
"469 176 CURVE SMOOTH",
"517 176 OFFCURVE",
"557 136 OFFCURVE",
"557 88 CURVE SMOOTH",
"557 40 OFFCURVE",
"517 0 OFFCURVE",
"469 0 CURVE SMOOTH"
);
},
{
closed = 1;
nodes = (
"436 149 OFFCURVE",
"409 122 OFFCURVE",
"409 89 CURVE SMOOTH",
"409 56 OFFCURVE",
"436 29 OFFCURVE",
"469 29 CURVE SMOOTH",
"502 29 OFFCURVE",
"528 56 OFFCURVE",
"528 89 CURVE SMOOTH",
"528 122 OFFCURVE",
"502 149 OFFCURVE",
"469 149 CURVE SMOOTH"
);
},
{
closed = 1;
nodes = (
"151 0 OFFCURVE",
"111 40 OFFCURVE",
"111 88 CURVE SMOOTH",
"111 136 OFFCURVE",
"151 176 OFFCURVE",
"199 176 CURVE SMOOTH",
"247 176 OFFCURVE",
"287 136 OFFCURVE",
"287 88 CURVE SMOOTH",
"287 40 OFFCURVE",
"247 0 OFFCURVE",
"199 0 CURVE SMOOTH"
);
},
{
closed = 1;
nodes = (
"166 149 OFFCURVE",
"140 122 OFFCURVE",
"140 89 CURVE SMOOTH",
"140 56 OFFCURVE",
"166 29 OFFCURVE",
"199 29 CURVE SMOOTH",
"232 29 OFFCURVE",
"259 56 OFFCURVE",
"259 89 CURVE SMOOTH",
"259 122 OFFCURVE",
"232 149 OFFCURVE",
"199 149 CURVE SMOOTH"
);
}
);
width = 678;
},
{
associatedMasterId = "C18F3EFD-FA9C-4751-AD2F-5B966120D1A5";
guideLines = (
{
position = "{-3, 290}";
}
);
layerId = "AA78C373-A874-4B43-A7A1-B39102DDD1E4";
name = Bold;
paths = (
{
closed = 1;
nodes = (
"197 291 OFFCURVE",
"73 253 OFFCURVE",
"73 154 CURVE SMOOTH",
"73 55 OFFCURVE",
"146 22 OFFCURVE",
"199 20 CURVE",
"199 0 LINE",
"124 0 OFFCURVE",
"30 45 OFFCURVE",
"30 176 CURVE SMOOTH",
"30 378 OFFCURVE",
"228 422 OFFCURVE",
"334 422 CURVE SMOOTH",
"440 422 OFFCURVE",
"638 378 OFFCURVE",
"638 176 CURVE SMOOTH",
"638 45 OFFCURVE",
"544 0 OFFCURVE",
"469 0 CURVE",
"469 20 LINE",
"522 22 OFFCURVE",
"595 55 OFFCURVE",
"595 154 CURVE SMOOTH",
"595 253 OFFCURVE",
"471 291 OFFCURVE",
"334 291 CURVE SMOOTH"
);
},
{
closed = 1;
nodes = (
"421 0 OFFCURVE",
"381 40 OFFCURVE",
"381 88 CURVE SMOOTH",
"381 136 OFFCURVE",
"421 176 OFFCURVE",
"469 176 CURVE SMOOTH",
"517 176 OFFCURVE",
"557 136 OFFCURVE",
"557 88 CURVE SMOOTH",
"557 40 OFFCURVE",
"517 0 OFFCURVE",
"469 0 CURVE SMOOTH"
);
},
{
closed = 1;
nodes = (
"439 143 OFFCURVE",
"414 118 OFFCURVE",
"414 88 CURVE SMOOTH",
"414 58 OFFCURVE",
"439 33 OFFCURVE",
"469 33 CURVE SMOOTH",
"499 33 OFFCURVE",
"524 58 OFFCURVE",
"524 88 CURVE SMOOTH",
"524 118 OFFCURVE",
"499 143 OFFCURVE",
"469 143 CURVE SMOOTH"
);
},
{
closed = 1;
nodes = (
"151 0 OFFCURVE",
"111 40 OFFCURVE",
"111 88 CURVE SMOOTH",
"111 136 OFFCURVE",
"146 178 OFFCURVE",
"200 178 CURVE SMOOTH",
"258 178 OFFCURVE",
"287 136 OFFCURVE",
"287 88 CURVE SMOOTH",
"287 40 OFFCURVE",
"247 0 OFFCURVE",
"199 0 CURVE SMOOTH"
);
},
{
closed = 1;
nodes = (
"164 143 OFFCURVE",
"144 118 OFFCURVE",
"144 88 CURVE SMOOTH",
"144 58 OFFCURVE",
"169 33 OFFCURVE",
"199 33 CURVE SMOOTH",
"229 33 OFFCURVE",
"254 58 OFFCURVE",
"254 88 CURVE SMOOTH",
"254 118 OFFCURVE",
"235 143 OFFCURVE",
"199 143 CURVE SMOOTH"
);
}
);
width = 678;
},
{
associatedMasterId = "C18F3EFD-FA9C-4751-AD2F-5B966120D1A5";
guideLines = (
{
position = "{580, 422}";
}
);
layerId = "4DA9076B-A6C5-440C-8107-DD26DC736693";
name = "7 Jun 21, 17:43";
paths = (
{
closed = 1;
nodes = (
"461 0 OFFCURVE",
"421 40 OFFCURVE",
"421 88 CURVE SMOOTH",
"421 136 OFFCURVE",
"461 176 OFFCURVE",
"509 176 CURVE SMOOTH",
"557 176 OFFCURVE",
"597 136 OFFCURVE",
"597 88 CURVE SMOOTH",
"597 40 OFFCURVE",
"557 0 OFFCURVE",
"509 0 CURVE SMOOTH"
);
},
{
closed = 1;
nodes = (
"476 149 OFFCURVE",
"449 122 OFFCURVE",
"449 89 CURVE SMOOTH",
"449 56 OFFCURVE",
"476 29 OFFCURVE",
"509 29 CURVE SMOOTH",
"542 29 OFFCURVE",
"568 56 OFFCURVE",
"568 89 CURVE SMOOTH",
"568 122 OFFCURVE",
"542 149 OFFCURVE",
"509 149 CURVE SMOOTH"
);
},
{
closed = 1;
nodes = (
"107 1 OFFCURVE",
"40 63 OFFCURVE",
"40 166 CURVE SMOOTH",
"40 378 OFFCURVE",
"248 422 OFFCURVE",
"364 422 CURVE SMOOTH",
"480 422 OFFCURVE",
"678 378 OFFCURVE",
"678 176 CURVE SMOOTH",
"678 45 OFFCURVE",
"584 2 OFFCURVE",
"509 0 CURVE",
"509 20 LINE",
"562 22 OFFCURVE",
"645 55 OFFCURVE",
"645 167 CURVE SMOOTH",
"645 333 OFFCURVE",
"451 351 OFFCURVE",
"364 351 CURVE SMOOTH",
"277 351 OFFCURVE",
"73 333 OFFCURVE",
"73 157 CURVE SMOOTH",
"73 73 OFFCURVE",
"127 22 OFFCURVE",
"188 22 CURVE SMOOTH",
"237 22 OFFCURVE",
"250 53 OFFCURVE",
"250 73 CURVE SMOOTH",
"250 85 OFFCURVE",
"247 96 OFFCURVE",
"247 102 CURVE SMOOTH",
"247 119 OFFCURVE",
"259 128 OFFCURVE",
"274 128 CURVE SMOOTH",
"291 128 OFFCURVE",
"307 115 OFFCURVE",
"307 91 CURVE SMOOTH",
"307 29 OFFCURVE",
"243 1 OFFCURVE",
"188 1 CURVE SMOOTH"
);
}
);
width = 718;
},
{
associatedMasterId = "C18F3EFD-FA9C-4751-AD2F-5B966120D1A5";
layerId = "A65CBA4B-FBF0-4525-922F-D2675F05244C";
name = "Sans Bold";
width = 600;
},
{
associatedMasterId = "C18F3EFD-FA9C-4751-AD2F-5B966120D1A5";
layerId = "2D4B1C84-C3E4-4CBE-91B6-6F5BAD5E1C4B";
name = "Sans Regular";
width = 600;
}
);
unicode = 0DEC;
},
{
glyphname = "sevenlith-sinhala";
lastChange = "2024-02-24 15:47:16 +0000";
layers = (
{
background = {
paths = (
{
closed = 1;
nodes = (
"435 -156 OFFCURVE",
"329 -156 CURVE SMOOTH",
"178 -156 OFFCURVE",
"109 -61 OFFCURVE",
"109 34 CURVE SMOOTH",
"109 140 OFFCURVE",
"171 248 OFFCURVE",
"233 306 CURVE",
"30 306 LINE",
"30 331 LINE",
"270 331 LINE",
"267 315 LINE",
"191 217 OFFCURVE",
"176 136 OFFCURVE",
"176 59 CURVE SMOOTH",
"176 -60 OFFCURVE",
"257 -126 OFFCURVE",
"334 -126 CURVE SMOOTH",
"415 -126 OFFCURVE",
"493 -54 OFFCURVE",
"483 67 CURVE",
"511 67 LINE",
"521 -65 OFFCURVE"
);
}
);
};
layerId = "C18F3EFD-FA9C-4751-AD2F-5B966120D1A5";
paths = (
{
closed = 1;
nodes = (
"328 422 OFFCURVE",
"380 362 OFFCURVE",
"380 270 CURVE SMOOTH",
"380 268 OFFCURVE",
"380 267 OFFCURVE",
"380 265 CURVE",
"291 265 LINE SMOOTH",
"170 265 OFFCURVE",
"106 199 OFFCURVE",
"106 93 CURVE SMOOTH",
"106 -30 OFFCURVE",
"201 -125 OFFCURVE",
"333 -125 CURVE SMOOTH",
"457 -125 OFFCURVE",
"541 -39 OFFCURVE",
"541 67 CURVE",
"569 67 LINE",
"569 -63 OFFCURVE",
"468 -157 OFFCURVE",
"320 -157 CURVE SMOOTH",
"163 -157 OFFCURVE",
"31 -60 OFFCURVE",
"31 83 CURVE SMOOTH",
"31 205 OFFCURVE",
"118 289 OFFCURVE",
"258 289 CURVE SMOOTH",
"349 289 LINE",
"349 338 OFFCURVE",
"320 381 OFFCURVE",
"268 381 CURVE SMOOTH",
"241 381 OFFCURVE",
"223 368 OFFCURVE",
"209 346 CURVE SMOOTH",
"201 334 OFFCURVE",
"192 320 OFFCURVE",
"168 320 CURVE SMOOTH",
"147 320 OFFCURVE",
"131 336 OFFCURVE",
"131 356 CURVE SMOOTH",
"131 400 OFFCURVE",
"175 422 OFFCURVE",
"237 422 CURVE SMOOTH"
);
}
);
width = 584;
},
{
associatedMasterId = "C18F3EFD-FA9C-4751-AD2F-5B966120D1A5";
background = {
paths = (
{
closed = 1;
nodes = (
"516 -65 OFFCURVE",
"430 -156 OFFCURVE",
"327 -156 CURVE SMOOTH",
"178 -156 OFFCURVE",
"70 -87 OFFCURVE",
"70 35 CURVE SMOOTH",
"70 141 OFFCURVE",
"160 238 OFFCURVE",
"243 306 CURVE",
"40 306 LINE",
"40 331 LINE",
"280 331 LINE",
"277 315 LINE",
"201 217 OFFCURVE",
"178 132 OFFCURVE",
"178 65 CURVE SMOOTH",
"178 -34 OFFCURVE",
"218 -126 OFFCURVE",
"334 -126 CURVE SMOOTH",
"410 -126 OFFCURVE",
"488 -54 OFFCURVE",
"478 67 CURVE",
"506 67 LINE"
);
}
);
};
layerId = "AA78C373-A874-4B43-A7A1-B39102DDD1E4";
name = Bold;
paths = (
{
closed = 1;
nodes = (
"322 421 OFFCURVE",
"390 362 OFFCURVE",
"390 270 CURVE SMOOTH",
"390 268 OFFCURVE",
"390 264 OFFCURVE",
"390 262 CURVE",
"347 262 LINE SMOOTH",
"226 262 OFFCURVE",
"183 205 OFFCURVE",
"183 114 CURVE SMOOTH",
"183 -23 OFFCURVE",
"273 -96 OFFCURVE",
"385 -96 CURVE SMOOTH",
"465 -96 OFFCURVE",
"558 -34 OFFCURVE",
"558 67 CURVE",
"589 67 LINE",
"589 -63 OFFCURVE",
"468 -157 OFFCURVE",
"320 -157 CURVE SMOOTH",
"173 -157 OFFCURVE",
"31 -60 OFFCURVE",
"31 97 CURVE SMOOTH",
"31 205 OFFCURVE",
"118 289 OFFCURVE",
"258 289 CURVE SMOOTH",
"356 289 LINE",
"353 338 OFFCURVE",
"309 374 OFFCURVE",
"270 374 CURVE SMOOTH",
"250 374 OFFCURVE",
"231 368 OFFCURVE",
"218 346 CURVE SMOOTH",
"211 334 OFFCURVE",
"196 316 OFFCURVE",
"170 316 CURVE SMOOTH",
"139 316 OFFCURVE",
"125 337 OFFCURVE",
"125 356 CURVE SMOOTH",
"125 400 OFFCURVE",
"169 421 OFFCURVE",
"231 421 CURVE SMOOTH"
);
}
);
width = 604;
},
{
associatedMasterId = "C18F3EFD-FA9C-4751-AD2F-5B966120D1A5";
layerId = "A65CBA4B-FBF0-4525-922F-D2675F05244C";
name = "Sans Bold";
width = 600;
},
{
associatedMasterId = "C18F3EFD-FA9C-4751-AD2F-5B966120D1A5";
layerId = "2D4B1C84-C3E4-4CBE-91B6-6F5BAD5E1C4B";
name = "Sans Regular";
width = 600;
}
);
unicode = 0DED;
},
{
glyphname = "ninelith-sinhala";
lastChange = "2024-02-24 15:47:16 +0000";
layers = (
{
components = (
{
name = "twolith-sinhala";
}
);
layerId = "C18F3EFD-FA9C-4751-AD2F-5B966120D1A5";
paths = (
{
closed = 1;
nodes = (
"656 500 CURVE SMOOTH",
"656 470 OFFCURVE",
"682 440 OFFCURVE",
"720 440 CURVE SMOOTH",
"757 440 OFFCURVE",
"785 470 OFFCURVE",
"785 500 CURVE SMOOTH",
"785 536 OFFCURVE",
"755 563 OFFCURVE",
"720 563 CURVE SMOOTH",
"685 563 OFFCURVE",
"656 537 OFFCURVE"
);
},
{
closed = 1;
nodes = (
"317 494 CURVE SMOOTH",
"317 563 OFFCURVE",
"387 658 OFFCURVE",
"562 658 CURVE SMOOTH",
"676 658 OFFCURVE",
"815 604 OFFCURVE",
"815 503 CURVE SMOOTH",
"815 451 OFFCURVE",
"773 412 OFFCURVE",
"720 412 CURVE SMOOTH",
"671 412 OFFCURVE",
"627 450 OFFCURVE",
"627 499 CURVE SMOOTH",
"627 541 OFFCURVE",
"654 588 OFFCURVE",
"705 588 CURVE",
"690 571 LINE",
"678 578 OFFCURVE",
"619 589 OFFCURVE",
"563 589 CURVE SMOOTH",
"451 589 OFFCURVE",
"344 557 OFFCURVE",
"344 479 CURVE SMOOTH",
"344 453 OFFCURVE",
"366 415 OFFCURVE",
"432 394 CURVE",
"426 384 LINE",
"355 400 OFFCURVE",
"317 445 OFFCURVE"
);
}
);
width = 952;
},
{
associatedMasterId = "C18F3EFD-FA9C-4751-AD2F-5B966120D1A5";
components = (
{
name = "twolith-sinhala";
}
);
layerId = "AA78C373-A874-4B43-A7A1-B39102DDD1E4";
name = Bold;
paths = (
{
closed = 1;
nodes = (
"656 500 CURVE SMOOTH",
"656 470 OFFCURVE",
"682 440 OFFCURVE",
"720 440 CURVE SMOOTH",
"757 440 OFFCURVE",
"785 470 OFFCURVE",
"785 500 CURVE SMOOTH",
"785 536 OFFCURVE",
"755 563 OFFCURVE",
"720 563 CURVE SMOOTH",
"685 563 OFFCURVE",
"656 537 OFFCURVE"
);
},
{
closed = 1;
nodes = (
"317 494 CURVE SMOOTH",
"317 563 OFFCURVE",
"387 658 OFFCURVE",
"562 658 CURVE SMOOTH",
"676 658 OFFCURVE",
"815 604 OFFCURVE",
"815 503 CURVE SMOOTH",
"815 451 OFFCURVE",
"773 412 OFFCURVE",
"720 412 CURVE SMOOTH",
"671 412 OFFCURVE",
"627 450 OFFCURVE",
"627 499 CURVE SMOOTH",
"627 541 OFFCURVE",
"654 588 OFFCURVE",
"705 588 CURVE",
"690 571 LINE",
"678 578 OFFCURVE",
"619 589 OFFCURVE",
"563 589 CURVE SMOOTH",
"451 589 OFFCURVE",
"344 557 OFFCURVE",
"344 479 CURVE SMOOTH",
"344 453 OFFCURVE",
"366 415 OFFCURVE",
"432 394 CURVE",
"426 384 LINE",
"355 400 OFFCURVE",
"317 445 OFFCURVE"
);
}
);
width = 952;
},
{
associatedMasterId = "C18F3EFD-FA9C-4751-AD2F-5B966120D1A5";
layerId = "A65CBA4B-FBF0-4525-922F-D2675F05244C";
name = "Sans Bold";
width = 600;
},
{
associatedMasterId = "C18F3EFD-FA9C-4751-AD2F-5B966120D1A5";
layerId = "2D4B1C84-C3E4-4CBE-91B6-6F5BAD5E1C4B";
name = "Sans Regular";
width = 600;
}
);
unicode = 0DEF;
},
{
glyphname = "k_ssa-sinhala";
lastChange = "2024-02-24 15:53:00 +0000";
layers = (
{
layerId = "C18F3EFD-FA9C-4751-AD2F-5B966120D1A5";
paths = (
{
closed = 1;
nodes = (
"68 93 CURVE",
"74 96 OFFCURVE",
"80 98 OFFCURVE",
"87 98 CURVE SMOOTH",
"115 98 OFFCURVE",
"138 69 OFFCURVE",
"194 69 CURVE SMOOTH",
"244 69 OFFCURVE",
"274 99 OFFCURVE",
"274 158 CURVE SMOOTH",
"274 160 OFFCURVE",
"274 157 OFFCURVE",
"274 159 CURVE",
"300 159 LINE",
"300 158 OFFCURVE",
"300 159 OFFCURVE",
"300 158 CURVE SMOOTH",
"300 95 OFFCURVE",
"326 69 OFFCURVE",
"383 69 CURVE SMOOTH",
"444 69 OFFCURVE",
"463 120 OFFCURVE",
"463 155 CURVE SMOOTH",
"463 236 OFFCURVE",
"392 284 OFFCURVE",
"291 284 CURVE SMOOTH",
"235 284 OFFCURVE",
"199 276 OFFCURVE",
"178 267 CURVE",
"161 252 OFFCURVE",
"142 229 OFFCURVE",
"126 207 CURVE SMOOTH",
"98 167 OFFCURVE",
"79 129 OFFCURVE"
);
},
{
closed = 1;
nodes = (
"21 21 LINE",
"29 88 OFFCURVE",
"72 180 OFFCURVE",
"106 227 CURVE SMOOTH",
"131 262 OFFCURVE",
"146 275 OFFCURVE",
"164 294 CURVE",
"176 307 OFFCURVE",
"188 323 OFFCURVE",
"188 344 CURVE SMOOTH",
"188 365 OFFCURVE",
"178 383 OFFCURVE",
"154 383 CURVE SMOOTH",
"140 383 OFFCURVE",
"119 375 OFFCURVE",
"113 354 CURVE SMOOTH",
"106 332 OFFCURVE",
"111 332 OFFCURVE",
"104 315 CURVE SMOOTH",
"97 297 OFFCURVE",
"82 290 OFFCURVE",
"67 290 CURVE SMOOTH",
"34 290 OFFCURVE",
"28 320 OFFCURVE",
"28 332 CURVE SMOOTH",
"28 385 OFFCURVE",
"77 423 OFFCURVE",
"133 423 CURVE SMOOTH",
"182 423 OFFCURVE",
"215 393 OFFCURVE",
"215 348 CURVE SMOOTH",
"215 343 OFFCURVE",
"215 338 OFFCURVE",
"214 333 CURVE",
"293 392 OFFCURVE",
"409 426 OFFCURVE",
"542 426 CURVE SMOOTH",
"576 426 OFFCURVE",
"609 423 OFFCURVE",
"609 423 CURVE",
"528 396 LINE",
"528 396 OFFCURVE",
"517 396 OFFCURVE",
"512 396 CURVE SMOOTH",
"369 396 OFFCURVE",
"267 342 OFFCURVE",
"214 301 CURVE",
"237 307 OFFCURVE",
"269 309 OFFCURVE",
"295 309 CURVE SMOOTH",
"412 309 OFFCURVE",
"503 245 OFFCURVE",
"503 123 CURVE SMOOTH",
"503 66 OFFCURVE",
"471 -1 OFFCURVE",
"388 -1 CURVE SMOOTH",
"343 -1 OFFCURVE",
"310 20 OFFCURVE",
"289 62 CURVE",
"272 22 OFFCURVE",
"240 -1 OFFCURVE",
"199 -1 CURVE SMOOTH",
"114 -1 OFFCURVE",
"117 71 OFFCURVE",
"85 71 CURVE SMOOTH",
"64 71 OFFCURVE",
"49 50 OFFCURVE",
"46 11 CURVE"
);
},
{
closed = 1;
nodes = (
"468 180 CURVE SMOOTH",
"468 269 OFFCURVE",
"534 319 OFFCURVE",
"639 319 CURVE SMOOTH",
"652 319 OFFCURVE",
"662 318 OFFCURVE",
"675 317 CURVE",
"675 321 OFFCURVE",
"676 324 OFFCURVE",
"676 328 CURVE SMOOTH",
"676 366 OFFCURVE",
"650 386 OFFCURVE",
"620 386 CURVE SMOOTH",
"589 386 OFFCURVE",
"577 371 OFFCURVE",
"572 352 CURVE SMOOTH",
"568 338 OFFCURVE",
"555 320 OFFCURVE",
"528 320 CURVE SMOOTH",
"509 320 OFFCURVE",
"491 332 OFFCURVE",
"491 356 CURVE SMOOTH",
"491 399 OFFCURVE",
"537 424 OFFCURVE",
"591 424 CURVE SMOOTH",
"661 424 OFFCURVE",
"705 391 OFFCURVE",
"705 326 CURVE SMOOTH",
"705 315 OFFCURVE",
"704 304 OFFCURVE",
"701 291 CURVE",
"683 293 OFFCURVE",
"649 295 OFFCURVE",
"648 295 CURVE SMOOTH",
"573 295 OFFCURVE",
"504 269 OFFCURVE",
"504 196 CURVE SMOOTH",
"504 104 OFFCURVE",
"625 69 OFFCURVE",
"736 69 CURVE SMOOTH",
"840 69 OFFCURVE",
"964 107 OFFCURVE",
"964 200 CURVE SMOOTH",
"964 271 OFFCURVE",
"897 297 OFFCURVE",
"821 297 CURVE SMOOTH",
"799 297 OFFCURVE",
"775 294 OFFCURVE",
"753 290 CURVE",
"751 301 OFFCURVE",
"750 310 OFFCURVE",
"750 320 CURVE SMOOTH",
"750 387 OFFCURVE",
"794 423 OFFCURVE",
"865 423 CURVE SMOOTH",
"929 423 OFFCURVE",
"965 384 OFFCURVE",
"965 346 CURVE SMOOTH",
"965 285 OFFCURVE",
"875 244 OFFCURVE",
"826 234 CURVE",
"845 225 OFFCURVE",
"858 211 OFFCURVE",
"858 192 CURVE SMOOTH",
"858 148 OFFCURVE",
"803 132 OFFCURVE",
"726 132 CURVE SMOOTH",
"671 132 OFFCURVE",
"604 145 OFFCURVE",
"604 193 CURVE SMOOTH",
"604 220 OFFCURVE",
"624 248 OFFCURVE",
"718 248 CURVE SMOOTH",
"740 248 OFFCURVE",
"786 249 OFFCURVE",
"816 255 CURVE SMOOTH",
"865 264 OFFCURVE",
"931 299 OFFCURVE",
"931 343 CURVE SMOOTH",
"931 371 OFFCURVE",
"904 396 OFFCURVE",
"858 396 CURVE SMOOTH",
"816 396 OFFCURVE",
"781 372 OFFCURVE",
"781 328 CURVE SMOOTH",
"781 324 OFFCURVE",
"781 321 OFFCURVE",
"782 317 CURVE",
"799 319 OFFCURVE",
"814 320 OFFCURVE",
"830 320 CURVE SMOOTH",
"919 320 OFFCURVE",
"997 286 OFFCURVE",
"997 182 CURVE SMOOTH",
"997 54 OFFCURVE",
"874 0 OFFCURVE",
"736 0 CURVE SMOOTH",
"591 0 OFFCURVE",
"468 45 OFFCURVE"
);
},
{
closed = 1;
nodes = (
"634 193 CURVE SMOOTH",
"634 171 OFFCURVE",
"666 157 OFFCURVE",
"729 157 CURVE SMOOTH",
"795 157 OFFCURVE",
"829 171 OFFCURVE",
"829 192 CURVE SMOOTH",
"829 216 OFFCURVE",
"796 227 OFFCURVE",
"728 227 CURVE SMOOTH",
"665 227 OFFCURVE",
"634 214 OFFCURVE"
);
}
);
width = 1043;
}
);
},
{
glyphname = "k-sinhala";
lastChange = "2024-02-24 15:47:15 +0000";
layers = (
{
layerId = "C18F3EFD-FA9C-4751-AD2F-5B966120D1A5";
paths = (
{
closed = 1;
nodes = (
"139 530 CURVE SMOOTH",
"139 518 OFFCURVE",
"162 514 OFFCURVE",
"162 503 CURVE SMOOTH",
"162 501 OFFCURVE",
"161 498 OFFCURVE",
"159 496 CURVE",
"191 502 OFFCURVE",
"230 507 OFFCURVE",
"275 507 CURVE SMOOTH",
"380 507 OFFCURVE",
"461 478 OFFCURVE",
"518 412 CURVE",
"486 524 OFFCURVE",
"393 576 OFFCURVE",
"280 576 CURVE SMOOTH",
"210 576 OFFCURVE",
"139 553 OFFCURVE"
);
},
{
closed = 1;
nodes = (
"44 432 CURVE",
"44 462 LINE",
"75 474 OFFCURVE",
"126 487 OFFCURVE",
"126 496 CURVE SMOOTH",
"126 508 OFFCURVE",
"99 512 OFFCURVE",
"99 533 CURVE SMOOTH",
"99 569 OFFCURVE",
"162 614 OFFCURVE",
"274 614 CURVE SMOOTH",
"477 614 OFFCURVE",
"547 479 OFFCURVE",
"559 348 CURVE",
"565 330 OFFCURVE",
"571 299 OFFCURVE",
"571 261 CURVE",
"533 268 LINE",
"533 271 OFFCURVE",
"534 265 OFFCURVE",
"534 276 CURVE SMOOTH",
"534 399 OFFCURVE",
"437 482 OFFCURVE",
"272 482 CURVE SMOOTH",
"198 482 OFFCURVE",
"123 469 OFFCURVE"
);
},
{
closed = 1;
nodes = (
"258 344 CURVE SMOOTH",
"258 318 OFFCURVE",
"280 296 OFFCURVE",
"306 296 CURVE SMOOTH",
"332 296 OFFCURVE",
"354 318 OFFCURVE",
"354 344 CURVE SMOOTH",
"354 370 OFFCURVE",
"332 392 OFFCURVE",
"306 392 CURVE SMOOTH",
"280 392 OFFCURVE",
"258 370 OFFCURVE"
);
},
{
closed = 1;
nodes = (
"32 244 CURVE SMOOTH",
"32 331 OFFCURVE",
"77 422 OFFCURVE",
"152 422 CURVE SMOOTH",
"200 422 OFFCURVE",
"204 388 OFFCURVE",
"204 364 CURVE SMOOTH",
"204 338 OFFCURVE",
"199 330 OFFCURVE",
"199 295 CURVE SMOOTH",
"199 241 OFFCURVE",
"239 213 OFFCURVE",
"293 213 CURVE SMOOTH",
"352 213 OFFCURVE",
"392 249 OFFCURVE",
"392 307 CURVE SMOOTH",
"392 334 OFFCURVE",
"383 350 OFFCURVE",
"378 357 CURVE",
"380 347 OFFCURVE",
"380 343 OFFCURVE",
"380 335 CURVE SMOOTH",
"380 299 OFFCURVE",
"353 265 OFFCURVE",
"306 265 CURVE SMOOTH",
"256 265 OFFCURVE",
"228 308 OFFCURVE",
"228 343 CURVE SMOOTH",
"228 388 OFFCURVE",
"264 422 OFFCURVE",
"311 422 CURVE SMOOTH",
"378 422 OFFCURVE",
"421 373 OFFCURVE",
"421 299 CURVE SMOOTH",
"421 232 OFFCURVE",
"366 182 OFFCURVE",
"295 182 CURVE SMOOTH",
"236 182 OFFCURVE",
"169 211 OFFCURVE",
"169 288 CURVE SMOOTH",
"169 326 OFFCURVE",
"176 340 OFFCURVE",
"176 370 CURVE SMOOTH",
"176 382 OFFCURVE",
"171 396 OFFCURVE",
"150 396 CURVE SMOOTH",
"103 396 OFFCURVE",
"66 338 OFFCURVE",
"66 261 CURVE SMOOTH",
"66 131 OFFCURVE",
"169 69 OFFCURVE",
"301 69 CURVE SMOOTH",
"440 69 OFFCURVE",
"533 167 OFFCURVE",
"533 271 CURVE",
"543 268 OFFCURVE",
"559 268 OFFCURVE",
"571 266 CURVE",
"571 110 OFFCURVE",
"464 0 OFFCURVE",
"303 0 CURVE SMOOTH",
"140 0 OFFCURVE",
"32 92 OFFCURVE"
);
}
);
width = 620;
}
);
},
{
glyphname = "kh-sinhala";
lastChange = "2024-02-24 15:47:18 +0000";
layers = (
{
layerId = "C18F3EFD-FA9C-4751-AD2F-5B966120D1A5";
paths = (
{
closed = 1;
nodes = (
"136 530 CURVE SMOOTH",
"136 518 OFFCURVE",
"159 514 OFFCURVE",
"159 503 CURVE SMOOTH",
"159 501 OFFCURVE",
"158 498 OFFCURVE",
"156 496 CURVE",
"188 502 OFFCURVE",
"227 507 OFFCURVE",
"272 507 CURVE SMOOTH",
"377 507 OFFCURVE",
"458 478 OFFCURVE",
"515 412 CURVE",
"483 524 OFFCURVE",
"390 576 OFFCURVE",
"277 576 CURVE SMOOTH",
"207 576 OFFCURVE",
"136 553 OFFCURVE"
);
},
{
closed = 1;
nodes = (
"41 432 CURVE",
"41 462 LINE",
"72 474 OFFCURVE",
"123 487 OFFCURVE",
"123 496 CURVE SMOOTH",
"123 508 OFFCURVE",
"96 512 OFFCURVE",
"96 533 CURVE SMOOTH",
"96 569 OFFCURVE",
"159 614 OFFCURVE",
"271 614 CURVE SMOOTH",
"474 614 OFFCURVE",
"544 479 OFFCURVE",
"556 348 CURVE",
"562 330 OFFCURVE",
"568 294 OFFCURVE",
"568 261 CURVE",
"530 269 LINE",
"530 394 OFFCURVE",
"443 482 OFFCURVE",
"270 482 CURVE SMOOTH",
"196 482 OFFCURVE",
"120 469 OFFCURVE"
);
},
{
closed = 1;
nodes = (
"91 70 CURVE SMOOTH",
"91 47 OFFCURVE",
"110 28 OFFCURVE",
"133 28 CURVE SMOOTH",
"156 28 OFFCURVE",
"175 47 OFFCURVE",
"175 70 CURVE SMOOTH",
"175 93 OFFCURVE",
"156 112 OFFCURVE",
"133 112 CURVE SMOOTH",
"110 112 OFFCURVE",
"91 93 OFFCURVE"
);
},
{
closed = 1;
nodes = (
"31 179 CURVE SMOOTH",
"31 315 OFFCURVE",
"121 387 OFFCURVE",
"234 387 CURVE SMOOTH",
"325 387 OFFCURVE",
"403 335 OFFCURVE",
"403 252 CURVE SMOOTH",
"403 196 OFFCURVE",
"376 149 OFFCURVE",
"338 112 CURVE",
"341 113 OFFCURVE",
"344 113 OFFCURVE",
"347 113 CURVE SMOOTH",
"375 113 OFFCURVE",
"378 69 OFFCURVE",
"421 69 CURVE SMOOTH",
"472 69 OFFCURVE",
"530 182 OFFCURVE",
"530 273 CURVE",
"568 266 LINE",
"568 136 OFFCURVE",
"504 0 OFFCURVE",
"406 0 CURVE SMOOTH",
"344 0 OFFCURVE",
"339 53 OFFCURVE",
"313 53 CURVE SMOOTH",
"300 53 OFFCURVE",
"275 33 OFFCURVE",
"234 -21 CURVE",
"199 -18 LINE",
"212 -5 OFFCURVE",
"240 33 OFFCURVE",
"281 82 CURVE SMOOTH",
"332 143 OFFCURVE",
"358 190 OFFCURVE",
"358 227 CURVE SMOOTH",
"358 280 OFFCURVE",
"320 312 OFFCURVE",
"230 312 CURVE SMOOTH",
"152 312 OFFCURVE",
"62 265 OFFCURVE",
"62 152 CURVE SMOOTH",
"62 140 OFFCURVE",
"64 116 OFFCURVE",
"70 99 CURVE",
"78 126 OFFCURVE",
"106 142 OFFCURVE",
"132 142 CURVE SMOOTH",
"177 142 OFFCURVE",
"205 113 OFFCURVE",
"205 70 CURVE SMOOTH",
"205 36 OFFCURVE",
"176 -1 OFFCURVE",
"138 -1 CURVE SMOOTH",
"55 -1 OFFCURVE",
"31 106 OFFCURVE"
);
}
);
width = 615;
}
);
},
{
glyphname = "g-sinhala";
lastChange = "2024-02-24 15:47:15 +0000";
layers = (
{
components = (
{
name = "ja-sinhala";
}
);
layerId = "C18F3EFD-FA9C-4751-AD2F-5B966120D1A5";
paths = (
{
closed = 1;
nodes = (
"293 348 LINE",
"293 738 LINE",
"349 692 OFFCURVE",
"437 687 OFFCURVE",
"437 611 CURVE SMOOTH",
"437 566 OFFCURVE",
"403 537 OFFCURVE",
"361 537 CURVE SMOOTH",
"347 537 OFFCURVE",
"333 538 OFFCURVE",
"318 543 CURVE",
"318 391 LINE"
);
},
{
closed = 1;
nodes = (
"318 567 LINE",
"328 563 OFFCURVE",
"339 562 OFFCURVE",
"354 562 CURVE SMOOTH",
"386 562 OFFCURVE",
"400 585 OFFCURVE",
"400 607 CURVE SMOOTH",
"400 656 OFFCURVE",
"354 671 OFFCURVE",
"318 695 CURVE"
);
}
);
width = 583;
}
);
},
{
glyphname = "gh-sinhala";
lastChange = "2024-02-24 15:47:18 +0000";
layers = (
{
components = (
{
name = "gha-sinhala";
}
);
layerId = "C18F3EFD-FA9C-4751-AD2F-5B966120D1A5";
paths = (
{
closed = 1;
nodes = (
"467 403 LINE",
"467 664 LINE",
"520 623 OFFCURVE",
"613 618 OFFCURVE",
"613 528 CURVE SMOOTH",
"613 485 OFFCURVE",
"579 456 OFFCURVE",
"537 456 CURVE SMOOTH",
"522 456 OFFCURVE",
"508 459 OFFCURVE",
"493 466 CURVE",
"493 387 LINE"
);
},
{
closed = 1;
nodes = (
"493 490 LINE",
"502 485 OFFCURVE",
"512 483 OFFCURVE",
"525 483 CURVE SMOOTH",
"562 483 OFFCURVE",
"577 508 OFFCURVE",
"577 531 CURVE SMOOTH",
"577 572 OFFCURVE",
"539 592 OFFCURVE",
"493 622 CURVE"
);
}
);
width = 661;
}
);
},
{
glyphname = "ng-sinhala";
lastChange = "2024-02-24 15:47:19 +0000";
layers = (
{
layerId = "C18F3EFD-FA9C-4751-AD2F-5B966120D1A5";
paths = (
{
closed = 1;
nodes = (
"143 530 CURVE SMOOTH",
"143 518 OFFCURVE",
"165 514 OFFCURVE",
"165 503 CURVE SMOOTH",
"165 501 OFFCURVE",
"164 498 OFFCURVE",
"162 496 CURVE",
"193 502 OFFCURVE",
"230 507 OFFCURVE",
"273 507 CURVE SMOOTH",
"375 507 OFFCURVE",
"451 478 OFFCURVE",
"506 412 CURVE",
"475 524 OFFCURVE",
"386 576 OFFCURVE",
"278 576 CURVE SMOOTH",
"211 576 OFFCURVE",
"143 553 OFFCURVE"
);
},
{
closed = 1;
nodes = (
"52 432 CURVE",
"52 462 LINE",
"82 474 OFFCURVE",
"128 487 OFFCURVE",
"128 496 CURVE SMOOTH",
"128 508 OFFCURVE",
"102 512 OFFCURVE",
"102 533 CURVE SMOOTH",
"102 569 OFFCURVE",
"165 614 OFFCURVE",
"272 614 CURVE SMOOTH",
"467 614 OFFCURVE",
"534 479 OFFCURVE",
"546 348 CURVE",
"550 331 OFFCURVE",
"557 283 OFFCURVE",
"557 250 CURVE",
"521 273 LINE",
"521 281 OFFCURVE",
"521 277 OFFCURVE",
"521 281 CURVE SMOOTH",
"521 394 OFFCURVE",
"429 482 OFFCURVE",
"271 482 CURVE SMOOTH",
"200 482 OFFCURVE",
"128 469 OFFCURVE"
);
},
{
closed = 1;
nodes = (
"86 339 CURVE SMOOTH",
"86 313 OFFCURVE",
"110 291 OFFCURVE",
"139 291 CURVE SMOOTH",
"168 291 OFFCURVE",
"190 313 OFFCURVE",
"190 339 CURVE SMOOTH",
"190 365 OFFCURVE",
"168 387 OFFCURVE",
"139 387 CURVE SMOOTH",
"110 387 OFFCURVE",
"86 365 OFFCURVE"
);
},
{
closed = 1;
nodes = (
"50 137 CURVE SMOOTH",
"50 207 OFFCURVE",
"107 252 OFFCURVE",
"175 252 CURVE SMOOTH",
"210 252 OFFCURVE",
"239 245 OFFCURVE",
"273 245 CURVE SMOOTH",
"318 245 OFFCURVE",
"335 268 OFFCURVE",
"335 303 CURVE SMOOTH",
"335 373 OFFCURVE",
"261 401 OFFCURVE",
"209 401 CURVE SMOOTH",
"195 401 OFFCURVE",
"186 400 OFFCURVE",
"178 399 CURVE",
"197 389 OFFCURVE",
"217 371 OFFCURVE",
"217 337 CURVE SMOOTH",
"217 302 OFFCURVE",
"185 266 OFFCURVE",
"138 266 CURVE SMOOTH",
"98 266 OFFCURVE",
"59 296 OFFCURVE",
"59 338 CURVE SMOOTH",
"59 393 OFFCURVE",
"117 424 OFFCURVE",
"203 424 CURVE SMOOTH",
"304 424 OFFCURVE",
"363 369 OFFCURVE",
"363 299 CURVE SMOOTH",
"363 259 OFFCURVE",
"338 219 OFFCURVE",
"273 219 CURVE SMOOTH",
"233 219 OFFCURVE",
"219 225 OFFCURVE",
"177 225 CURVE SMOOTH",
"129 225 OFFCURVE",
"87 199 OFFCURVE",
"87 152 CURVE SMOOTH",
"87 101 OFFCURVE",
"127 69 OFFCURVE",
"182 69 CURVE SMOOTH",
"230 69 OFFCURVE",
"277 94 OFFCURVE",
"277 141 CURVE SMOOTH",
"277 173 LINE",
"304 173 LINE",
"304 141 LINE SMOOTH",
"304 96 OFFCURVE",
"353 68 OFFCURVE",
"402 68 CURVE SMOOTH",
"480 68 OFFCURVE",
"521 156 OFFCURVE",
"521 276 CURVE",
"534 263 OFFCURVE",
"548 262 OFFCURVE",
"557 254 CURVE",
"557 111 OFFCURVE",
"504 0 OFFCURVE",
"406 0 CURVE SMOOTH",
"345 0 OFFCURVE",
"321 21 OFFCURVE",
"291 58 CURVE",
"261 20 OFFCURVE",
"228 0 OFFCURVE",
"184 0 CURVE SMOOTH",
"105 0 OFFCURVE",
"50 59 OFFCURVE"
);
}
);
width = 602;
}
);
},
{
glyphname = "nng-sinhala";
lastChange = "2024-02-24 15:47:19 +0000";
layers = (
{
components = (
{
name = "nnga-sinhala";
}
);
layerId = "C18F3EFD-FA9C-4751-AD2F-5B966120D1A5";
paths = (
{
closed = 1;
nodes = (
"540 378 LINE",
"540 665 LINE",
"593 624 OFFCURVE",
"687 619 OFFCURVE",
"687 529 CURVE SMOOTH",
"687 486 OFFCURVE",
"652 457 OFFCURVE",
"610 457 CURVE SMOOTH",
"595 457 OFFCURVE",
"581 460 OFFCURVE",
"566 467 CURVE",
"566 361 LINE"
);
},
{
closed = 1;
nodes = (
"566 491 LINE",
"575 486 OFFCURVE",
"586 484 OFFCURVE",
"599 484 CURVE SMOOTH",
"636 484 OFFCURVE",
"650 509 OFFCURVE",
"650 532 CURVE SMOOTH",
"650 573 OFFCURVE",
"612 593 OFFCURVE",
"566 623 CURVE"
);
}
);
width = 731;
}
);
},
{
glyphname = "c-sinhala";
lastChange = "2024-02-24 15:47:15 +0000";
layers = (
{
components = (
{
name = "ga-sinhala";
}
);
layerId = "C18F3EFD-FA9C-4751-AD2F-5B966120D1A5";
paths = (
{
closed = 1;
nodes = (
"426 378 LINE",
"426 665 LINE",
"479 624 OFFCURVE",
"572 619 OFFCURVE",
"572 529 CURVE SMOOTH",
"572 486 OFFCURVE",
"538 457 OFFCURVE",
"496 457 CURVE SMOOTH",
"481 457 OFFCURVE",
"467 460 OFFCURVE",
"452 467 CURVE",
"452 361 LINE"
);
},
{
closed = 1;
nodes = (
"452 491 LINE",
"461 486 OFFCURVE",
"471 484 OFFCURVE",
"484 484 CURVE SMOOTH",
"521 484 OFFCURVE",
"536 509 OFFCURVE",
"536 532 CURVE SMOOTH",
"536 573 OFFCURVE",
"498 593 OFFCURVE",
"452 623 CURVE"
);
}
);
width = 621;
}
);
},
{
glyphname = "ch-sinhala";
lastChange = "2024-02-24 15:47:17 +0000";
layers = (
{
components = (
{
name = "cha-sinhala";
}
);
layerId = "C18F3EFD-FA9C-4751-AD2F-5B966120D1A5";
paths = (
{
closed = 1;
nodes = (
"282 348 LINE",
"282 738 LINE",
"338 692 OFFCURVE",
"426 687 OFFCURVE",
"426 611 CURVE SMOOTH",
"426 566 OFFCURVE",
"393 537 OFFCURVE",
"351 537 CURVE SMOOTH",
"337 537 OFFCURVE",
"323 538 OFFCURVE",
"308 543 CURVE",
"308 391 LINE"
);
},
{
closed = 1;
nodes = (
"308 567 LINE",
"318 563 OFFCURVE",
"329 562 OFFCURVE",
"344 562 CURVE SMOOTH",
"376 562 OFFCURVE",
"390 585 OFFCURVE",
"390 607 CURVE SMOOTH",
"390 656 OFFCURVE",
"344 671 OFFCURVE",
"308 695 CURVE"
);
}
);
width = 583;
}
);
},
{
glyphname = "j-sinhala";
lastChange = "2024-02-24 15:47:15 +0000";
layers = (
{
components = (
{
name = "la-sinhala";
}
);
layerId = "C18F3EFD-FA9C-4751-AD2F-5B966120D1A5";
paths = (
{
closed = 1;
nodes = (
"461 403 LINE",
"461 664 LINE",
"514 623 OFFCURVE",
"607 618 OFFCURVE",
"607 528 CURVE SMOOTH",
"607 485 OFFCURVE",
"573 456 OFFCURVE",
"531 456 CURVE SMOOTH",
"516 456 OFFCURVE",
"502 459 OFFCURVE",
"487 466 CURVE",
"487 400 LINE"
);
},
{
closed = 1;
nodes = (
"487 490 LINE",
"496 485 OFFCURVE",
"507 483 OFFCURVE",
"520 483 CURVE SMOOTH",
"557 483 OFFCURVE",
"571 508 OFFCURVE",
"571 531 CURVE SMOOTH",
"571 572 OFFCURVE",
"533 592 OFFCURVE",
"487 622 CURVE"
);
}
);
width = 654;
}
);
},
{
glyphname = "jh-sinhala";
lastChange = "2024-02-24 15:47:18 +0000";
layers = (
{
layerId = "C18F3EFD-FA9C-4751-AD2F-5B966120D1A5";
paths = (
{
closed = 1;
nodes = (
"68 93 CURVE",
"74 96 OFFCURVE",
"80 98 OFFCURVE",
"87 98 CURVE SMOOTH",
"115 98 OFFCURVE",
"138 69 OFFCURVE",
"194 69 CURVE SMOOTH",
"244 69 OFFCURVE",
"274 99 OFFCURVE",
"274 158 CURVE SMOOTH",
"274 160 OFFCURVE",
"274 157 OFFCURVE",
"274 159 CURVE",
"300 159 LINE",
"300 158 OFFCURVE",
"300 159 OFFCURVE",
"300 158 CURVE SMOOTH",
"300 95 OFFCURVE",
"326 69 OFFCURVE",
"383 69 CURVE SMOOTH",
"444 69 OFFCURVE",
"463 120 OFFCURVE",
"463 155 CURVE SMOOTH",
"463 236 OFFCURVE",
"392 284 OFFCURVE",
"291 284 CURVE SMOOTH",
"235 284 OFFCURVE",
"199 276 OFFCURVE",
"178 267 CURVE",
"161 252 OFFCURVE",
"142 229 OFFCURVE",
"126 207 CURVE SMOOTH",
"98 167 OFFCURVE",
"79 129 OFFCURVE"
);
},
{
closed = 1;
nodes = (
"21 21 LINE",
"29 88 OFFCURVE",
"72 180 OFFCURVE",
"106 227 CURVE SMOOTH",
"131 262 OFFCURVE",
"146 275 OFFCURVE",
"164 294 CURVE",
"176 307 OFFCURVE",
"188 323 OFFCURVE",
"188 344 CURVE SMOOTH",
"188 365 OFFCURVE",
"178 383 OFFCURVE",
"154 383 CURVE SMOOTH",
"140 383 OFFCURVE",
"119 375 OFFCURVE",
"113 354 CURVE SMOOTH",
"106 332 OFFCURVE",
"111 332 OFFCURVE",
"104 315 CURVE SMOOTH",
"97 297 OFFCURVE",
"82 290 OFFCURVE",
"67 290 CURVE SMOOTH",
"34 290 OFFCURVE",
"28 320 OFFCURVE",
"28 332 CURVE SMOOTH",
"28 385 OFFCURVE",
"77 423 OFFCURVE",
"133 423 CURVE SMOOTH",
"182 423 OFFCURVE",
"215 393 OFFCURVE",
"215 348 CURVE SMOOTH",
"215 343 OFFCURVE",
"215 338 OFFCURVE",
"214 333 CURVE",
"274 388 OFFCURVE",
"362 424 OFFCURVE",
"464 424 CURVE SMOOTH",
"562 424 OFFCURVE",
"627 405 OFFCURVE",
"655 389 CURVE",
"600 381 LINE",
"557 393 OFFCURVE",
"506 396 OFFCURVE",
"463 396 CURVE SMOOTH",
"334 396 OFFCURVE",
"261 342 OFFCURVE",
"214 301 CURVE",
"237 307 OFFCURVE",
"269 309 OFFCURVE",
"295 309 CURVE SMOOTH",
"412 309 OFFCURVE",
"503 245 OFFCURVE",
"503 123 CURVE SMOOTH",
"503 66 OFFCURVE",
"471 -1 OFFCURVE",
"388 -1 CURVE SMOOTH",
"343 -1 OFFCURVE",
"310 20 OFFCURVE",
"289 62 CURVE",
"272 22 OFFCURVE",
"240 -1 OFFCURVE",
"199 -1 CURVE SMOOTH",
"114 -1 OFFCURVE",
"117 71 OFFCURVE",
"85 71 CURVE SMOOTH",
"64 71 OFFCURVE",
"49 50 OFFCURVE",
"46 11 CURVE"
);
},
{
closed = 1;
nodes = (
"575 530 CURVE SMOOTH",
"575 518 OFFCURVE",
"599 514 OFFCURVE",
"599 503 CURVE SMOOTH",
"599 501 OFFCURVE",
"598 498 OFFCURVE",
"596 496 CURVE",
"628 502 OFFCURVE",
"667 507 OFFCURVE",
"712 507 CURVE SMOOTH",
"817 507 OFFCURVE",
"900 478 OFFCURVE",
"957 412 CURVE",
"925 524 OFFCURVE",
"830 576 OFFCURVE",
"717 576 CURVE SMOOTH",
"647 576 OFFCURVE",
"575 553 OFFCURVE"
);
},
{
closed = 1;
nodes = (
"472 190 CURVE SMOOTH",
"472 281 OFFCURVE",
"524 356 OFFCURVE",
"588 378 CURVE SMOOTH",
"609 385 OFFCURVE",
"631 389 OFFCURVE",
"655 389 CURVE",
"655 364 LINE SMOOTH",
"652 364 OFFCURVE",
"649 364 OFFCURVE",
"646 364 CURVE SMOOTH",
"569 364 OFFCURVE",
"505 294 OFFCURVE",
"505 207 CURVE SMOOTH",
"505 133 OFFCURVE",
"552 69 OFFCURVE",
"623 69 CURVE SMOOTH",
"673 69 OFFCURVE",
"723 90 OFFCURVE",
"723 152 CURVE SMOOTH",
"723 191 LINE",
"750 191 LINE",
"750 152 LINE SMOOTH",
"750 90 OFFCURVE",
"799 69 OFFCURVE",
"847 69 CURVE SMOOTH",
"945 69 OFFCURVE",
"980 184 OFFCURVE",
"980 260 CURVE SMOOTH",
"980 404 OFFCURVE",
"872 482 OFFCURVE",
"715 482 CURVE SMOOTH",
"641 482 OFFCURVE",
"572 467 OFFCURVE",
"497 445 CURVE",
"497 474 LINE",
"524 478 OFFCURVE",
"562 487 OFFCURVE",
"562 496 CURVE SMOOTH",
"562 508 OFFCURVE",
"535 512 OFFCURVE",
"535 533 CURVE SMOOTH",
"535 569 OFFCURVE",
"599 614 OFFCURVE",
"711 614 CURVE SMOOTH",
"914 614 OFFCURVE",
"986 479 OFFCURVE",
"998 348 CURVE",
"1007 324 OFFCURVE",
"1016 280 OFFCURVE",
"1016 239 CURVE SMOOTH",
"1016 131 OFFCURVE",
"975 0 OFFCURVE",
"852 0 CURVE SMOOTH",
"804 0 OFFCURVE",
"764 20 OFFCURVE",
"735 58 CURVE",
"705 20 OFFCURVE",
"669 0 OFFCURVE",
"625 0 CURVE SMOOTH",
"525 0 OFFCURVE",
"472 93 OFFCURVE"
);
}
);
width = 1061;
}
);
},
{
glyphname = "ny-sinhala";
lastChange = "2024-02-24 15:47:19 +0000";
layers = (
{
components = (
{
name = "nya-sinhala";
}
);
layerId = "C18F3EFD-FA9C-4751-AD2F-5B966120D1A5";
paths = (
{
closed = 1;
nodes = (
"826 403 LINE",
"826 664 LINE",
"879 623 OFFCURVE",
"973 618 OFFCURVE",
"973 528 CURVE SMOOTH",
"973 485 OFFCURVE",
"938 456 OFFCURVE",
"896 456 CURVE SMOOTH",
"881 456 OFFCURVE",
"869 459 OFFCURVE",
"854 466 CURVE",
"854 387 LINE"
);
},
{
closed = 1;
nodes = (
"854 490 LINE",
"863 485 OFFCURVE",
"872 483 OFFCURVE",
"885 483 CURVE SMOOTH",
"922 483 OFFCURVE",
"938 508 OFFCURVE",
"938 531 CURVE SMOOTH",
"938 572 OFFCURVE",
"900 592 OFFCURVE",
"854 622 CURVE"
);
}
);
width = 1019;
}
);
},
{
glyphname = "jny-sinhala";
lastChange = "2024-02-24 15:47:18 +0000";
layers = (
{
components = (
{
name = "jnya-sinhala";
}
);
layerId = "C18F3EFD-FA9C-4751-AD2F-5B966120D1A5";
paths = (
{
closed = 1;
nodes = (
"639 403 LINE",
"639 664 LINE",
"692 623 OFFCURVE",
"785 618 OFFCURVE",
"785 528 CURVE SMOOTH",
"785 485 OFFCURVE",
"751 456 OFFCURVE",
"709 456 CURVE SMOOTH",
"694 456 OFFCURVE",
"681 459 OFFCURVE",
"666 466 CURVE",
"666 387 LINE"
);
},
{
closed = 1;
nodes = (
"666 490 LINE",
"675 485 OFFCURVE",
"684 483 OFFCURVE",
"697 483 CURVE SMOOTH",
"734 483 OFFCURVE",
"750 508 OFFCURVE",
"750 531 CURVE SMOOTH",
"750 572 OFFCURVE",
"712 592 OFFCURVE",
"666 622 CURVE"
);
}
);
width = 822;
}
);
},
{
glyphname = "nyj-sinhala";
lastChange = "2024-02-24 15:47:20 +0000";
layers = (
{
components = (
{
name = "nyja-sinhala";
}
);
layerId = "C18F3EFD-FA9C-4751-AD2F-5B966120D1A5";
paths = (
{
closed = 1;
nodes = (
"393 348 LINE",
"393 738 LINE",
"449 692 OFFCURVE",
"536 687 OFFCURVE",
"536 611 CURVE SMOOTH",
"536 566 OFFCURVE",
"503 537 OFFCURVE",
"461 537 CURVE SMOOTH",
"447 537 OFFCURVE",
"433 538 OFFCURVE",
"418 543 CURVE",
"418 391 LINE"
);
},
{
closed = 1;
nodes = (
"418 567 LINE",
"428 563 OFFCURVE",
"439 562 OFFCURVE",
"454 562 CURVE SMOOTH",
"486 562 OFFCURVE",
"500 585 OFFCURVE",
"500 607 CURVE SMOOTH",
"500 656 OFFCURVE",
"454 671 OFFCURVE",
"418 695 CURVE"
);
}
);
width = 682;
}
);
},
{
glyphname = "tt-sinhala";
lastChange = "2024-02-24 15:47:21 +0000";
layers = (
{
layerId = "C18F3EFD-FA9C-4751-AD2F-5B966120D1A5";
paths = (
{
closed = 1;
nodes = (
"136 530 CURVE SMOOTH",
"136 518 OFFCURVE",
"159 514 OFFCURVE",
"159 503 CURVE SMOOTH",
"159 501 OFFCURVE",
"158 498 OFFCURVE",
"156 496 CURVE",
"194 504 OFFCURVE",
"227 507 OFFCURVE",
"272 507 CURVE SMOOTH",
"359 507 OFFCURVE",
"448 475 OFFCURVE",
"495 412 CURVE",
"463 524 OFFCURVE",
"381 576 OFFCURVE",
"277 576 CURVE SMOOTH",
"207 576 OFFCURVE",
"136 553 OFFCURVE"
);
},
{
closed = 1;
nodes = (
"41 432 CURVE",
"41 462 LINE",
"72 474 OFFCURVE",
"123 487 OFFCURVE",
"123 496 CURVE SMOOTH",
"123 508 OFFCURVE",
"96 512 OFFCURVE",
"96 533 CURVE SMOOTH",
"96 569 OFFCURVE",
"159 614 OFFCURVE",
"271 614 CURVE SMOOTH",
"461 614 OFFCURVE",
"524 479 OFFCURVE",
"536 348 CURVE",
"541 323 OFFCURVE",
"544 294 OFFCURVE",
"544 261 CURVE",
"511 272 LINE",
"511 280 OFFCURVE",
"511 279 OFFCURVE",
"511 283 CURVE SMOOTH",
"511 398 OFFCURVE",
"416 482 OFFCURVE",
"265 482 CURVE SMOOTH",
"191 482 OFFCURVE",
"120 469 OFFCURVE"
);
},
{
closed = 1;
nodes = (
"31 203 CURVE SMOOTH",
"31 315 OFFCURVE",
"123 382 OFFCURVE",
"227 382 CURVE SMOOTH",
"253 382 OFFCURVE",
"285 377 OFFCURVE",
"313 366 CURVE",
"313 338 LINE",
"287 351 OFFCURVE",
"260 356 OFFCURVE",
"229 356 CURVE SMOOTH",
"145 356 OFFCURVE",
"64 307 OFFCURVE",
"64 213 CURVE SMOOTH",
"64 113 OFFCURVE",
"172 69 OFFCURVE",
"270 69 CURVE SMOOTH",
"409 69 OFFCURVE",
"511 145 OFFCURVE",
"511 289 CURVE",
"520 285 OFFCURVE",
"529 270 OFFCURVE",
"544 265 CURVE",
"544 113 OFFCURVE",
"436 -1 OFFCURVE",
"278 -1 CURVE SMOOTH",
"130 -1 OFFCURVE",
"31 79 OFFCURVE"
);
}
);
width = 588;
}
);
},
{
glyphname = "tth-sinhala";
lastChange = "2024-02-24 15:47:21 +0000";
layers = (
{
layerId = "C18F3EFD-FA9C-4751-AD2F-5B966120D1A5";
paths = (
{
closed = 1;
nodes = (
"32 190 CURVE SMOOTH",
"32 281 OFFCURVE",
"84 356 OFFCURVE",
"148 378 CURVE SMOOTH",
"169 385 OFFCURVE",
"192 389 OFFCURVE",
"216 389 CURVE",
"216 364 LINE",
"213 364 OFFCURVE",
"209 364 OFFCURVE",
"206 364 CURVE SMOOTH",
"129 364 OFFCURVE",
"65 294 OFFCURVE",
"65 207 CURVE SMOOTH",
"65 133 OFFCURVE",
"113 69 OFFCURVE",
"184 69 CURVE SMOOTH",
"234 69 OFFCURVE",
"283 90 OFFCURVE",
"283 152 CURVE SMOOTH",
"283 191 LINE",
"311 191 LINE",
"311 152 LINE SMOOTH",
"311 90 OFFCURVE",
"359 69 OFFCURVE",
"407 69 CURVE SMOOTH",
"501 69 OFFCURVE",
"542 154 OFFCURVE",
"542 241 CURVE SMOOTH",
"542 321 OFFCURVE",
"501 381 OFFCURVE",
"473 413 CURVE",
"458 379 OFFCURVE",
"429 358 OFFCURVE",
"387 358 CURVE SMOOTH",
"325 358 OFFCURVE",
"289 413 OFFCURVE",
"289 477 CURVE SMOOTH",
"289 516 OFFCURVE",
"304 561 OFFCURVE",
"330 591 CURVE",
"390 561 OFFCURVE",
"453 491 OFFCURVE",
"494 436 CURVE SMOOTH",
"544 369 OFFCURVE",
"575 313 OFFCURVE",
"575 227 CURVE SMOOTH",
"575 127 OFFCURVE",
"535 0 OFFCURVE",
"412 0 CURVE SMOOTH",
"364 0 OFFCURVE",
"325 20 OFFCURVE",
"296 58 CURVE",
"266 20 OFFCURVE",
"230 0 OFFCURVE",
"186 0 CURVE SMOOTH",
"86 0 OFFCURVE",
"32 93 OFFCURVE"
);
},
{
closed = 1;
nodes = (
"318 480 CURVE SMOOTH",
"318 432 OFFCURVE",
"338 394 OFFCURVE",
"394 394 CURVE SMOOTH",
"417 394 OFFCURVE",
"444 405 OFFCURVE",
"454 438 CURVE",
"425 483 OFFCURVE",
"376 528 OFFCURVE",
"339 555 CURVE",
"327 537 OFFCURVE",
"318 514 OFFCURVE"
);
},
{
closed = 1;
nodes = (
"462 539 LINE",
"468 536 OFFCURVE",
"483 533 OFFCURVE",
"494 533 CURVE SMOOTH",
"523 533 OFFCURVE",
"546 546 OFFCURVE",
"546 581 CURVE SMOOTH",
"546 636 OFFCURVE",
"483 652 OFFCURVE",
"462 669 CURVE"
);
},
{
closed = 1;
nodes = (
"435 501 LINE",
"435 713 LINE",
"490 667 OFFCURVE",
"586 671 OFFCURVE",
"586 580 CURVE SMOOTH",
"586 541 OFFCURVE",
"557 509 OFFCURVE",
"511 509 CURVE SMOOTH",
"488 509 OFFCURVE",
"471 514 OFFCURVE",
"462 517 CURVE",
"462 463 LINE"
);
}
);
width = 616;
}
);
},
{
glyphname = "dd-sinhala";
lastChange = "2024-02-24 15:47:17 +0000";
layers = (
{
layerId = "C18F3EFD-FA9C-4751-AD2F-5B966120D1A5";
paths = (
{
closed = 1;
nodes = (
"144 530 CURVE SMOOTH",
"144 518 OFFCURVE",
"167 514 OFFCURVE",
"167 503 CURVE SMOOTH",
"167 501 OFFCURVE",
"166 498 OFFCURVE",
"164 496 CURVE",
"196 502 OFFCURVE",
"235 507 OFFCURVE",
"280 507 CURVE SMOOTH",
"385 507 OFFCURVE",
"468 478 OFFCURVE",
"525 412 CURVE",
"493 524 OFFCURVE",
"398 576 OFFCURVE",
"285 576 CURVE SMOOTH",
"215 576 OFFCURVE",
"144 553 OFFCURVE"
);
},
{
closed = 1;
nodes = (
"49 432 CURVE",
"49 462 LINE",
"80 474 OFFCURVE",
"131 487 OFFCURVE",
"131 496 CURVE SMOOTH",
"131 508 OFFCURVE",
"104 512 OFFCURVE",
"104 533 CURVE SMOOTH",
"104 569 OFFCURVE",
"167 614 OFFCURVE",
"279 614 CURVE SMOOTH",
"482 614 OFFCURVE",
"554 479 OFFCURVE",
"566 348 CURVE",
"577 322 OFFCURVE",
"584 289 OFFCURVE",
"584 248 CURVE",
"549 244 LINE",
"549 247 OFFCURVE",
"549 261 OFFCURVE",
"549 266 CURVE SMOOTH",
"549 400 OFFCURVE",
"440 481 OFFCURVE",
"283 481 CURVE SMOOTH",
"209 481 OFFCURVE",
"128 469 OFFCURVE"
);
},
{
closed = 1;
nodes = (
"15 281 LINE",
"15 308 LINE",
"255 308 LINE",
"252 350 OFFCURVE",
"222 382 OFFCURVE",
"193 382 CURVE SMOOTH",
"175 382 OFFCURVE",
"161 377 OFFCURVE",
"147 354 CURVE SMOOTH",
"136 335 OFFCURVE",
"124 331 OFFCURVE",
"110 331 CURVE SMOOTH",
"90 331 OFFCURVE",
"74 344 OFFCURVE",
"74 365 CURVE SMOOTH",
"74 404 OFFCURVE",
"120 422 OFFCURVE",
"161 422 CURVE SMOOTH",
"243 422 OFFCURVE",
"287 365 OFFCURVE",
"288 281 CURVE",
"215 281 LINE SMOOTH",
"124 281 OFFCURVE",
"81 225 OFFCURVE",
"81 170 CURVE SMOOTH",
"81 119 OFFCURVE",
"120 69 OFFCURVE",
"193 69 CURVE SMOOTH",
"241 69 OFFCURVE",
"292 93 OFFCURVE",
"292 140 CURVE SMOOTH",
"292 174 LINE",
"318 174 LINE",
"318 140 LINE SMOOTH",
"318 95 OFFCURVE",
"365 69 OFFCURVE",
"414 69 CURVE SMOOTH",
"508 69 OFFCURVE",
"549 163 OFFCURVE",
"549 267 CURVE",
"564 264 OFFCURVE",
"577 256 OFFCURVE",
"584 252 CURVE",
"584 123 OFFCURVE",
"534 0 OFFCURVE",
"418 0 CURVE SMOOTH",
"355 0 OFFCURVE",
"327 29 OFFCURVE",
"306 58 CURVE",
"277 22 OFFCURVE",
"244 0 OFFCURVE",
"194 0 CURVE SMOOTH",
"95 0 OFFCURVE",
"45 79 OFFCURVE",
"45 158 CURVE SMOOTH",
"45 207 OFFCURVE",
"69 258 OFFCURVE",
"122 281 CURVE"
);
}
);
width = 631;
}
);
},
{
glyphname = "ddh-sinhala";
lastChange = "2024-02-24 15:47:17 +0000";
layers = (
{
layerId = "C18F3EFD-FA9C-4751-AD2F-5B966120D1A5";
paths = (
{
closed = 1;
nodes = (
"466 507 LINE",
"472 504 OFFCURVE",
"487 501 OFFCURVE",
"498 501 CURVE SMOOTH",
"527 501 OFFCURVE",
"550 514 OFFCURVE",
"550 549 CURVE SMOOTH",
"550 604 OFFCURVE",
"487 620 OFFCURVE",
"466 637 CURVE"
);
},
{
closed = 1;
nodes = (
"438 472 LINE",
"438 681 LINE",
"493 635 OFFCURVE",
"590 639 OFFCURVE",
"590 548 CURVE SMOOTH",
"590 509 OFFCURVE",
"561 477 OFFCURVE",
"515 477 CURVE SMOOTH",
"492 477 OFFCURVE",
"475 481 OFFCURVE",
"466 484 CURVE",
"466 442 LINE"
);
},
{
closed = 1;
nodes = (
"322 469 CURVE SMOOTH",
"322 421 OFFCURVE",
"342 382 OFFCURVE",
"398 382 CURVE SMOOTH",
"421 382 OFFCURVE",
"451 392 OFFCURVE",
"466 426 CURVE",
"438 465 OFFCURVE",
"381 516 OFFCURVE",
"344 543 CURVE",
"334 528 OFFCURVE",
"322 503 OFFCURVE"
);
},
{
closed = 1;
nodes = (
"15 281 LINE",
"15 308 LINE",
"252 308 LINE",
"249 350 OFFCURVE",
"219 382 OFFCURVE",
"190 382 CURVE SMOOTH",
"172 382 OFFCURVE",
"159 377 OFFCURVE",
"145 354 CURVE SMOOTH",
"134 335 OFFCURVE",
"121 331 OFFCURVE",
"107 331 CURVE SMOOTH",
"87 331 OFFCURVE",
"71 344 OFFCURVE",
"71 365 CURVE SMOOTH",
"71 404 OFFCURVE",
"117 422 OFFCURVE",
"158 422 CURVE SMOOTH",
"240 422 OFFCURVE",
"284 365 OFFCURVE",
"285 281 CURVE",
"215 281 LINE SMOOTH",
"124 281 OFFCURVE",
"81 225 OFFCURVE",
"81 170 CURVE SMOOTH",
"81 119 OFFCURVE",
"120 69 OFFCURVE",
"193 69 CURVE SMOOTH",
"241 69 OFFCURVE",
"292 93 OFFCURVE",
"292 140 CURVE SMOOTH",
"292 174 LINE",
"318 174 LINE",
"318 140 LINE SMOOTH",
"318 95 OFFCURVE",
"365 69 OFFCURVE",
"414 69 CURVE SMOOTH",
"508 69 OFFCURVE",
"546 163 OFFCURVE",
"546 227 CURVE SMOOTH",
"546 311 OFFCURVE",
"505 367 OFFCURVE",
"484 398 CURVE",
"463 364 OFFCURVE",
"433 347 OFFCURVE",
"391 347 CURVE SMOOTH",
"329 347 OFFCURVE",
"293 401 OFFCURVE",
"293 465 CURVE SMOOTH",
"293 514 OFFCURVE",
"310 548 OFFCURVE",
"334 579 CURVE",
"394 547 OFFCURVE",
"465 475 OFFCURVE",
"506 418 CURVE SMOOTH",
"548 359 OFFCURVE",
"583 285 OFFCURVE",
"583 212 CURVE SMOOTH",
"583 125 OFFCURVE",
"540 0 OFFCURVE",
"416 0 CURVE SMOOTH",
"355 0 OFFCURVE",
"327 29 OFFCURVE",
"306 58 CURVE",
"277 22 OFFCURVE",
"244 0 OFFCURVE",
"194 0 CURVE SMOOTH",
"95 0 OFFCURVE",
"45 79 OFFCURVE",
"45 158 CURVE SMOOTH",
"45 207 OFFCURVE",
"69 258 OFFCURVE",
"122 281 CURVE"
);
}
);
width = 631;
}
);
},
